%TF.GenerationSoftware,KiCad,Pcbnew,9.0.0*%
%TF.CreationDate,2025-11-25T16:08:04+02:00*%
%TF.ProjectId,Start_Stop_Remote,53746172-745f-4537-946f-705f52656d6f,rev?*%
%TF.SameCoordinates,Original*%
%TF.FileFunction,Copper,L2,Bot*%
%TF.FilePolarity,Positive*%
%FSLAX46Y46*%
G04 Gerber Fmt 4.6, Leading zero omitted, Abs format (unit mm)*
G04 Created by KiCad (PCBNEW 9.0.0) date 2025-11-25 16:08:04*
%MOMM*%
%LPD*%
G01*
G04 APERTURE LIST*
G04 Aperture macros list*
%AMRoundRect*
0 Rectangle with rounded corners*
0 $1 Rounding radius*
0 $2 $3 $4 $5 $6 $7 $8 $9 X,Y pos of 4 corners*
0 Add a 4 corners polygon primitive as box body*
4,1,4,$2,$3,$4,$5,$6,$7,$8,$9,$2,$3,0*
0 Add four circle primitives for the rounded corners*
1,1,$1+$1,$2,$3*
1,1,$1+$1,$4,$5*
1,1,$1+$1,$6,$7*
1,1,$1+$1,$8,$9*
0 Add four rect primitives between the rounded corners*
20,1,$1+$1,$2,$3,$4,$5,0*
20,1,$1+$1,$4,$5,$6,$7,0*
20,1,$1+$1,$6,$7,$8,$9,0*
20,1,$1+$1,$8,$9,$2,$3,0*%
%AMRotRect*
0 Rectangle, with rotation*
0 The origin of the aperture is its center*
0 $1 length*
0 $2 width*
0 $3 Rotation angle, in degrees counterclockwise*
0 Add horizontal line*
21,1,$1,$2,0,0,$3*%
G04 Aperture macros list end*
%TA.AperFunction,ComponentPad*%
%ADD10C,0.800000*%
%TD*%
%TA.AperFunction,ComponentPad*%
%ADD11C,6.400000*%
%TD*%
%TA.AperFunction,ComponentPad*%
%ADD12RoundRect,0.250000X0.450000X-0.450000X0.450000X0.450000X-0.450000X0.450000X-0.450000X-0.450000X0*%
%TD*%
%TA.AperFunction,ComponentPad*%
%ADD13C,1.400000*%
%TD*%
%TA.AperFunction,ComponentPad*%
%ADD14R,1.800000X1.800000*%
%TD*%
%TA.AperFunction,ComponentPad*%
%ADD15C,1.800000*%
%TD*%
%TA.AperFunction,ComponentPad*%
%ADD16R,1.700000X1.700000*%
%TD*%
%TA.AperFunction,ComponentPad*%
%ADD17O,1.700000X1.700000*%
%TD*%
%TA.AperFunction,ComponentPad*%
%ADD18RotRect,1.800000X1.800000X45.000000*%
%TD*%
%TA.AperFunction,ComponentPad*%
%ADD19R,2.000000X2.000000*%
%TD*%
%TA.AperFunction,ComponentPad*%
%ADD20C,2.000000*%
%TD*%
%TA.AperFunction,ComponentPad*%
%ADD21RotRect,1.800000X1.800000X315.000000*%
%TD*%
%TA.AperFunction,ViaPad*%
%ADD22C,0.600000*%
%TD*%
%TA.AperFunction,Conductor*%
%ADD23C,0.300000*%
%TD*%
%TA.AperFunction,Conductor*%
%ADD24C,0.500000*%
%TD*%
G04 APERTURE END LIST*
D10*
%TO.P,H1,1,1*%
%TO.N,GND*%
X7100000Y-18000000D03*
X7802944Y-16302944D03*
X7802944Y-19697056D03*
X9500000Y-15600000D03*
D11*
X9500000Y-18000000D03*
D10*
X9500000Y-20400000D03*
X11197056Y-16302944D03*
X11197056Y-19697056D03*
X11900000Y-18000000D03*
%TD*%
%TO.P,H3,1,1*%
%TO.N,GND*%
X6600000Y-76000000D03*
X7302944Y-74302944D03*
X7302944Y-77697056D03*
X9000000Y-73600000D03*
D11*
X9000000Y-76000000D03*
D10*
X9000000Y-78400000D03*
X10697056Y-74302944D03*
X10697056Y-77697056D03*
X11400000Y-76000000D03*
%TD*%
D12*
%TO.P,SW6,1,A*%
%TO.N,Net-(BT1-+)*%
X40700000Y-57000000D03*
D13*
%TO.P,SW6,2,B*%
%TO.N,VCC*%
X40700000Y-54500000D03*
%TO.P,SW6,3,C*%
%TO.N,unconnected-(SW6-C-Pad3)*%
X40700000Y-52000000D03*
%TO.P,SW6,4,A*%
%TO.N,unconnected-(SW6-A-Pad4)*%
X44000000Y-52000000D03*
%TO.P,SW6,5,B*%
%TO.N,unconnected-(SW6-B-Pad5)*%
X44000000Y-54500000D03*
%TO.P,SW6,6,C*%
%TO.N,unconnected-(SW6-C-Pad6)*%
X44000000Y-57000000D03*
%TD*%
D10*
%TO.P,H2,1,1*%
%TO.N,GND*%
X38100000Y-18000000D03*
X38802944Y-16302944D03*
X38802944Y-19697056D03*
X40500000Y-15600000D03*
D11*
X40500000Y-18000000D03*
D10*
X40500000Y-20400000D03*
X42197056Y-16302944D03*
X42197056Y-19697056D03*
X42900000Y-18000000D03*
%TD*%
%TO.P,H4,1,1*%
%TO.N,GND*%
X38600000Y-76000000D03*
X39302944Y-74302944D03*
X39302944Y-77697056D03*
X41000000Y-73600000D03*
D11*
X41000000Y-76000000D03*
D10*
X41000000Y-78400000D03*
X42697056Y-74302944D03*
X42697056Y-77697056D03*
X43400000Y-76000000D03*
%TD*%
D14*
%TO.P,D12,1,K*%
%TO.N,GND*%
X26275000Y-75475000D03*
D15*
%TO.P,D12,2,A*%
%TO.N,Net-(D12-A)*%
X23735000Y-75475000D03*
%TD*%
D14*
%TO.P,D10,1,K*%
%TO.N,Net-(D10-K)*%
X23725000Y-6025000D03*
D15*
%TO.P,D10,2,A*%
%TO.N,VCC*%
X26265000Y-6025000D03*
%TD*%
D16*
%TO.P,J1,1,MISO*%
%TO.N,/MISO*%
X42540000Y-63920000D03*
D17*
%TO.P,J1,2,VCC*%
%TO.N,VCC*%
X40000000Y-63920000D03*
%TO.P,J1,3,SCK*%
%TO.N,/SCK*%
X42540000Y-66460000D03*
%TO.P,J1,4,MOSI*%
%TO.N,/MOSI*%
X40000000Y-66460000D03*
%TO.P,J1,5,~{RST}*%
%TO.N,/RESET*%
X42540000Y-69000000D03*
%TO.P,J1,6,GND*%
%TO.N,GND*%
X40000000Y-69000000D03*
%TD*%
D18*
%TO.P,D9,1,K*%
%TO.N,Net-(D1-K)*%
X13565864Y-9868987D03*
D15*
%TO.P,D9,2,A*%
%TO.N,VCC*%
X15361915Y-8072936D03*
%TD*%
D19*
%TO.P,BT1,1,+*%
%TO.N,Net-(BT1-+)*%
X30500000Y-71400000D03*
D20*
%TO.P,BT1,2,-*%
%TO.N,GND*%
X19500000Y-71400000D03*
%TD*%
D21*
%TO.P,D11,1,K*%
%TO.N,Net-(D11-K)*%
X34203949Y-8203949D03*
D15*
%TO.P,D11,2,A*%
%TO.N,VCC*%
X36000000Y-10000000D03*
%TD*%
D22*
%TO.N,GND*%
X35800000Y-45094975D03*
X31500000Y-62500000D03*
X27000000Y-11000000D03*
X24000000Y-46500000D03*
X9000000Y-35500000D03*
X28000000Y-77500000D03*
X29500000Y-56000000D03*
X7000000Y-60500000D03*
X25000000Y-16500000D03*
X26000000Y-50000000D03*
X15000000Y-35500000D03*
X18000000Y-65500000D03*
X11500000Y-56000000D03*
X41000000Y-61500000D03*
X36000000Y-49500000D03*
X17500000Y-31500000D03*
X17500000Y-5500000D03*
X33000000Y-5000000D03*
X39500000Y-48500000D03*
X37000000Y-62500000D03*
X19000000Y-3500000D03*
X19000000Y-12000000D03*
X34000000Y-67000000D03*
X9000000Y-49000000D03*
X34500000Y-58500000D03*
X31500000Y-57500000D03*
X27000000Y-39800000D03*
X43500000Y-60000000D03*
X18000000Y-49000000D03*
X27500000Y-4000000D03*
X29500000Y-13500000D03*
X38700000Y-60325007D03*
X38500000Y-54000000D03*
X33500000Y-41000000D03*
X6500000Y-71500000D03*
X37000000Y-58500000D03*
X34000000Y-44000000D03*
X25000000Y-27000000D03*
X18500000Y-56000000D03*
%TO.N,/S_LED1*%
X14000000Y-62495000D03*
X28212132Y-51712132D03*
%TO.N,/S_LED2*%
X29000000Y-51000000D03*
X14000000Y-63495000D03*
%TO.N,/S_LED3*%
X14000000Y-64495000D03*
X30000000Y-50000001D03*
%TO.N,/MOSI*%
X31000000Y-49000000D03*
X35000000Y-54000000D03*
X11500000Y-25000000D03*
%TO.N,/MISO*%
X35800000Y-53000000D03*
%TO.N,/SCK*%
X36500000Y-52000000D03*
%TO.N,/RESET*%
X30500000Y-47000000D03*
X37000000Y-66000000D03*
%TO.N,/CMD_LEDS*%
X29500000Y-42500000D03*
X31750000Y-56250000D03*
%TO.N,/SW_STOP*%
X23750000Y-40750000D03*
X23000000Y-49000000D03*
%TO.N,Net-(U1-PD0)*%
X30500000Y-40000000D03*
X25000000Y-46500000D03*
X41000000Y-40000000D03*
X25000000Y-40500000D03*
%TO.N,Net-(U1-ADC6)*%
X41000000Y-47500000D03*
X34494975Y-46994976D03*
%TO.N,Net-(U1-ADC7)*%
X41000000Y-42500000D03*
X34500000Y-42000000D03*
%TO.N,Net-(U1-AREF)*%
X33500000Y-46500000D03*
X41000000Y-45500000D03*
%TD*%
D23*
%TO.N,/S_LED1*%
X25500000Y-55000000D02*
X28212132Y-52287868D01*
X14000000Y-62495000D02*
X15255000Y-62495000D01*
X22750000Y-55000000D02*
X25500000Y-55000000D01*
X15255000Y-62495000D02*
X22750000Y-55000000D01*
X28212132Y-52287868D02*
X28212132Y-51712132D01*
%TO.N,/S_LED2*%
X15755000Y-62995000D02*
X14500000Y-62995000D01*
X26000000Y-55500000D02*
X23250000Y-55500000D01*
X14500000Y-62995000D02*
X14000000Y-63495000D01*
X29000000Y-52500000D02*
X26000000Y-55500000D01*
X29000000Y-51000000D02*
X29000000Y-52500000D01*
X23250000Y-55500000D02*
X15755000Y-62995000D01*
%TO.N,/S_LED3*%
X25207106Y-57000000D02*
X22750000Y-57000000D01*
X14995000Y-63500000D02*
X14000000Y-64495000D01*
X16250000Y-63500000D02*
X14995000Y-63500000D01*
X30000000Y-50000001D02*
X30000000Y-52207106D01*
X22750000Y-57000000D02*
X16250000Y-63500000D01*
X30000000Y-52207106D02*
X25207106Y-57000000D01*
%TO.N,/MOSI*%
X38000000Y-58000000D02*
X35000000Y-55000000D01*
X40000000Y-66460000D02*
X38000000Y-64460000D01*
X28000000Y-46000000D02*
X28000000Y-43500000D01*
X20500000Y-36000000D02*
X18000000Y-36000000D01*
X38000000Y-64460000D02*
X38000000Y-58000000D01*
X25289950Y-39800000D02*
X24300000Y-39800000D01*
X28000000Y-43500000D02*
X25700000Y-41200000D01*
X11500000Y-29500000D02*
X11500000Y-25000000D01*
X24300000Y-39800000D02*
X20500000Y-36000000D01*
X25700000Y-40210050D02*
X25289950Y-39800000D01*
X31000000Y-49000000D02*
X28000000Y-46000000D01*
X18000000Y-36000000D02*
X11500000Y-29500000D01*
X25700000Y-41200000D02*
X25700000Y-40210050D01*
X35000000Y-55000000D02*
X35000000Y-54000000D01*
D24*
%TO.N,VCC*%
X25927064Y-8072936D02*
X26265000Y-7735000D01*
X31000000Y-11000000D02*
X35000000Y-11000000D01*
X26265000Y-7735000D02*
X26265000Y-6025000D01*
X15361915Y-8072936D02*
X25927064Y-8072936D01*
X26265000Y-6265000D02*
X31000000Y-11000000D01*
X35000000Y-11000000D02*
X36000000Y-10000000D01*
X26265000Y-6025000D02*
X26265000Y-6265000D01*
D23*
%TO.N,/MISO*%
X42540000Y-61540000D02*
X36500000Y-55500000D01*
X36500000Y-55500000D02*
X36500000Y-53700000D01*
X36500000Y-53700000D02*
X35800000Y-53000000D01*
X42540000Y-63920000D02*
X42540000Y-61540000D01*
%TO.N,/SCK*%
X41000000Y-59000000D02*
X40943130Y-59000000D01*
X44000000Y-65000000D02*
X44000000Y-62000000D01*
X44000000Y-62000000D02*
X41000000Y-59000000D01*
X40943130Y-59000000D02*
X37000000Y-55056870D01*
X37000000Y-55056870D02*
X37000000Y-52500000D01*
X37000000Y-52500000D02*
X36500000Y-52000000D01*
X42540000Y-66460000D02*
X44000000Y-65000000D01*
%TO.N,/RESET*%
X30500000Y-59500000D02*
X37000000Y-66000000D01*
X38000000Y-70000000D02*
X39000000Y-71000000D01*
X42540000Y-69480000D02*
X42540000Y-69000000D01*
X32000000Y-52000000D02*
X30500000Y-53500000D01*
X30500000Y-47000000D02*
X32000000Y-48500000D01*
X41020000Y-71000000D02*
X42540000Y-69480000D01*
X30500000Y-53500000D02*
X30500000Y-59500000D01*
X38000000Y-67000000D02*
X38000000Y-70000000D01*
X37000000Y-66000000D02*
X38000000Y-67000000D01*
X32000000Y-48500000D02*
X32000000Y-52000000D01*
X39000000Y-71000000D02*
X41020000Y-71000000D01*
%TO.N,/CMD_LEDS*%
X33500000Y-47489950D02*
X33500000Y-54500000D01*
X29500000Y-42500000D02*
X32800000Y-45800000D01*
X32800000Y-45800000D02*
X32800000Y-46789950D01*
X33500000Y-54500000D02*
X31750000Y-56250000D01*
X32800000Y-46789950D02*
X33500000Y-47489950D01*
%TO.N,/SW_STOP*%
X23000000Y-41500000D02*
X23750000Y-40750000D01*
X23000000Y-49000000D02*
X23000000Y-41500000D01*
%TO.N,Net-(U1-PD0)*%
X25000000Y-46500000D02*
X25000000Y-40500000D01*
X30500000Y-40000000D02*
X41000000Y-40000000D01*
%TO.N,Net-(U1-ADC6)*%
X34989951Y-46500000D02*
X40000000Y-46500000D01*
X40000000Y-46500000D02*
X41000000Y-47500000D01*
X34494975Y-46994976D02*
X34989951Y-46500000D01*
%TO.N,Net-(U1-ADC7)*%
X34500000Y-42000000D02*
X38500000Y-42000000D01*
X40000000Y-42500000D02*
X41000000Y-42500000D01*
X39000000Y-42500000D02*
X40000000Y-42500000D01*
X38500000Y-42000000D02*
X39000000Y-42500000D01*
%TO.N,Net-(U1-AREF)*%
X34000000Y-46000000D02*
X40500000Y-46000000D01*
X40500000Y-46000000D02*
X41000000Y-45500000D01*
X33500000Y-46500000D02*
X34000000Y-46000000D01*
%TD*%
%TA.AperFunction,Conductor*%
%TO.N,GND*%
G36*
X30931631Y-500618D02*
G01*
X31315701Y-517388D01*
X31326437Y-518328D01*
X31704908Y-568155D01*
X31715527Y-570027D01*
X32088220Y-652650D01*
X32098646Y-655444D01*
X32347063Y-733768D01*
X32462697Y-770227D01*
X32472862Y-773927D01*
X32825505Y-919993D01*
X32835308Y-924564D01*
X33173890Y-1100813D01*
X33183255Y-1106218D01*
X33505199Y-1311313D01*
X33514053Y-1317513D01*
X33699751Y-1459998D01*
X33816889Y-1549878D01*
X33825175Y-1556831D01*
X34107988Y-1815969D01*
X34111898Y-1819712D01*
X43179697Y-10887511D01*
X43183432Y-10891412D01*
X43294657Y-11012791D01*
X43443159Y-11174851D01*
X43450113Y-11183138D01*
X43682481Y-11485965D01*
X43688686Y-11494827D01*
X43893773Y-11816750D01*
X43899181Y-11826118D01*
X44075433Y-12164696D01*
X44080005Y-12174501D01*
X44226070Y-12527140D01*
X44229770Y-12537305D01*
X44344548Y-12901340D01*
X44347348Y-12911790D01*
X44429962Y-13284453D01*
X44431840Y-13295106D01*
X44481656Y-13673534D01*
X44482599Y-13684311D01*
X44499381Y-14068791D01*
X44499499Y-14074196D01*
X44499499Y-14107126D01*
X44499499Y-14136953D01*
X44499499Y-14136955D01*
X44499500Y-14146947D01*
X44499500Y-50729345D01*
X44479815Y-50796384D01*
X44427011Y-50842139D01*
X44357853Y-50852083D01*
X44337181Y-50847276D01*
X44281118Y-50829059D01*
X44094486Y-50799500D01*
X44094481Y-50799500D01*
X43905519Y-50799500D01*
X43905514Y-50799500D01*
X43718881Y-50829059D01*
X43539163Y-50887454D01*
X43370800Y-50973240D01*
X43283579Y-51036610D01*
X43217927Y-51084310D01*
X43217925Y-51084312D01*
X43217924Y-51084312D01*
X43084312Y-51217924D01*
X43084312Y-51217925D01*
X43084310Y-51217927D01*
X43075347Y-51230264D01*
X42973240Y-51370800D01*
X42887454Y-51539163D01*
X42829059Y-51718881D01*
X42799500Y-51905513D01*
X42799500Y-52094486D01*
X42829059Y-52281118D01*
X42887454Y-52460836D01*
X42968968Y-52620814D01*
X42973240Y-52629199D01*
X43084310Y-52782073D01*
X43217927Y-52915690D01*
X43370801Y-53026760D01*
X43450347Y-53067290D01*
X43539163Y-53112545D01*
X43539165Y-53112545D01*
X43539168Y-53112547D01*
X43599251Y-53132069D01*
X43656926Y-53171507D01*
X43684124Y-53235866D01*
X43672209Y-53304712D01*
X43624965Y-53356188D01*
X43599253Y-53367930D01*
X43580756Y-53373939D01*
X43539163Y-53387454D01*
X43370800Y-53473240D01*
X43330386Y-53502603D01*
X43217927Y-53584310D01*
X43217925Y-53584312D01*
X43217924Y-53584312D01*
X43084312Y-53717924D01*
X43084312Y-53717925D01*
X43084310Y-53717927D01*
X43073267Y-53733127D01*
X42973240Y-53870800D01*
X42887454Y-54039163D01*
X42829059Y-54218881D01*
X42799500Y-54405513D01*
X42799500Y-54594486D01*
X42829059Y-54781118D01*
X42887454Y-54960836D01*
X42940055Y-55064070D01*
X42973240Y-55129199D01*
X43084310Y-55282073D01*
X43217927Y-55415690D01*
X43370801Y-55526760D01*
X43433946Y-55558934D01*
X43539163Y-55612545D01*
X43539165Y-55612545D01*
X43539168Y-55612547D01*
X43599251Y-55632069D01*
X43656926Y-55671507D01*
X43684124Y-55735866D01*
X43672209Y-55804712D01*
X43624965Y-55856188D01*
X43599253Y-55867930D01*
X43580756Y-55873939D01*
X43539163Y-55887454D01*
X43370800Y-55973240D01*
X43283579Y-56036610D01*
X43217927Y-56084310D01*
X43217925Y-56084312D01*
X43217924Y-56084312D01*
X43084312Y-56217924D01*
X43084312Y-56217925D01*
X43084310Y-56217927D01*
X43036610Y-56283579D01*
X42973240Y-56370800D01*
X42887454Y-56539163D01*
X42829059Y-56718881D01*
X42799500Y-56905513D01*
X42799500Y-57094486D01*
X42829059Y-57281118D01*
X42887454Y-57460836D01*
X42971355Y-57625500D01*
X42973240Y-57629199D01*
X43084310Y-57782073D01*
X43217927Y-57915690D01*
X43370801Y-58026760D01*
X43402105Y-58042710D01*
X43539163Y-58112545D01*
X43539165Y-58112545D01*
X43539168Y-58112547D01*
X43635497Y-58143846D01*
X43718881Y-58170940D01*
X43905514Y-58200500D01*
X43905519Y-58200500D01*
X44094486Y-58200500D01*
X44184963Y-58186169D01*
X44281118Y-58170940D01*
X44281123Y-58170938D01*
X44281125Y-58170938D01*
X44311447Y-58161085D01*
X44337180Y-58152723D01*
X44407021Y-58150727D01*
X44466854Y-58186806D01*
X44497683Y-58249507D01*
X44499500Y-58270654D01*
X44499500Y-61280191D01*
X44479815Y-61347230D01*
X44427011Y-61392985D01*
X44357853Y-61402929D01*
X44294297Y-61373904D01*
X44287819Y-61367872D01*
X41414673Y-58494726D01*
X41308126Y-58423534D01*
X41300298Y-58420292D01*
X41245895Y-58376450D01*
X41223832Y-58310155D01*
X41241113Y-58242456D01*
X41292251Y-58194847D01*
X41308740Y-58188029D01*
X41469334Y-58134814D01*
X41618656Y-58042712D01*
X41742712Y-57918656D01*
X41834814Y-57769334D01*
X41889999Y-57602797D01*
X41900500Y-57500009D01*
X41900499Y-56499992D01*
X41898814Y-56483500D01*
X41889999Y-56397203D01*
X41889998Y-56397200D01*
X41881250Y-56370800D01*
X41834814Y-56230666D01*
X41742712Y-56081344D01*
X41618656Y-55957288D01*
X41525888Y-55900069D01*
X41469336Y-55865187D01*
X41469331Y-55865185D01*
X41442180Y-55856188D01*
X41302797Y-55810001D01*
X41302795Y-55810000D01*
X41280424Y-55807715D01*
X41215733Y-55781317D01*
X41175583Y-55724136D01*
X41172721Y-55654325D01*
X41208056Y-55594049D01*
X41236731Y-55573874D01*
X41329199Y-55526760D01*
X41482073Y-55415690D01*
X41615690Y-55282073D01*
X41726760Y-55129199D01*
X41812547Y-54960832D01*
X41870940Y-54781118D01*
X41872328Y-54772352D01*
X41900500Y-54594486D01*
X41900500Y-54405513D01*
X41870940Y-54218881D01*
X41812545Y-54039163D01*
X41726759Y-53870800D01*
X41615690Y-53717927D01*
X41482073Y-53584310D01*
X41329199Y-53473240D01*
X41228105Y-53421730D01*
X41160834Y-53387454D01*
X41160833Y-53387453D01*
X41160832Y-53387453D01*
X41100748Y-53367930D01*
X41043073Y-53328493D01*
X41015875Y-53264135D01*
X41027790Y-53195288D01*
X41075034Y-53143813D01*
X41100746Y-53132069D01*
X41160832Y-53112547D01*
X41329199Y-53026760D01*
X41482073Y-52915690D01*
X41615690Y-52782073D01*
X41726760Y-52629199D01*
X41812547Y-52460832D01*
X41870940Y-52281118D01*
X41876443Y-52246373D01*
X41900500Y-52094486D01*
X41900500Y-51905513D01*
X41870940Y-51718881D01*
X41812545Y-51539163D01*
X41767290Y-51450347D01*
X41726760Y-51370801D01*
X41615690Y-51217927D01*
X41482073Y-51084310D01*
X41329199Y-50973240D01*
X41160836Y-50887454D01*
X40981118Y-50829059D01*
X40794486Y-50799500D01*
X40794481Y-50799500D01*
X40605519Y-50799500D01*
X40605514Y-50799500D01*
X40418881Y-50829059D01*
X40239163Y-50887454D01*
X40070800Y-50973240D01*
X39983579Y-51036610D01*
X39917927Y-51084310D01*
X39917925Y-51084312D01*
X39917924Y-51084312D01*
X39784312Y-51217924D01*
X39784312Y-51217925D01*
X39784310Y-51217927D01*
X39775347Y-51230264D01*
X39673240Y-51370800D01*
X39587454Y-51539163D01*
X39529059Y-51718881D01*
X39499500Y-51905513D01*
X39499500Y-52094486D01*
X39529059Y-52281118D01*
X39587454Y-52460836D01*
X39668968Y-52620814D01*
X39673240Y-52629199D01*
X39784310Y-52782073D01*
X39917927Y-52915690D01*
X40070801Y-53026760D01*
X40150347Y-53067290D01*
X40239163Y-53112545D01*
X40239165Y-53112545D01*
X40239168Y-53112547D01*
X40299251Y-53132069D01*
X40356926Y-53171507D01*
X40384124Y-53235866D01*
X40372209Y-53304712D01*
X40324965Y-53356188D01*
X40299253Y-53367930D01*
X40280756Y-53373939D01*
X40239163Y-53387454D01*
X40070800Y-53473240D01*
X40030386Y-53502603D01*
X39917927Y-53584310D01*
X39917925Y-53584312D01*
X39917924Y-53584312D01*
X39784312Y-53717924D01*
X39784312Y-53717925D01*
X39784310Y-53717927D01*
X39773267Y-53733127D01*
X39673240Y-53870800D01*
X39587454Y-54039163D01*
X39529059Y-54218881D01*
X39499500Y-54405513D01*
X39499500Y-54594486D01*
X39529059Y-54781118D01*
X39587454Y-54960836D01*
X39640055Y-55064070D01*
X39673240Y-55129199D01*
X39784310Y-55282073D01*
X39917927Y-55415690D01*
X39978339Y-55459582D01*
X40070802Y-55526761D01*
X40163264Y-55573872D01*
X40214061Y-55621846D01*
X40230856Y-55689667D01*
X40208319Y-55755802D01*
X40153604Y-55799254D01*
X40119576Y-55807715D01*
X40097200Y-55810001D01*
X39930668Y-55865185D01*
X39930663Y-55865187D01*
X39781342Y-55957289D01*
X39657289Y-56081342D01*
X39565187Y-56230663D01*
X39565186Y-56230666D01*
X39511081Y-56393942D01*
X39471308Y-56451386D01*
X39406792Y-56478209D01*
X39338016Y-56465894D01*
X39305694Y-56442618D01*
X37686819Y-54823743D01*
X37653334Y-54762420D01*
X37650500Y-54736062D01*
X37650500Y-52435928D01*
X37625502Y-52310261D01*
X37625501Y-52310260D01*
X37625501Y-52310256D01*
X37576465Y-52191873D01*
X37543834Y-52143037D01*
X37543833Y-52143035D01*
X37543832Y-52143033D01*
X37505280Y-52085336D01*
X37505277Y-52085331D01*
X37317015Y-51897069D01*
X37283530Y-51835746D01*
X37283093Y-51833652D01*
X37269737Y-51766503D01*
X37245599Y-51708230D01*
X37209397Y-51620827D01*
X37209390Y-51620814D01*
X37121789Y-51489711D01*
X37121786Y-51489707D01*
X37010292Y-51378213D01*
X37010288Y-51378210D01*
X36879185Y-51290609D01*
X36879172Y-51290602D01*
X36733501Y-51230264D01*
X36733489Y-51230261D01*
X36578845Y-51199500D01*
X36578842Y-51199500D01*
X36421158Y-51199500D01*
X36421155Y-51199500D01*
X36266510Y-51230261D01*
X36266498Y-51230264D01*
X36120827Y-51290602D01*
X36120814Y-51290609D01*
X35989711Y-51378210D01*
X35989707Y-51378213D01*
X35878213Y-51489707D01*
X35878210Y-51489711D01*
X35790609Y-51620814D01*
X35790602Y-51620827D01*
X35730264Y-51766498D01*
X35730261Y-51766510D01*
X35699500Y-51921153D01*
X35699500Y-52078844D01*
X35700097Y-52084907D01*
X35698538Y-52085060D01*
X35692990Y-52147031D01*
X35650124Y-52202206D01*
X35601796Y-52223242D01*
X35566505Y-52230262D01*
X35566498Y-52230264D01*
X35420827Y-52290602D01*
X35420814Y-52290609D01*
X35289711Y-52378210D01*
X35289707Y-52378213D01*
X35178213Y-52489707D01*
X35178210Y-52489711D01*
X35090609Y-52620814D01*
X35090602Y-52620827D01*
X35030264Y-52766498D01*
X35030261Y-52766510D01*
X34999500Y-52921153D01*
X34999500Y-53082152D01*
X34979815Y-53149191D01*
X34927011Y-53194946D01*
X34899692Y-53203769D01*
X34766508Y-53230261D01*
X34766498Y-53230264D01*
X34620827Y-53290602D01*
X34620814Y-53290609D01*
X34489711Y-53378210D01*
X34489707Y-53378213D01*
X34378213Y-53489707D01*
X34378206Y-53489716D01*
X34377597Y-53490628D01*
X34377155Y-53490997D01*
X34374347Y-53494419D01*
X34373697Y-53493886D01*
X34323982Y-53535429D01*
X34254656Y-53544132D01*
X34191631Y-53513973D01*
X34154916Y-53454527D01*
X34150500Y-53421730D01*
X34150500Y-47893732D01*
X34170185Y-47826693D01*
X34222989Y-47780938D01*
X34292147Y-47770994D01*
X34298678Y-47772112D01*
X34343046Y-47780938D01*
X34416130Y-47795476D01*
X34416133Y-47795476D01*
X34573819Y-47795476D01*
X34573820Y-47795475D01*
X34728472Y-47764713D01*
X34874154Y-47704370D01*
X35005264Y-47616765D01*
X35116764Y-47505265D01*
X35204369Y-47374155D01*
X35264712Y-47228473D01*
X35264712Y-47228471D01*
X35265302Y-47227048D01*
X35309142Y-47172644D01*
X35375436Y-47150579D01*
X35379863Y-47150500D01*
X39679192Y-47150500D01*
X39746231Y-47170185D01*
X39766873Y-47186819D01*
X40182984Y-47602930D01*
X40216469Y-47664253D01*
X40216920Y-47666420D01*
X40230261Y-47733489D01*
X40230264Y-47733501D01*
X40290602Y-47879172D01*
X40290609Y-47879185D01*
X40378210Y-48010288D01*
X40378213Y-48010292D01*
X40489707Y-48121786D01*
X40489711Y-48121789D01*
X40620814Y-48209390D01*
X40620827Y-48209397D01*
X40766498Y-48269735D01*
X40766503Y-48269737D01*
X40921153Y-48300499D01*
X40921156Y-48300500D01*
X40921158Y-48300500D01*
X41078844Y-48300500D01*
X41078845Y-48300499D01*
X41233497Y-48269737D01*
X41379179Y-48209394D01*
X41510289Y-48121789D01*
X41621789Y-48010289D01*
X41709394Y-47879179D01*
X41769737Y-47733497D01*
X41800500Y-47578842D01*
X41800500Y-47421158D01*
X41800500Y-47421155D01*
X41800499Y-47421153D01*
X41769738Y-47266510D01*
X41769737Y-47266503D01*
X41753985Y-47228473D01*
X41709397Y-47120827D01*
X41709390Y-47120814D01*
X41621789Y-46989711D01*
X41621786Y-46989707D01*
X41510292Y-46878213D01*
X41510288Y-46878210D01*
X41379185Y-46790609D01*
X41379172Y-46790602D01*
X41233501Y-46730264D01*
X41233489Y-46730261D01*
X41166420Y-46716920D01*
X41149663Y-46708155D01*
X41131184Y-46704135D01*
X41106145Y-46685390D01*
X41104509Y-46684535D01*
X41102930Y-46682984D01*
X41007626Y-46587680D01*
X40974141Y-46526357D01*
X40979125Y-46456665D01*
X41007623Y-46412322D01*
X41102931Y-46317013D01*
X41164252Y-46283530D01*
X41166317Y-46283099D01*
X41233497Y-46269737D01*
X41379179Y-46209394D01*
X41510289Y-46121789D01*
X41621789Y-46010289D01*
X41709394Y-45879179D01*
X41769737Y-45733497D01*
X41800500Y-45578842D01*
X41800500Y-45421158D01*
X41800500Y-45421155D01*
X41800499Y-45421153D01*
X41799489Y-45416073D01*
X41769737Y-45266503D01*
X41769735Y-45266498D01*
X41709397Y-45120827D01*
X41709390Y-45120814D01*
X41621789Y-44989711D01*
X41621786Y-44989707D01*
X41510292Y-44878213D01*
X41510288Y-44878210D01*
X41379185Y-44790609D01*
X41379172Y-44790602D01*
X41233501Y-44730264D01*
X41233489Y-44730261D01*
X41078845Y-44699500D01*
X41078842Y-44699500D01*
X40921158Y-44699500D01*
X40921155Y-44699500D01*
X40766510Y-44730261D01*
X40766498Y-44730264D01*
X40620827Y-44790602D01*
X40620814Y-44790609D01*
X40489711Y-44878210D01*
X40489707Y-44878213D01*
X40378213Y-44989707D01*
X40378210Y-44989711D01*
X40290609Y-45120814D01*
X40290602Y-45120827D01*
X40227932Y-45272131D01*
X40225477Y-45271114D01*
X40193490Y-45319930D01*
X40129679Y-45348390D01*
X40113122Y-45349500D01*
X33935929Y-45349500D01*
X33810261Y-45374497D01*
X33810255Y-45374499D01*
X33709887Y-45416073D01*
X33709885Y-45416074D01*
X33697612Y-45421158D01*
X33691873Y-45423535D01*
X33585331Y-45494723D01*
X33560229Y-45519824D01*
X33551072Y-45526173D01*
X33528060Y-45533813D01*
X33506780Y-45545433D01*
X33495496Y-45544625D01*
X33484762Y-45548190D01*
X33461273Y-45542177D01*
X33437089Y-45540447D01*
X33428034Y-45533668D01*
X33417075Y-45530863D01*
X33400564Y-45513103D01*
X33381156Y-45498574D01*
X33377323Y-45493157D01*
X33373963Y-45488129D01*
X33339086Y-45435931D01*
X33339085Y-45435929D01*
X33339084Y-45435927D01*
X33305280Y-45385336D01*
X33305277Y-45385331D01*
X30317015Y-42397069D01*
X30283530Y-42335746D01*
X30283093Y-42333652D01*
X30269737Y-42266503D01*
X30245599Y-42208230D01*
X30209397Y-42120827D01*
X30209390Y-42120814D01*
X30121790Y-41989712D01*
X30121784Y-41989705D01*
X30053232Y-41921153D01*
X33699500Y-41921153D01*
X33699500Y-42078846D01*
X33730261Y-42233489D01*
X33730264Y-42233501D01*
X33790602Y-42379172D01*
X33790609Y-42379185D01*
X33878210Y-42510288D01*
X33878213Y-42510292D01*
X33989707Y-42621786D01*
X33989711Y-42621789D01*
X34120814Y-42709390D01*
X34120827Y-42709397D01*
X34266498Y-42769735D01*
X34266503Y-42769737D01*
X34421153Y-42800499D01*
X34421156Y-42800500D01*
X34421158Y-42800500D01*
X34578844Y-42800500D01*
X34578845Y-42800499D01*
X34733497Y-42769737D01*
X34879179Y-42709394D01*
X34936044Y-42671397D01*
X35002721Y-42650520D01*
X35004935Y-42650500D01*
X38179192Y-42650500D01*
X38246231Y-42670185D01*
X38266873Y-42686819D01*
X38585325Y-43005272D01*
X38585326Y-43005273D01*
X38585329Y-43005275D01*
X38585331Y-43005277D01*
X38691873Y-43076465D01*
X38810256Y-43125501D01*
X38810260Y-43125501D01*
X38810261Y-43125502D01*
X38935928Y-43150500D01*
X38935931Y-43150500D01*
X39064069Y-43150500D01*
X39935931Y-43150500D01*
X40495065Y-43150500D01*
X40562104Y-43170185D01*
X40563909Y-43171366D01*
X40620821Y-43209394D01*
X40620823Y-43209395D01*
X40620827Y-43209397D01*
X40766498Y-43269735D01*
X40766503Y-43269737D01*
X40870468Y-43290417D01*
X40921153Y-43300499D01*
X40921156Y-43300500D01*
X40921158Y-43300500D01*
X41078844Y-43300500D01*
X41078845Y-43300499D01*
X41233497Y-43269737D01*
X41379179Y-43209394D01*
X41510289Y-43121789D01*
X41621789Y-43010289D01*
X41709394Y-42879179D01*
X41769737Y-42733497D01*
X41800500Y-42578842D01*
X41800500Y-42421158D01*
X41800500Y-42421155D01*
X41800499Y-42421153D01*
X41790418Y-42370471D01*
X41769737Y-42266503D01*
X41756062Y-42233489D01*
X41709397Y-42120827D01*
X41709390Y-42120814D01*
X41621789Y-41989711D01*
X41621786Y-41989707D01*
X41510292Y-41878213D01*
X41510288Y-41878210D01*
X41379185Y-41790609D01*
X41379172Y-41790602D01*
X41233501Y-41730264D01*
X41233489Y-41730261D01*
X41078845Y-41699500D01*
X41078842Y-41699500D01*
X40921158Y-41699500D01*
X40921155Y-41699500D01*
X40766510Y-41730261D01*
X40766498Y-41730264D01*
X40620827Y-41790602D01*
X40620820Y-41790606D01*
X40591928Y-41809911D01*
X40563955Y-41828602D01*
X40497279Y-41849480D01*
X40495065Y-41849500D01*
X39320808Y-41849500D01*
X39253769Y-41829815D01*
X39233127Y-41813181D01*
X38914674Y-41494727D01*
X38914673Y-41494726D01*
X38908573Y-41490650D01*
X38808127Y-41423535D01*
X38689744Y-41374499D01*
X38689741Y-41374498D01*
X38682932Y-41373144D01*
X38676122Y-41371789D01*
X38676120Y-41371788D01*
X38676120Y-41371789D01*
X38564071Y-41349500D01*
X38564069Y-41349500D01*
X35004935Y-41349500D01*
X34937896Y-41329815D01*
X34936090Y-41328633D01*
X34879179Y-41290606D01*
X34879172Y-41290602D01*
X34733501Y-41230264D01*
X34733489Y-41230261D01*
X34578845Y-41199500D01*
X34578842Y-41199500D01*
X34421158Y-41199500D01*
X34421155Y-41199500D01*
X34266510Y-41230261D01*
X34266498Y-41230264D01*
X34120827Y-41290602D01*
X34120814Y-41290609D01*
X33989711Y-41378210D01*
X33989707Y-41378213D01*
X33878213Y-41489707D01*
X33878210Y-41489711D01*
X33790609Y-41620814D01*
X33790602Y-41620827D01*
X33730264Y-41766498D01*
X33730261Y-41766510D01*
X33699500Y-41921153D01*
X30053232Y-41921153D01*
X30010292Y-41878213D01*
X30010288Y-41878210D01*
X29879185Y-41790609D01*
X29879172Y-41790602D01*
X29733501Y-41730264D01*
X29733489Y-41730261D01*
X29578845Y-41699500D01*
X29578842Y-41699500D01*
X29421158Y-41699500D01*
X29421155Y-41699500D01*
X29266510Y-41730261D01*
X29266498Y-41730264D01*
X29120827Y-41790602D01*
X29120814Y-41790609D01*
X28989711Y-41878210D01*
X28989707Y-41878213D01*
X28878213Y-41989707D01*
X28878210Y-41989711D01*
X28790609Y-42120814D01*
X28790602Y-42120827D01*
X28730264Y-42266498D01*
X28730261Y-42266510D01*
X28699500Y-42421153D01*
X28699500Y-42578846D01*
X28730261Y-42733489D01*
X28730264Y-42733501D01*
X28790602Y-42879172D01*
X28790609Y-42879185D01*
X28878210Y-43010288D01*
X28878213Y-43010292D01*
X28989707Y-43121786D01*
X28989711Y-43121789D01*
X29120814Y-43209390D01*
X29120827Y-43209397D01*
X29208230Y-43245599D01*
X29266503Y-43269737D01*
X29333580Y-43283079D01*
X29395490Y-43315463D01*
X29397069Y-43317015D01*
X32113181Y-46033127D01*
X32146666Y-46094450D01*
X32149500Y-46120808D01*
X32149500Y-46854019D01*
X32165794Y-46935931D01*
X32174499Y-46979694D01*
X32223535Y-47098077D01*
X32282830Y-47186819D01*
X32294726Y-47204623D01*
X32294727Y-47204624D01*
X32813181Y-47723077D01*
X32846666Y-47784400D01*
X32849500Y-47810758D01*
X32849500Y-48227647D01*
X32829815Y-48294686D01*
X32777011Y-48340441D01*
X32707853Y-48350385D01*
X32644297Y-48321360D01*
X32610939Y-48275100D01*
X32576464Y-48191871D01*
X32505277Y-48085331D01*
X32505271Y-48085324D01*
X31317014Y-46897068D01*
X31283529Y-46835745D01*
X31283105Y-46833714D01*
X31269737Y-46766503D01*
X31209397Y-46620828D01*
X31209397Y-46620827D01*
X31209390Y-46620814D01*
X31121789Y-46489711D01*
X31121786Y-46489707D01*
X31010292Y-46378213D01*
X31010288Y-46378210D01*
X30879185Y-46290609D01*
X30879172Y-46290602D01*
X30733501Y-46230264D01*
X30733489Y-46230261D01*
X30578845Y-46199500D01*
X30578842Y-46199500D01*
X30421158Y-46199500D01*
X30421155Y-46199500D01*
X30266510Y-46230261D01*
X30266498Y-46230264D01*
X30120827Y-46290602D01*
X30120814Y-46290609D01*
X29989711Y-46378210D01*
X29989707Y-46378213D01*
X29878213Y-46489707D01*
X29878210Y-46489711D01*
X29790609Y-46620814D01*
X29790602Y-46620828D01*
X29788444Y-46626038D01*
X29744600Y-46680438D01*
X29678304Y-46702499D01*
X29610606Y-46685216D01*
X29586205Y-46666259D01*
X28686819Y-45766873D01*
X28653334Y-45705550D01*
X28650500Y-45679192D01*
X28650500Y-43435928D01*
X28625502Y-43310261D01*
X28625501Y-43310260D01*
X28625501Y-43310256D01*
X28583724Y-43209397D01*
X28576466Y-43191875D01*
X28576461Y-43191866D01*
X28505277Y-43085332D01*
X28496410Y-43076465D01*
X28414669Y-42994724D01*
X26386819Y-40966873D01*
X26353334Y-40905550D01*
X26350500Y-40879192D01*
X26350500Y-40145978D01*
X26325502Y-40020311D01*
X26325501Y-40020310D01*
X26325501Y-40020306D01*
X26284430Y-39921153D01*
X29699500Y-39921153D01*
X29699500Y-40078846D01*
X29730261Y-40233489D01*
X29730264Y-40233501D01*
X29790602Y-40379172D01*
X29790609Y-40379185D01*
X29878210Y-40510288D01*
X29878213Y-40510292D01*
X29989707Y-40621786D01*
X29989711Y-40621789D01*
X30120814Y-40709390D01*
X30120827Y-40709397D01*
X30266498Y-40769735D01*
X30266503Y-40769737D01*
X30421153Y-40800499D01*
X30421156Y-40800500D01*
X30421158Y-40800500D01*
X30578844Y-40800500D01*
X30578845Y-40800499D01*
X30733497Y-40769737D01*
X30879179Y-40709394D01*
X30936044Y-40671397D01*
X31002721Y-40650520D01*
X31004935Y-40650500D01*
X40495065Y-40650500D01*
X40562104Y-40670185D01*
X40563909Y-40671366D01*
X40620821Y-40709394D01*
X40620823Y-40709395D01*
X40620827Y-40709397D01*
X40766498Y-40769735D01*
X40766503Y-40769737D01*
X40921153Y-40800499D01*
X40921156Y-40800500D01*
X40921158Y-40800500D01*
X41078844Y-40800500D01*
X41078845Y-40800499D01*
X41233497Y-40769737D01*
X41379179Y-40709394D01*
X41510289Y-40621789D01*
X41621789Y-40510289D01*
X41709394Y-40379179D01*
X41712854Y-40370827D01*
X41767163Y-40239711D01*
X41769737Y-40233497D01*
X41800500Y-40078842D01*
X41800500Y-39921158D01*
X41800500Y-39921155D01*
X41800499Y-39921153D01*
X41786246Y-39849500D01*
X41769737Y-39766503D01*
X41769735Y-39766498D01*
X41709397Y-39620827D01*
X41709390Y-39620814D01*
X41621789Y-39489711D01*
X41621786Y-39489707D01*
X41510292Y-39378213D01*
X41510288Y-39378210D01*
X41379185Y-39290609D01*
X41379172Y-39290602D01*
X41233501Y-39230264D01*
X41233489Y-39230261D01*
X41078845Y-39199500D01*
X41078842Y-39199500D01*
X40921158Y-39199500D01*
X40921155Y-39199500D01*
X40766510Y-39230261D01*
X40766498Y-39230264D01*
X40620827Y-39290602D01*
X40620820Y-39290606D01*
X40591928Y-39309911D01*
X40563955Y-39328602D01*
X40497279Y-39349480D01*
X40495065Y-39349500D01*
X31004935Y-39349500D01*
X30937896Y-39329815D01*
X30936090Y-39328633D01*
X30879179Y-39290606D01*
X30879172Y-39290602D01*
X30733501Y-39230264D01*
X30733489Y-39230261D01*
X30578845Y-39199500D01*
X30578842Y-39199500D01*
X30421158Y-39199500D01*
X30421155Y-39199500D01*
X30266510Y-39230261D01*
X30266498Y-39230264D01*
X30120827Y-39290602D01*
X30120814Y-39290609D01*
X29989711Y-39378210D01*
X29989707Y-39378213D01*
X29878213Y-39489707D01*
X29878210Y-39489711D01*
X29790609Y-39620814D01*
X29790602Y-39620827D01*
X29730264Y-39766498D01*
X29730261Y-39766510D01*
X29699500Y-39921153D01*
X26284430Y-39921153D01*
X26276465Y-39901923D01*
X26241437Y-39849500D01*
X26205276Y-39795380D01*
X26205274Y-39795378D01*
X26205272Y-39795375D01*
X25704623Y-39294726D01*
X25704619Y-39294723D01*
X25598077Y-39223535D01*
X25479694Y-39174499D01*
X25479688Y-39174497D01*
X25354021Y-39149500D01*
X25354019Y-39149500D01*
X24620808Y-39149500D01*
X24553769Y-39129815D01*
X24533127Y-39113181D01*
X20914674Y-35494727D01*
X20914673Y-35494726D01*
X20914669Y-35494723D01*
X20808127Y-35423535D01*
X20689744Y-35374499D01*
X20689738Y-35374497D01*
X20564071Y-35349500D01*
X20564069Y-35349500D01*
X18320807Y-35349500D01*
X18253768Y-35329815D01*
X18233126Y-35313181D01*
X15164087Y-32244141D01*
X15080471Y-32160525D01*
X20674500Y-32160525D01*
X20674500Y-32419474D01*
X20674501Y-32419491D01*
X20708299Y-32676217D01*
X20708300Y-32676222D01*
X20708301Y-32676228D01*
X20708302Y-32676230D01*
X20775324Y-32926364D01*
X20874423Y-33165609D01*
X20874427Y-33165619D01*
X21003906Y-33389883D01*
X21161551Y-33595331D01*
X21161557Y-33595338D01*
X21344661Y-33778442D01*
X21344668Y-33778448D01*
X21550116Y-33936093D01*
X21774380Y-34065572D01*
X21774381Y-34065572D01*
X21774384Y-34065574D01*
X22013634Y-34164675D01*
X22263772Y-34231699D01*
X22520519Y-34265500D01*
X22520526Y-34265500D01*
X22779474Y-34265500D01*
X22779481Y-34265500D01*
X23036228Y-34231699D01*
X23286366Y-34164675D01*
X23525616Y-34065574D01*
X23749884Y-33936093D01*
X23955333Y-33778447D01*
X24138447Y-33595333D01*
X24296093Y-33389884D01*
X24425574Y-33165616D01*
X24524675Y-32926366D01*
X24591699Y-32676228D01*
X24625500Y-32419481D01*
X24625500Y-32160519D01*
X24591699Y-31903772D01*
X24524675Y-31653634D01*
X24425574Y-31414384D01*
X24296093Y-31190116D01*
X24138447Y-30984667D01*
X24138442Y-30984661D01*
X23955338Y-30801557D01*
X23955331Y-30801551D01*
X23749883Y-30643906D01*
X23525619Y-30514427D01*
X23525609Y-30514423D01*
X23286364Y-30415324D01*
X23161297Y-30381813D01*
X23036228Y-30348301D01*
X23036222Y-30348300D01*
X23036217Y-30348299D01*
X22779491Y-30314501D01*
X22779486Y-30314500D01*
X22779481Y-30314500D01*
X22520519Y-30314500D01*
X22520513Y-30314500D01*
X22520508Y-30314501D01*
X22263782Y-30348299D01*
X22263775Y-30348300D01*
X22263772Y-30348301D01*
X22210908Y-30362465D01*
X22013635Y-30415324D01*
X21774390Y-30514423D01*
X21774380Y-30514427D01*
X21550116Y-30643906D01*
X21344668Y-30801551D01*
X21344661Y-30801557D01*
X21161557Y-30984661D01*
X21161551Y-30984668D01*
X21003906Y-31190116D01*
X20874427Y-31414380D01*
X20874423Y-31414390D01*
X20775324Y-31653635D01*
X20708302Y-31903769D01*
X20708299Y-31903782D01*
X20674501Y-32160508D01*
X20674500Y-32160525D01*
X15080471Y-32160525D01*
X12186819Y-29266873D01*
X12153334Y-29205550D01*
X12150500Y-29179192D01*
X12150500Y-25504935D01*
X12170185Y-25437896D01*
X12171366Y-25436090D01*
X12209394Y-25379179D01*
X12269737Y-25233497D01*
X12300500Y-25078842D01*
X12300500Y-24921158D01*
X12300500Y-24921155D01*
X12300499Y-24921153D01*
X12269738Y-24766510D01*
X12269737Y-24766503D01*
X12269735Y-24766498D01*
X12209397Y-24620827D01*
X12209390Y-24620814D01*
X12121789Y-24489711D01*
X12121786Y-24489707D01*
X12010292Y-24378213D01*
X12010288Y-24378210D01*
X11879185Y-24290609D01*
X11879172Y-24290602D01*
X11733501Y-24230264D01*
X11733489Y-24230261D01*
X11578845Y-24199500D01*
X11578842Y-24199500D01*
X11421158Y-24199500D01*
X11421155Y-24199500D01*
X11266510Y-24230261D01*
X11266498Y-24230264D01*
X11120827Y-24290602D01*
X11120814Y-24290609D01*
X10989711Y-24378210D01*
X10989707Y-24378213D01*
X10878213Y-24489707D01*
X10878210Y-24489711D01*
X10790609Y-24620814D01*
X10790602Y-24620827D01*
X10730264Y-24766498D01*
X10730261Y-24766510D01*
X10699500Y-24921153D01*
X10699500Y-25078846D01*
X10730261Y-25233489D01*
X10730264Y-25233501D01*
X10790602Y-25379172D01*
X10790606Y-25379179D01*
X10828602Y-25436044D01*
X10849480Y-25502721D01*
X10849500Y-25504935D01*
X10849500Y-29564069D01*
X10849500Y-29564071D01*
X10849499Y-29564071D01*
X10874497Y-29689738D01*
X10874499Y-29689744D01*
X10923534Y-29808125D01*
X10994726Y-29914673D01*
X10994727Y-29914674D01*
X17494724Y-36414669D01*
X17585331Y-36505276D01*
X17585332Y-36505277D01*
X17691866Y-36576461D01*
X17691872Y-36576464D01*
X17691873Y-36576465D01*
X17810256Y-36625501D01*
X17810260Y-36625501D01*
X17810261Y-36625502D01*
X17935928Y-36650500D01*
X17935931Y-36650500D01*
X20179192Y-36650500D01*
X20246231Y-36670185D01*
X20266873Y-36686819D01*
X23416259Y-39836205D01*
X23449744Y-39897528D01*
X23444760Y-39967220D01*
X23402888Y-40023153D01*
X23376038Y-40038444D01*
X23370828Y-40040602D01*
X23370814Y-40040609D01*
X23239711Y-40128210D01*
X23239707Y-40128213D01*
X23128213Y-40239707D01*
X23128210Y-40239711D01*
X23040609Y-40370814D01*
X23040602Y-40370827D01*
X22980264Y-40516498D01*
X22980261Y-40516508D01*
X22966920Y-40583580D01*
X22934535Y-40645491D01*
X22932984Y-40647069D01*
X22494727Y-41085325D01*
X22494721Y-41085332D01*
X22441711Y-41164668D01*
X22441712Y-41164669D01*
X22423534Y-41191874D01*
X22374499Y-41310255D01*
X22374497Y-41310261D01*
X22349500Y-41435928D01*
X22349500Y-48495064D01*
X22329815Y-48562103D01*
X22328603Y-48563954D01*
X22290608Y-48620817D01*
X22290602Y-48620828D01*
X22230264Y-48766498D01*
X22230261Y-48766510D01*
X22199500Y-48921153D01*
X22199500Y-49078846D01*
X22230261Y-49233489D01*
X22230264Y-49233501D01*
X22290602Y-49379172D01*
X22290609Y-49379185D01*
X22378210Y-49510288D01*
X22378213Y-49510292D01*
X22489707Y-49621786D01*
X22489711Y-49621789D01*
X22620814Y-49709390D01*
X22620827Y-49709397D01*
X22766498Y-49769735D01*
X22766503Y-49769737D01*
X22921153Y-49800499D01*
X22921156Y-49800500D01*
X22921158Y-49800500D01*
X23078844Y-49800500D01*
X23078845Y-49800499D01*
X23233497Y-49769737D01*
X23379179Y-49709394D01*
X23510289Y-49621789D01*
X23621789Y-49510289D01*
X23709394Y-49379179D01*
X23769737Y-49233497D01*
X23800500Y-49078842D01*
X23800500Y-48921158D01*
X23800500Y-48921155D01*
X23800499Y-48921153D01*
X23769738Y-48766510D01*
X23769737Y-48766503D01*
X23709394Y-48620821D01*
X23671396Y-48563953D01*
X23650520Y-48497276D01*
X23650500Y-48495064D01*
X23650500Y-41820806D01*
X23659144Y-41791365D01*
X23665668Y-41761379D01*
X23669422Y-41756363D01*
X23670185Y-41753767D01*
X23686810Y-41733134D01*
X23852931Y-41567012D01*
X23914251Y-41533530D01*
X23916330Y-41533096D01*
X23983497Y-41519737D01*
X24129179Y-41459394D01*
X24129184Y-41459390D01*
X24129187Y-41459389D01*
X24156608Y-41441067D01*
X24223285Y-41420188D01*
X24290666Y-41438672D01*
X24337356Y-41490650D01*
X24349500Y-41544168D01*
X24349500Y-45995064D01*
X24329815Y-46062103D01*
X24328603Y-46063954D01*
X24290608Y-46120817D01*
X24290602Y-46120828D01*
X24230264Y-46266498D01*
X24230261Y-46266510D01*
X24199500Y-46421153D01*
X24199500Y-46578846D01*
X24230261Y-46733489D01*
X24230264Y-46733501D01*
X24290602Y-46879172D01*
X24290609Y-46879185D01*
X24378210Y-47010288D01*
X24378213Y-47010292D01*
X24489707Y-47121786D01*
X24489711Y-47121789D01*
X24620814Y-47209390D01*
X24620827Y-47209397D01*
X24758683Y-47266498D01*
X24766503Y-47269737D01*
X24921153Y-47300499D01*
X24921156Y-47300500D01*
X24921158Y-47300500D01*
X25078844Y-47300500D01*
X25078845Y-47300499D01*
X25233497Y-47269737D01*
X25379179Y-47209394D01*
X25510289Y-47121789D01*
X25621789Y-47010289D01*
X25709394Y-46879179D01*
X25769737Y-46733497D01*
X25800500Y-46578842D01*
X25800500Y-46421158D01*
X25800500Y-46421155D01*
X25800499Y-46421153D01*
X25791957Y-46378210D01*
X25769737Y-46266503D01*
X25769735Y-46266498D01*
X25709397Y-46120828D01*
X25709396Y-46120827D01*
X25709394Y-46120821D01*
X25671396Y-46063953D01*
X25650520Y-45997276D01*
X25650500Y-45995064D01*
X25650500Y-42369807D01*
X25670185Y-42302768D01*
X25722989Y-42257013D01*
X25792147Y-42247069D01*
X25855703Y-42276094D01*
X25862181Y-42282126D01*
X27313181Y-43733126D01*
X27346666Y-43794449D01*
X27349500Y-43820807D01*
X27349500Y-46064070D01*
X27355543Y-46094450D01*
X27360786Y-46120808D01*
X27372116Y-46177762D01*
X27372116Y-46177767D01*
X27372117Y-46177767D01*
X27374499Y-46189746D01*
X27423533Y-46308125D01*
X27494726Y-46414673D01*
X27494727Y-46414674D01*
X30067874Y-48987820D01*
X30101359Y-49049143D01*
X30096375Y-49118835D01*
X30054503Y-49174768D01*
X29989039Y-49199185D01*
X29980193Y-49199501D01*
X29921155Y-49199501D01*
X29766510Y-49230262D01*
X29766498Y-49230265D01*
X29620827Y-49290603D01*
X29620814Y-49290610D01*
X29489711Y-49378211D01*
X29489707Y-49378214D01*
X29378213Y-49489708D01*
X29378210Y-49489712D01*
X29290609Y-49620815D01*
X29290602Y-49620828D01*
X29230264Y-49766499D01*
X29230261Y-49766511D01*
X29199500Y-49921154D01*
X29199500Y-50075500D01*
X29179815Y-50142539D01*
X29127011Y-50188294D01*
X29075500Y-50199500D01*
X28921155Y-50199500D01*
X28766510Y-50230261D01*
X28766498Y-50230264D01*
X28620827Y-50290602D01*
X28620814Y-50290609D01*
X28489711Y-50378210D01*
X28489707Y-50378213D01*
X28378213Y-50489707D01*
X28378210Y-50489711D01*
X28290609Y-50620814D01*
X28290602Y-50620827D01*
X28230263Y-50766501D01*
X28230261Y-50766509D01*
X28220364Y-50816265D01*
X28187979Y-50878176D01*
X28127263Y-50912750D01*
X28122939Y-50913690D01*
X27978640Y-50942393D01*
X27978630Y-50942396D01*
X27832959Y-51002734D01*
X27832946Y-51002741D01*
X27701843Y-51090342D01*
X27701839Y-51090345D01*
X27590345Y-51201839D01*
X27590342Y-51201843D01*
X27502741Y-51332946D01*
X27502734Y-51332959D01*
X27442396Y-51478630D01*
X27442393Y-51478642D01*
X27411632Y-51633285D01*
X27411632Y-51790978D01*
X27442393Y-51945626D01*
X27466932Y-52004868D01*
X27474400Y-52074338D01*
X27443124Y-52136817D01*
X27440051Y-52140001D01*
X25266873Y-54313181D01*
X25205550Y-54346666D01*
X25179192Y-54349500D01*
X22685929Y-54349500D01*
X22560260Y-54374497D01*
X22560258Y-54374498D01*
X22560256Y-54374499D01*
X22548958Y-54379179D01*
X22548956Y-54379179D01*
X22548955Y-54379180D01*
X22441881Y-54423530D01*
X22441863Y-54423540D01*
X22335332Y-54494721D01*
X22335325Y-54494727D01*
X15021873Y-61808181D01*
X14960550Y-61841666D01*
X14934192Y-61844500D01*
X14504935Y-61844500D01*
X14437896Y-61824815D01*
X14436090Y-61823633D01*
X14379179Y-61785606D01*
X14379172Y-61785602D01*
X14233501Y-61725264D01*
X14233489Y-61725261D01*
X14078845Y-61694500D01*
X14078842Y-61694500D01*
X13921158Y-61694500D01*
X13921155Y-61694500D01*
X13766510Y-61725261D01*
X13766498Y-61725264D01*
X13620827Y-61785602D01*
X13620814Y-61785609D01*
X13489711Y-61873210D01*
X13489707Y-61873213D01*
X13378213Y-61984707D01*
X13378210Y-61984711D01*
X13290609Y-62115814D01*
X13290602Y-62115827D01*
X13230264Y-62261498D01*
X13230261Y-62261510D01*
X13199500Y-62416153D01*
X13199500Y-62573846D01*
X13230261Y-62728489D01*
X13230264Y-62728501D01*
X13290602Y-62874172D01*
X13290609Y-62874185D01*
X13325304Y-62926109D01*
X13346182Y-62992786D01*
X13327698Y-63060167D01*
X13325304Y-63063891D01*
X13290609Y-63115814D01*
X13290602Y-63115827D01*
X13230264Y-63261498D01*
X13230261Y-63261510D01*
X13199500Y-63416153D01*
X13199500Y-63573846D01*
X13230261Y-63728489D01*
X13230264Y-63728501D01*
X13290602Y-63874172D01*
X13290609Y-63874185D01*
X13325304Y-63926109D01*
X13346182Y-63992786D01*
X13327698Y-64060167D01*
X13325304Y-64063891D01*
X13290609Y-64115814D01*
X13290602Y-64115827D01*
X13230264Y-64261498D01*
X13230261Y-64261510D01*
X13199500Y-64416153D01*
X13199500Y-64573846D01*
X13230261Y-64728489D01*
X13230264Y-64728501D01*
X13290602Y-64874172D01*
X13290609Y-64874185D01*
X13378210Y-65005288D01*
X13378213Y-65005292D01*
X13489707Y-65116786D01*
X13489711Y-65116789D01*
X13620814Y-65204390D01*
X13620827Y-65204397D01*
X13736989Y-65252512D01*
X13766503Y-65264737D01*
X13921153Y-65295499D01*
X13921156Y-65295500D01*
X13921158Y-65295500D01*
X14078844Y-65295500D01*
X14078845Y-65295499D01*
X14233497Y-65264737D01*
X14356488Y-65213793D01*
X14379172Y-65204397D01*
X14379172Y-65204396D01*
X14379179Y-65204394D01*
X14510289Y-65116789D01*
X14621789Y-65005289D01*
X14709394Y-64874179D01*
X14769737Y-64728497D01*
X14783079Y-64661416D01*
X14815463Y-64599509D01*
X14816956Y-64597988D01*
X15228127Y-64186819D01*
X15289450Y-64153334D01*
X15315808Y-64150500D01*
X16314071Y-64150500D01*
X16398615Y-64133682D01*
X16439744Y-64125501D01*
X16558127Y-64076465D01*
X16565607Y-64071466D01*
X16565610Y-64071466D01*
X16639735Y-64021936D01*
X16664669Y-64005277D01*
X18539421Y-62130525D01*
X25374500Y-62130525D01*
X25374500Y-62389474D01*
X25374501Y-62389491D01*
X25408299Y-62646217D01*
X25408300Y-62646222D01*
X25408301Y-62646228D01*
X25430343Y-62728489D01*
X25475324Y-62896364D01*
X25574423Y-63135609D01*
X25574427Y-63135619D01*
X25703906Y-63359883D01*
X25861551Y-63565331D01*
X25861557Y-63565338D01*
X26044661Y-63748442D01*
X26044668Y-63748448D01*
X26250116Y-63906093D01*
X26474380Y-64035572D01*
X26474381Y-64035572D01*
X26474384Y-64035574D01*
X26713634Y-64134675D01*
X26963772Y-64201699D01*
X27220519Y-64235500D01*
X27220526Y-64235500D01*
X27479474Y-64235500D01*
X27479481Y-64235500D01*
X27736228Y-64201699D01*
X27986366Y-64134675D01*
X28225616Y-64035574D01*
X28449884Y-63906093D01*
X28655333Y-63748447D01*
X28838447Y-63565333D01*
X28996093Y-63359884D01*
X29125574Y-63135616D01*
X29224675Y-62896366D01*
X29291699Y-62646228D01*
X29325500Y-62389481D01*
X29325500Y-62130519D01*
X29291699Y-61873772D01*
X29224675Y-61623634D01*
X29125574Y-61384384D01*
X29119523Y-61373904D01*
X28996093Y-61160116D01*
X28838448Y-60954668D01*
X28838442Y-60954661D01*
X28655338Y-60771557D01*
X28655331Y-60771551D01*
X28449883Y-60613906D01*
X28225619Y-60484427D01*
X28225609Y-60484423D01*
X27986364Y-60385324D01*
X27861297Y-60351813D01*
X27736228Y-60318301D01*
X27736222Y-60318300D01*
X27736217Y-60318299D01*
X27479491Y-60284501D01*
X27479486Y-60284500D01*
X27479481Y-60284500D01*
X27220519Y-60284500D01*
X27220513Y-60284500D01*
X27220508Y-60284501D01*
X26963782Y-60318299D01*
X26963775Y-60318300D01*
X26963772Y-60318301D01*
X26910908Y-60332465D01*
X26713635Y-60385324D01*
X26474390Y-60484423D01*
X26474380Y-60484427D01*
X26250116Y-60613906D01*
X26044668Y-60771551D01*
X26044661Y-60771557D01*
X25861557Y-60954661D01*
X25861551Y-60954668D01*
X25703906Y-61160116D01*
X25574427Y-61384380D01*
X25574423Y-61384390D01*
X25475324Y-61623635D01*
X25431926Y-61785602D01*
X25408452Y-61873211D01*
X25408302Y-61873769D01*
X25408299Y-61873782D01*
X25374501Y-62130508D01*
X25374500Y-62130525D01*
X18539421Y-62130525D01*
X19898389Y-60771557D01*
X22983126Y-57686819D01*
X23044449Y-57653334D01*
X23070807Y-57650500D01*
X25271177Y-57650500D01*
X25378259Y-57629199D01*
X25396850Y-57625501D01*
X25515233Y-57576465D01*
X25621775Y-57505277D01*
X29637819Y-53489231D01*
X29699142Y-53455747D01*
X29768834Y-53460731D01*
X29824767Y-53502603D01*
X29849184Y-53568067D01*
X29849500Y-53576913D01*
X29849500Y-59564069D01*
X29866693Y-59650500D01*
X29874499Y-59689744D01*
X29923534Y-59808125D01*
X29994726Y-59914673D01*
X29994727Y-59914674D01*
X36182983Y-66102928D01*
X36216468Y-66164251D01*
X36216919Y-66166417D01*
X36230261Y-66233491D01*
X36230263Y-66233499D01*
X36290602Y-66379172D01*
X36290609Y-66379185D01*
X36378210Y-66510288D01*
X36378213Y-66510292D01*
X36489707Y-66621786D01*
X36489711Y-66621789D01*
X36620814Y-66709390D01*
X36620827Y-66709397D01*
X36708230Y-66745599D01*
X36766503Y-66769737D01*
X36833580Y-66783079D01*
X36895490Y-66815463D01*
X36897069Y-66817015D01*
X37313181Y-67233127D01*
X37346666Y-67294450D01*
X37349500Y-67320808D01*
X37349500Y-70064069D01*
X37367598Y-70155051D01*
X37374499Y-70189744D01*
X37423535Y-70308127D01*
X37452935Y-70352128D01*
X37494726Y-70414673D01*
X38585325Y-71505272D01*
X38585331Y-71505277D01*
X38691874Y-71576466D01*
X38761221Y-71605189D01*
X38810256Y-71625501D01*
X38810259Y-71625501D01*
X38810260Y-71625502D01*
X38935928Y-71650500D01*
X38935931Y-71650500D01*
X41084071Y-71650500D01*
X41168615Y-71633682D01*
X41209744Y-71625501D01*
X41328127Y-71576465D01*
X41434669Y-71505277D01*
X42553127Y-70386819D01*
X42614450Y-70353334D01*
X42640808Y-70350500D01*
X42646286Y-70350500D01*
X42646287Y-70350500D01*
X42856243Y-70317246D01*
X43058412Y-70251557D01*
X43247816Y-70155051D01*
X43269789Y-70139086D01*
X43419786Y-70030109D01*
X43419788Y-70030106D01*
X43419792Y-70030104D01*
X43570104Y-69879792D01*
X43570106Y-69879788D01*
X43570109Y-69879786D01*
X43695048Y-69707820D01*
X43695047Y-69707820D01*
X43695051Y-69707816D01*
X43791557Y-69518412D01*
X43857246Y-69316243D01*
X43890500Y-69106287D01*
X43890500Y-68893713D01*
X43857246Y-68683757D01*
X43791557Y-68481588D01*
X43695051Y-68292184D01*
X43695049Y-68292181D01*
X43695048Y-68292179D01*
X43570109Y-68120213D01*
X43419786Y-67969890D01*
X43247820Y-67844951D01*
X43247115Y-67844591D01*
X43239054Y-67840485D01*
X43188259Y-67792512D01*
X43171463Y-67724692D01*
X43193999Y-67658556D01*
X43239054Y-67619515D01*
X43247816Y-67615051D01*
X43269789Y-67599086D01*
X43419786Y-67490109D01*
X43419788Y-67490106D01*
X43419792Y-67490104D01*
X43570104Y-67339792D01*
X43570106Y-67339788D01*
X43570109Y-67339786D01*
X43695048Y-67167820D01*
X43695047Y-67167820D01*
X43695051Y-67167816D01*
X43791557Y-66978412D01*
X43857246Y-66776243D01*
X43890500Y-66566287D01*
X43890500Y-66353713D01*
X43857246Y-66143757D01*
X43856484Y-66138945D01*
X43858126Y-66138684D01*
X43861254Y-66076137D01*
X43890657Y-66029288D01*
X44167763Y-65752182D01*
X44287820Y-65632125D01*
X44349142Y-65598641D01*
X44418834Y-65603625D01*
X44474767Y-65645497D01*
X44499184Y-65710961D01*
X44499500Y-65719807D01*
X44499500Y-74997293D01*
X44499382Y-75002702D01*
X44482614Y-75386750D01*
X44481671Y-75397526D01*
X44431849Y-75775957D01*
X44429971Y-75786610D01*
X44347354Y-76159272D01*
X44344554Y-76169721D01*
X44229775Y-76533755D01*
X44226075Y-76543921D01*
X44080002Y-76896572D01*
X44075430Y-76906376D01*
X43899183Y-77244942D01*
X43893775Y-77254310D01*
X43688681Y-77576244D01*
X43682476Y-77585105D01*
X43450110Y-77887930D01*
X43443156Y-77896217D01*
X43185284Y-78177635D01*
X43177635Y-78185284D01*
X42896217Y-78443156D01*
X42887930Y-78450110D01*
X42585105Y-78682476D01*
X42576244Y-78688681D01*
X42254310Y-78893775D01*
X42244942Y-78899183D01*
X41906376Y-79075430D01*
X41896572Y-79080002D01*
X41543921Y-79226075D01*
X41533755Y-79229775D01*
X41169721Y-79344554D01*
X41159272Y-79347354D01*
X40786610Y-79429971D01*
X40775957Y-79431849D01*
X40397526Y-79481671D01*
X40386750Y-79482614D01*
X40002703Y-79499382D01*
X39997294Y-79499500D01*
X10002706Y-79499500D01*
X9997297Y-79499382D01*
X9613249Y-79482614D01*
X9602473Y-79481671D01*
X9224042Y-79431849D01*
X9213389Y-79429971D01*
X8840727Y-79347354D01*
X8830278Y-79344554D01*
X8466244Y-79229775D01*
X8456078Y-79226075D01*
X8103427Y-79080002D01*
X8093623Y-79075430D01*
X7755057Y-78899183D01*
X7745689Y-78893775D01*
X7423755Y-78688681D01*
X7414894Y-78682476D01*
X7112069Y-78450110D01*
X7103782Y-78443156D01*
X6822364Y-78185284D01*
X6814715Y-78177635D01*
X6556843Y-77896217D01*
X6549889Y-77887930D01*
X6317523Y-77585105D01*
X6311318Y-77576244D01*
X6106224Y-77254310D01*
X6100816Y-77244942D01*
X5924569Y-76906376D01*
X5919997Y-76896572D01*
X5868769Y-76772896D01*
X5773920Y-76543911D01*
X5770224Y-76533755D01*
X5724067Y-76387363D01*
X5655442Y-76169710D01*
X5652648Y-76159284D01*
X5570025Y-75786597D01*
X5568152Y-75775971D01*
X5518326Y-75397506D01*
X5517386Y-75386773D01*
X5516426Y-75364778D01*
X22334500Y-75364778D01*
X22334500Y-75585221D01*
X22368985Y-75802952D01*
X22437103Y-76012603D01*
X22437104Y-76012606D01*
X22537187Y-76209025D01*
X22666752Y-76387358D01*
X22666756Y-76387363D01*
X22822636Y-76543243D01*
X22822641Y-76543247D01*
X22860612Y-76570834D01*
X23000978Y-76672815D01*
X23129375Y-76738237D01*
X23197393Y-76772895D01*
X23197396Y-76772896D01*
X23302221Y-76806955D01*
X23407049Y-76841015D01*
X23624778Y-76875500D01*
X23624779Y-76875500D01*
X23845221Y-76875500D01*
X23845222Y-76875500D01*
X24062951Y-76841015D01*
X24272606Y-76772895D01*
X24469022Y-76672815D01*
X24647365Y-76543242D01*
X24803242Y-76387365D01*
X24932815Y-76209022D01*
X25032895Y-76012606D01*
X25101015Y-75802951D01*
X25135500Y-75585222D01*
X25135500Y-75364778D01*
X25101015Y-75147049D01*
X25032895Y-74937394D01*
X25032895Y-74937393D01*
X24998237Y-74869375D01*
X24932815Y-74740978D01*
X24916260Y-74718192D01*
X24803247Y-74562641D01*
X24803243Y-74562636D01*
X24647363Y-74406756D01*
X24647358Y-74406752D01*
X24469025Y-74277187D01*
X24469024Y-74277186D01*
X24469022Y-74277185D01*
X24406096Y-74245122D01*
X24272606Y-74177104D01*
X24272603Y-74177103D01*
X24062952Y-74108985D01*
X23954086Y-74091742D01*
X23845222Y-74074500D01*
X23624778Y-74074500D01*
X23552201Y-74085995D01*
X23407047Y-74108985D01*
X23197396Y-74177103D01*
X23197393Y-74177104D01*
X23000974Y-74277187D01*
X22822641Y-74406752D01*
X22822636Y-74406756D01*
X22666756Y-74562636D01*
X22666752Y-74562641D01*
X22537187Y-74740974D01*
X22437104Y-74937393D01*
X22437103Y-74937396D01*
X22368985Y-75147047D01*
X22334500Y-75364778D01*
X5516426Y-75364778D01*
X5500618Y-75002701D01*
X5500500Y-74997293D01*
X5500500Y-70352135D01*
X28999500Y-70352135D01*
X28999500Y-72447870D01*
X28999501Y-72447876D01*
X29005908Y-72507483D01*
X29056202Y-72642328D01*
X29056206Y-72642335D01*
X29142452Y-72757544D01*
X29142455Y-72757547D01*
X29257664Y-72843793D01*
X29257671Y-72843797D01*
X29392517Y-72894091D01*
X29392516Y-72894091D01*
X29399444Y-72894835D01*
X29452127Y-72900500D01*
X31547872Y-72900499D01*
X31607483Y-72894091D01*
X31742331Y-72843796D01*
X31857546Y-72757546D01*
X31943796Y-72642331D01*
X31994091Y-72507483D01*
X32000500Y-72447873D01*
X32000499Y-70352128D01*
X31994091Y-70292517D01*
X31978813Y-70251555D01*
X31943797Y-70157671D01*
X31943793Y-70157664D01*
X31857547Y-70042455D01*
X31857544Y-70042452D01*
X31742335Y-69956206D01*
X31742328Y-69956202D01*
X31607482Y-69905908D01*
X31607483Y-69905908D01*
X31547883Y-69899501D01*
X31547881Y-69899500D01*
X31547873Y-69899500D01*
X31547864Y-69899500D01*
X29452129Y-69899500D01*
X29452123Y-69899501D01*
X29392516Y-69905908D01*
X29257671Y-69956202D01*
X29257664Y-69956206D01*
X29142455Y-70042452D01*
X29142452Y-70042455D01*
X29056206Y-70157664D01*
X29056202Y-70157671D01*
X29005908Y-70292517D01*
X29000087Y-70346666D01*
X28999501Y-70352123D01*
X28999500Y-70352135D01*
X5500500Y-70352135D01*
X5500500Y-14073768D01*
X5500618Y-14068359D01*
X5503380Y-14005108D01*
X5517388Y-13684294D01*
X5518327Y-13673566D01*
X5568155Y-13295088D01*
X5570026Y-13284476D01*
X5652651Y-12911773D01*
X5655442Y-12901358D01*
X5770227Y-12537300D01*
X5773927Y-12527137D01*
X5919993Y-12174494D01*
X5924564Y-12164691D01*
X6040284Y-11942387D01*
X6100815Y-11826105D01*
X6106215Y-11816750D01*
X6311323Y-11494784D01*
X6317505Y-11485957D01*
X6549884Y-11183102D01*
X6556813Y-11174844D01*
X6816012Y-10891963D01*
X6819689Y-10888123D01*
X7838825Y-9868987D01*
X11787425Y-9868987D01*
X11807906Y-10011443D01*
X11867693Y-10142357D01*
X11867694Y-10142358D01*
X11867695Y-10142360D01*
X11905314Y-10189043D01*
X11905317Y-10189046D01*
X11905322Y-10189052D01*
X12914084Y-11197812D01*
X13245808Y-11529536D01*
X13292491Y-11567156D01*
X13423407Y-11626944D01*
X13423406Y-11626944D01*
X13441313Y-11629518D01*
X13565864Y-11647426D01*
X13708321Y-11626944D01*
X13839237Y-11567156D01*
X13885920Y-11529537D01*
X15226413Y-10189043D01*
X15264033Y-10142360D01*
X15323821Y-10011444D01*
X15344303Y-9868987D01*
X15323821Y-9726530D01*
X15288389Y-9648947D01*
X15278446Y-9579789D01*
X15307471Y-9516234D01*
X15366249Y-9478459D01*
X15401184Y-9473436D01*
X15472136Y-9473436D01*
X15472137Y-9473436D01*
X15689866Y-9438951D01*
X15899521Y-9370831D01*
X16095937Y-9270751D01*
X16274280Y-9141178D01*
X16430157Y-8985301D01*
X16510620Y-8874551D01*
X16565950Y-8831885D01*
X16610939Y-8823436D01*
X26000984Y-8823436D01*
X26107815Y-8802185D01*
X26145977Y-8794594D01*
X26282559Y-8738020D01*
X26336310Y-8702105D01*
X26336310Y-8702104D01*
X26336312Y-8702104D01*
X26370895Y-8678996D01*
X26405480Y-8655888D01*
X26847952Y-8213415D01*
X26885811Y-8156753D01*
X26939422Y-8111948D01*
X27008747Y-8103239D01*
X27071775Y-8133393D01*
X27076595Y-8137962D01*
X30521580Y-11582948D01*
X30521584Y-11582951D01*
X30644498Y-11665080D01*
X30644511Y-11665087D01*
X30781082Y-11721656D01*
X30781087Y-11721658D01*
X30781091Y-11721658D01*
X30781092Y-11721659D01*
X30926079Y-11750500D01*
X30926082Y-11750500D01*
X35073920Y-11750500D01*
X35171462Y-11731096D01*
X35218913Y-11721658D01*
X35355495Y-11665084D01*
X35412576Y-11626944D01*
X35478416Y-11582952D01*
X35647491Y-11413875D01*
X35708812Y-11380391D01*
X35754565Y-11379084D01*
X35889778Y-11400500D01*
X35889780Y-11400500D01*
X36110221Y-11400500D01*
X36110222Y-11400500D01*
X36327951Y-11366015D01*
X36537606Y-11297895D01*
X36734022Y-11197815D01*
X36912365Y-11068242D01*
X37068242Y-10912365D01*
X37197815Y-10734022D01*
X37297895Y-10537606D01*
X37366015Y-10327951D01*
X37400500Y-10110222D01*
X37400500Y-9889778D01*
X37366015Y-9672049D01*
X37326010Y-9548923D01*
X37297896Y-9462396D01*
X37297895Y-9462393D01*
X37251241Y-9370831D01*
X37197815Y-9265978D01*
X37107143Y-9141178D01*
X37068247Y-9087641D01*
X37068243Y-9087636D01*
X36912363Y-8931756D01*
X36912358Y-8931752D01*
X36734025Y-8802187D01*
X36734024Y-8802186D01*
X36734022Y-8802185D01*
X36671096Y-8770122D01*
X36537606Y-8702104D01*
X36537603Y-8702103D01*
X36327952Y-8633985D01*
X36219086Y-8616742D01*
X36110222Y-8599500D01*
X36039269Y-8599500D01*
X35972230Y-8579815D01*
X35926475Y-8527011D01*
X35916531Y-8457853D01*
X35926475Y-8423988D01*
X35961906Y-8346405D01*
X35982388Y-8203949D01*
X35961906Y-8061492D01*
X35902118Y-7930576D01*
X35864499Y-7883893D01*
X35864494Y-7883888D01*
X35864490Y-7883883D01*
X34524012Y-6543407D01*
X34524005Y-6543400D01*
X34477322Y-6505780D01*
X34346406Y-6445992D01*
X34346404Y-6445991D01*
X34346406Y-6445991D01*
X34203949Y-6425510D01*
X34061492Y-6445991D01*
X33930578Y-6505778D01*
X33883883Y-6543407D01*
X32543407Y-7883885D01*
X32543401Y-7883892D01*
X32505779Y-7930577D01*
X32505778Y-7930579D01*
X32445991Y-8061492D01*
X32425510Y-8203949D01*
X32445991Y-8346405D01*
X32505778Y-8477319D01*
X32505779Y-8477320D01*
X32505780Y-8477322D01*
X32543399Y-8524005D01*
X32543402Y-8524008D01*
X32543407Y-8524014D01*
X33568318Y-9548923D01*
X33883893Y-9864498D01*
X33930576Y-9902118D01*
X34061492Y-9961906D01*
X34061491Y-9961906D01*
X34079398Y-9964480D01*
X34203949Y-9982388D01*
X34346406Y-9961906D01*
X34423988Y-9926474D01*
X34457942Y-9921592D01*
X34491901Y-9916358D01*
X34492499Y-9916624D01*
X34493147Y-9916531D01*
X34524345Y-9930779D01*
X34555748Y-9944737D01*
X34556107Y-9945284D01*
X34556702Y-9945556D01*
X34575233Y-9974391D01*
X34594117Y-10003129D01*
X34594242Y-10003968D01*
X34594477Y-10004334D01*
X34599494Y-10038011D01*
X34599500Y-10038602D01*
X34599500Y-10110222D01*
X34600276Y-10115124D01*
X34600369Y-10124242D01*
X34593256Y-10149405D01*
X34589921Y-10175332D01*
X34583907Y-10182484D01*
X34581365Y-10191478D01*
X34561780Y-10208799D01*
X34544955Y-10228809D01*
X34536028Y-10231574D01*
X34529028Y-10237766D01*
X34503185Y-10241749D01*
X34478215Y-10249486D01*
X34476375Y-10249500D01*
X31362229Y-10249500D01*
X31295190Y-10229815D01*
X31274548Y-10213181D01*
X27631604Y-6570236D01*
X27598119Y-6508913D01*
X27601353Y-6444238D01*
X27631015Y-6352951D01*
X27665500Y-6135222D01*
X27665500Y-5914778D01*
X27631015Y-5697049D01*
X27562895Y-5487394D01*
X27562895Y-5487393D01*
X27528237Y-5419375D01*
X27462815Y-5290978D01*
X27404501Y-5210715D01*
X27333247Y-5112641D01*
X27333243Y-5112636D01*
X27177363Y-4956756D01*
X27177358Y-4956752D01*
X26999025Y-4827187D01*
X26999024Y-4827186D01*
X26999022Y-4827185D01*
X26881791Y-4767452D01*
X26802606Y-4727104D01*
X26802603Y-4727103D01*
X26592952Y-4658985D01*
X26484086Y-4641742D01*
X26375222Y-4624500D01*
X26154778Y-4624500D01*
X26082201Y-4635995D01*
X25937047Y-4658985D01*
X25727396Y-4727103D01*
X25727393Y-4727104D01*
X25530974Y-4827187D01*
X25352641Y-4956752D01*
X25352636Y-4956756D01*
X25302463Y-5006929D01*
X25241140Y-5040413D01*
X25171448Y-5035428D01*
X25115515Y-4993557D01*
X25098601Y-4962580D01*
X25068797Y-4882671D01*
X25068793Y-4882664D01*
X24982547Y-4767455D01*
X24982544Y-4767452D01*
X24867335Y-4681206D01*
X24867328Y-4681202D01*
X24732482Y-4630908D01*
X24732483Y-4630908D01*
X24672883Y-4624501D01*
X24672881Y-4624500D01*
X24672873Y-4624500D01*
X24672864Y-4624500D01*
X22777129Y-4624500D01*
X22777123Y-4624501D01*
X22717516Y-4630908D01*
X22582671Y-4681202D01*
X22582664Y-4681206D01*
X22467455Y-4767452D01*
X22467452Y-4767455D01*
X22381206Y-4882664D01*
X22381202Y-4882671D01*
X22330908Y-5017517D01*
X22324501Y-5077116D01*
X22324500Y-5077135D01*
X22324500Y-6972870D01*
X22324501Y-6972876D01*
X22330908Y-7032483D01*
X22376643Y-7155103D01*
X22381627Y-7224795D01*
X22348142Y-7286118D01*
X22286819Y-7319602D01*
X22260461Y-7322436D01*
X16610939Y-7322436D01*
X16543900Y-7302751D01*
X16510620Y-7271320D01*
X16430160Y-7160574D01*
X16274278Y-7004692D01*
X16274273Y-7004688D01*
X16095940Y-6875123D01*
X16095939Y-6875122D01*
X16095937Y-6875121D01*
X16025608Y-6839286D01*
X15899521Y-6775040D01*
X15899518Y-6775039D01*
X15689867Y-6706921D01*
X15581001Y-6689678D01*
X15472137Y-6672436D01*
X15251693Y-6672436D01*
X15179116Y-6683931D01*
X15033962Y-6706921D01*
X14824311Y-6775039D01*
X14824308Y-6775040D01*
X14627889Y-6875123D01*
X14449556Y-7004688D01*
X14449551Y-7004692D01*
X14293671Y-7160572D01*
X14293667Y-7160577D01*
X14164102Y-7338910D01*
X14064019Y-7535329D01*
X14064018Y-7535332D01*
X13995900Y-7744983D01*
X13961415Y-7962714D01*
X13961415Y-8033666D01*
X13941730Y-8100705D01*
X13888926Y-8146460D01*
X13819768Y-8156404D01*
X13785904Y-8146461D01*
X13747450Y-8128899D01*
X13708321Y-8111030D01*
X13708319Y-8111029D01*
X13708318Y-8111029D01*
X13565864Y-8090548D01*
X13423407Y-8111029D01*
X13292493Y-8170816D01*
X13245798Y-8208445D01*
X11905322Y-9548923D01*
X11905316Y-9548930D01*
X11867694Y-9595615D01*
X11867693Y-9595617D01*
X11807906Y-9726530D01*
X11787425Y-9868987D01*
X7838825Y-9868987D01*
X15887532Y-1820281D01*
X15891390Y-1816587D01*
X16174876Y-1556818D01*
X16183128Y-1549894D01*
X16485974Y-1317509D01*
X16494813Y-1311320D01*
X16816775Y-1106205D01*
X16826102Y-1100820D01*
X17164699Y-924555D01*
X17174490Y-919989D01*
X17527159Y-773907D01*
X17537295Y-770218D01*
X17901359Y-655426D01*
X17911785Y-652633D01*
X18284476Y-570007D01*
X18295095Y-568135D01*
X18673564Y-518306D01*
X18684301Y-517366D01*
X19067865Y-500618D01*
X19073274Y-500500D01*
X19136963Y-500500D01*
X30863037Y-500500D01*
X30926222Y-500500D01*
X30931631Y-500618D01*
G37*
%TD.AperFunction*%
%TA.AperFunction,Conductor*%
G36*
X41341444Y-67113999D02*
G01*
X41380484Y-67159054D01*
X41384591Y-67167115D01*
X41384951Y-67167820D01*
X41509890Y-67339786D01*
X41660213Y-67490109D01*
X41832182Y-67615050D01*
X41840946Y-67619516D01*
X41891742Y-67667491D01*
X41908536Y-67735312D01*
X41885998Y-67801447D01*
X41840946Y-67840484D01*
X41832182Y-67844949D01*
X41660213Y-67969890D01*
X41509890Y-68120213D01*
X41384951Y-68292179D01*
X41288444Y-68481585D01*
X41222753Y-68683760D01*
X41189500Y-68893713D01*
X41189500Y-69106286D01*
X41222753Y-69316239D01*
X41288444Y-69518414D01*
X41346508Y-69632372D01*
X41359404Y-69701042D01*
X41333127Y-69765782D01*
X41323704Y-69776348D01*
X40786873Y-70313181D01*
X40725550Y-70346666D01*
X40699192Y-70349500D01*
X39320808Y-70349500D01*
X39253769Y-70329815D01*
X39233127Y-70313181D01*
X38686819Y-69766873D01*
X38653334Y-69705550D01*
X38650500Y-69679192D01*
X38650500Y-67281813D01*
X38670185Y-67214774D01*
X38722989Y-67169019D01*
X38792147Y-67159075D01*
X38855703Y-67188100D01*
X38874816Y-67208924D01*
X38956103Y-67320808D01*
X38969896Y-67339792D01*
X39120213Y-67490109D01*
X39292179Y-67615048D01*
X39292181Y-67615049D01*
X39292184Y-67615051D01*
X39481588Y-67711557D01*
X39683757Y-67777246D01*
X39893713Y-67810500D01*
X39893714Y-67810500D01*
X40106286Y-67810500D01*
X40106287Y-67810500D01*
X40316243Y-67777246D01*
X40518412Y-67711557D01*
X40707816Y-67615051D01*
X40729789Y-67599086D01*
X40879786Y-67490109D01*
X40879788Y-67490106D01*
X40879792Y-67490104D01*
X41030104Y-67339792D01*
X41030106Y-67339788D01*
X41030109Y-67339786D01*
X41155048Y-67167820D01*
X41155047Y-67167820D01*
X41155051Y-67167816D01*
X41159514Y-67159054D01*
X41207488Y-67108259D01*
X41275308Y-67091463D01*
X41341444Y-67113999D01*
G37*
%TD.AperFunction*%
%TA.AperFunction,Conductor*%
G36*
X34288774Y-54665710D02*
G01*
X34336384Y-54716848D01*
X34349500Y-54772352D01*
X34349500Y-55064070D01*
X34361720Y-55125500D01*
X34361720Y-55125502D01*
X34374497Y-55189736D01*
X34374499Y-55189744D01*
X34423534Y-55308125D01*
X34494726Y-55414673D01*
X34494727Y-55414674D01*
X37313181Y-58233127D01*
X37346666Y-58294450D01*
X37349500Y-58320808D01*
X37349500Y-64524069D01*
X37349500Y-64524071D01*
X37349499Y-64524071D01*
X37359401Y-64573846D01*
X37370137Y-64627816D01*
X37374499Y-64649744D01*
X37423535Y-64768127D01*
X37494391Y-64874172D01*
X37494726Y-64874673D01*
X37494727Y-64874674D01*
X38649342Y-66029287D01*
X38682827Y-66090610D01*
X38682321Y-66138755D01*
X38683516Y-66138945D01*
X38649500Y-66353713D01*
X38649500Y-66430191D01*
X38629815Y-66497230D01*
X38577011Y-66542985D01*
X38507853Y-66552929D01*
X38444297Y-66523904D01*
X38437819Y-66517872D01*
X37817014Y-65897068D01*
X37783529Y-65835745D01*
X37783105Y-65833714D01*
X37769737Y-65766503D01*
X37714077Y-65632126D01*
X37709397Y-65620827D01*
X37709390Y-65620814D01*
X37621789Y-65489711D01*
X37621786Y-65489707D01*
X37510292Y-65378213D01*
X37510288Y-65378210D01*
X37379185Y-65290609D01*
X37379172Y-65290602D01*
X37233499Y-65230263D01*
X37233491Y-65230261D01*
X37166417Y-65216919D01*
X37104506Y-65184534D01*
X37102928Y-65182983D01*
X31186819Y-59266873D01*
X31153334Y-59205550D01*
X31150500Y-59179192D01*
X31150500Y-57044168D01*
X31170185Y-56977129D01*
X31222989Y-56931374D01*
X31292147Y-56921430D01*
X31343392Y-56941067D01*
X31370812Y-56959389D01*
X31370827Y-56959397D01*
X31516498Y-57019735D01*
X31516503Y-57019737D01*
X31671153Y-57050499D01*
X31671156Y-57050500D01*
X31671158Y-57050500D01*
X31828844Y-57050500D01*
X31828845Y-57050499D01*
X31983497Y-57019737D01*
X32129179Y-56959394D01*
X32260289Y-56871789D01*
X32371789Y-56760289D01*
X32459394Y-56629179D01*
X32519737Y-56483497D01*
X32533079Y-56416416D01*
X32565463Y-56354509D01*
X32566958Y-56352986D01*
X34005277Y-54914669D01*
X34076465Y-54808127D01*
X34079624Y-54800500D01*
X34110939Y-54724898D01*
X34154780Y-54670496D01*
X34221074Y-54648431D01*
X34288774Y-54665710D01*
G37*
%TD.AperFunction*%
%TA.AperFunction,Conductor*%
G36*
X38855703Y-58776095D02*
G01*
X38862181Y-58782127D01*
X41853181Y-61773127D01*
X41886666Y-61834450D01*
X41889500Y-61860808D01*
X41889500Y-62445500D01*
X41869815Y-62512539D01*
X41817011Y-62558294D01*
X41765501Y-62569500D01*
X41642130Y-62569500D01*
X41642123Y-62569501D01*
X41582516Y-62575908D01*
X41447671Y-62626202D01*
X41447664Y-62626206D01*
X41332455Y-62712452D01*
X41332452Y-62712455D01*
X41246206Y-62827664D01*
X41246203Y-62827669D01*
X41197189Y-62959083D01*
X41155317Y-63015016D01*
X41089853Y-63039433D01*
X41021580Y-63024581D01*
X40993326Y-63003430D01*
X40879786Y-62889890D01*
X40707820Y-62764951D01*
X40518414Y-62668444D01*
X40518413Y-62668443D01*
X40518412Y-62668443D01*
X40316243Y-62602754D01*
X40316241Y-62602753D01*
X40316240Y-62602753D01*
X40154957Y-62577208D01*
X40106287Y-62569500D01*
X39893713Y-62569500D01*
X39845042Y-62577208D01*
X39683760Y-62602753D01*
X39481585Y-62668444D01*
X39292179Y-62764951D01*
X39120213Y-62889890D01*
X38969894Y-63040209D01*
X38969890Y-63040214D01*
X38874818Y-63171071D01*
X38819488Y-63213737D01*
X38749875Y-63219716D01*
X38688080Y-63187111D01*
X38653723Y-63126272D01*
X38650500Y-63098186D01*
X38650500Y-58869808D01*
X38670185Y-58802769D01*
X38722989Y-58757014D01*
X38792147Y-58747070D01*
X38855703Y-58776095D01*
G37*
%TD.AperFunction*%
%TD*%
M02*
