M48
; DRILL file {KiCad 9.0.0} date 2025-11-25T16:08:04+0200
; FORMAT={-:-/ absolute / inch / decimal}
; #@! TF.CreationDate,2025-11-25T16:08:04+02:00
; #@! TF.GenerationSoftware,Kicad,Pcbnew,9.0.0
; #@! TF.FileFunction,Plated,1,2,PTH
FMAT,2
INCH
; #@! TA.AperFunction,Plated,PTH,ViaDrill
T1C0.0118
; #@! TA.AperFunction,Plated,PTH,ComponentDrill
T2C0.0197
; #@! TA.AperFunction,Plated,PTH,ComponentDrill
T3C0.0354
; #@! TA.AperFunction,Plated,PTH,ComponentDrill
T4C0.0394
; #@! TA.AperFunction,Plated,PTH,ComponentDrill
T5C0.0402
; #@! TA.AperFunction,Plated,PTH,ComponentDrill
T6C0.1260
%
G90
G05
T1
X0.2559Y-2.815
X0.2756Y-2.3819
X0.3543Y-1.3976
X0.3543Y-1.9291
X0.4528Y-0.9843
X0.4528Y-2.2047
X0.5512Y-2.4604
X0.5512Y-2.4998
X0.5512Y-2.5392
X0.5906Y-1.3976
X0.689Y-0.2165
X0.689Y-1.2402
X0.7087Y-1.9291
X0.7087Y-2.5787
X0.7283Y-2.2047
X0.748Y-0.1378
X0.748Y-0.4724
X0.9055Y-1.9291
X0.935Y-1.6043
X0.9449Y-1.8307
X0.9843Y-0.6496
X0.9843Y-1.063
X0.9843Y-1.5945
X0.9843Y-1.8307
X1.0236Y-1.9685
X1.063Y-0.4331
X1.063Y-1.5669
X1.0827Y-0.1575
X1.1024Y-3.0512
X1.1107Y-2.0359
X1.1417Y-2.0079
X1.1614Y-0.5315
X1.1614Y-1.6732
X1.1614Y-2.2047
X1.1811Y-1.9685
X1.2008Y-1.5748
X1.2008Y-1.8504
X1.2205Y-1.9291
X1.2402Y-2.2638
X1.2402Y-2.4606
X1.25Y-2.2146
X1.2992Y-0.1969
X1.3189Y-1.6142
X1.3189Y-1.8307
X1.3386Y-1.7323
X1.3386Y-2.6378
X1.3581Y-1.8502
X1.3583Y-1.6535
X1.3583Y-2.3031
X1.378Y-2.126
X1.4094Y-1.7754
X1.4094Y-2.0866
X1.4173Y-1.9488
X1.437Y-2.0472
X1.4567Y-2.3031
X1.4567Y-2.4606
X1.4567Y-2.5984
X1.5157Y-2.126
X1.5236Y-2.375
X1.5551Y-1.9094
X1.6142Y-1.5748
X1.6142Y-1.6732
X1.6142Y-1.7913
X1.6142Y-1.8701
X1.6142Y-2.4213
X1.7126Y-2.3622
T2
X0.2598Y-2.9921
X0.2795Y-0.7087
X0.2875Y-2.9253
X0.2875Y-3.0589
X0.3072Y-0.6418
X0.3072Y-0.7755
X0.3543Y-2.8976
X0.3543Y-3.0866
X0.374Y-0.6142
X0.374Y-0.8031
X0.4211Y-2.9253
X0.4211Y-3.0589
X0.4408Y-0.6418
X0.4408Y-0.7755
X0.4488Y-2.9921
X0.4685Y-0.7087
X1.5Y-0.7087
X1.5197Y-2.9921
X1.5277Y-0.6418
X1.5277Y-0.7755
X1.5474Y-2.9253
X1.5474Y-3.0589
X1.5945Y-0.6142
X1.5945Y-0.8031
X1.6142Y-2.8976
X1.6142Y-3.0866
X1.6613Y-0.6418
X1.6613Y-0.7755
X1.681Y-2.9253
X1.681Y-3.0589
X1.689Y-0.7087
X1.7087Y-2.9921
T3
X0.5341Y-0.3885
X0.6048Y-0.3178
X0.9341Y-0.2372
X0.9344Y-2.9715
X1.0341Y-0.2372
X1.0344Y-2.9715
X1.3466Y-0.323
X1.4173Y-0.3937
X1.6024Y-2.0472
X1.6024Y-2.1457
X1.6024Y-2.2441
X1.7323Y-2.0472
X1.7323Y-2.1457
X1.7323Y-2.2441
T4
X1.5748Y-2.5165
X1.5748Y-2.6165
X1.5748Y-2.7165
X1.6748Y-2.5165
X1.6748Y-2.6165
X1.6748Y-2.7165
T5
X0.7677Y-2.811
X1.2008Y-2.811
T6
X0.3543Y-2.9921
X0.374Y-0.7087
X1.5945Y-0.7087
X1.6142Y-2.9921
M30
