%TF.GenerationSoftware,KiCad,Pcbnew,9.0.0*%
%TF.CreationDate,2025-11-25T16:08:04+02:00*%
%TF.ProjectId,Start_Stop_Remote,53746172-745f-4537-946f-705f52656d6f,rev?*%
%TF.SameCoordinates,Original*%
%TF.FileFunction,Legend,Bot*%
%TF.FilePolarity,Positive*%
%FSLAX46Y46*%
G04 Gerber Fmt 4.6, Leading zero omitted, Abs format (unit mm)*
G04 Created by KiCad (PCBNEW 9.0.0) date 2025-11-25 16:08:04*
%MOMM*%
%LPD*%
G01*
G04 APERTURE LIST*
G04 Aperture macros list*
%AMRoundRect*
0 Rectangle with rounded corners*
0 $1 Rounding radius*
0 $2 $3 $4 $5 $6 $7 $8 $9 X,Y pos of 4 corners*
0 Add a 4 corners polygon primitive as box body*
4,1,4,$2,$3,$4,$5,$6,$7,$8,$9,$2,$3,0*
0 Add four circle primitives for the rounded corners*
1,1,$1+$1,$2,$3*
1,1,$1+$1,$4,$5*
1,1,$1+$1,$6,$7*
1,1,$1+$1,$8,$9*
0 Add four rect primitives between the rounded corners*
20,1,$1+$1,$2,$3,$4,$5,0*
20,1,$1+$1,$4,$5,$6,$7,0*
20,1,$1+$1,$6,$7,$8,$9,0*
20,1,$1+$1,$8,$9,$2,$3,0*%
%AMRotRect*
0 Rectangle, with rotation*
0 The origin of the aperture is its center*
0 $1 length*
0 $2 width*
0 $3 Rotation angle, in degrees counterclockwise*
0 Add horizontal line*
21,1,$1,$2,0,0,$3*%
G04 Aperture macros list end*
%ADD10C,0.100000*%
%ADD11C,0.150000*%
%ADD12C,0.120000*%
%ADD13C,0.000000*%
%ADD14C,0.800000*%
%ADD15C,6.400000*%
%ADD16RoundRect,0.250000X0.450000X-0.450000X0.450000X0.450000X-0.450000X0.450000X-0.450000X-0.450000X0*%
%ADD17C,1.400000*%
%ADD18R,1.800000X1.800000*%
%ADD19C,1.800000*%
%ADD20R,1.700000X1.700000*%
%ADD21O,1.700000X1.700000*%
%ADD22RotRect,1.800000X1.800000X45.000000*%
%ADD23C,3.450000*%
%ADD24R,2.000000X2.000000*%
%ADD25C,2.000000*%
%ADD26RotRect,1.800000X1.800000X315.000000*%
G04 APERTURE END LIST*
D10*
X10467657Y-41256265D02*
X10420038Y-41303884D01*
X10420038Y-41303884D02*
X10372419Y-41399122D01*
X10372419Y-41399122D02*
X10372419Y-41637217D01*
X10372419Y-41637217D02*
X10420038Y-41732455D01*
X10420038Y-41732455D02*
X10467657Y-41780074D01*
X10467657Y-41780074D02*
X10562895Y-41827693D01*
X10562895Y-41827693D02*
X10658133Y-41827693D01*
X10658133Y-41827693D02*
X10800990Y-41780074D01*
X10800990Y-41780074D02*
X11372419Y-41208646D01*
X11372419Y-41208646D02*
X11372419Y-41827693D01*
X11372419Y-42922932D02*
X10705752Y-43446741D01*
X10705752Y-42922932D02*
X11372419Y-43446741D01*
X11086704Y-44541980D02*
X11086704Y-45018170D01*
X11372419Y-44446742D02*
X10372419Y-44780075D01*
X10372419Y-44780075D02*
X11372419Y-45113408D01*
X11086704Y-45399123D02*
X11086704Y-45875313D01*
X11372419Y-45303885D02*
X10372419Y-45637218D01*
X10372419Y-45637218D02*
X11372419Y-45970551D01*
X11086704Y-46256266D02*
X11086704Y-46732456D01*
X11372419Y-46161028D02*
X10372419Y-46494361D01*
X10372419Y-46494361D02*
X11372419Y-46827694D01*
X40104912Y-23256265D02*
X40152531Y-23399122D01*
X40152531Y-23399122D02*
X40152531Y-23637217D01*
X40152531Y-23637217D02*
X40104912Y-23732455D01*
X40104912Y-23732455D02*
X40057292Y-23780074D01*
X40057292Y-23780074D02*
X39962054Y-23827693D01*
X39962054Y-23827693D02*
X39866816Y-23827693D01*
X39866816Y-23827693D02*
X39771578Y-23780074D01*
X39771578Y-23780074D02*
X39723959Y-23732455D01*
X39723959Y-23732455D02*
X39676340Y-23637217D01*
X39676340Y-23637217D02*
X39628721Y-23446741D01*
X39628721Y-23446741D02*
X39581102Y-23351503D01*
X39581102Y-23351503D02*
X39533483Y-23303884D01*
X39533483Y-23303884D02*
X39438245Y-23256265D01*
X39438245Y-23256265D02*
X39343007Y-23256265D01*
X39343007Y-23256265D02*
X39247769Y-23303884D01*
X39247769Y-23303884D02*
X39200150Y-23351503D01*
X39200150Y-23351503D02*
X39152531Y-23446741D01*
X39152531Y-23446741D02*
X39152531Y-23684836D01*
X39152531Y-23684836D02*
X39200150Y-23827693D01*
X39485864Y-24684836D02*
X40152531Y-24684836D01*
X39485864Y-24256265D02*
X40009673Y-24256265D01*
X40009673Y-24256265D02*
X40104912Y-24303884D01*
X40104912Y-24303884D02*
X40152531Y-24399122D01*
X40152531Y-24399122D02*
X40152531Y-24541979D01*
X40152531Y-24541979D02*
X40104912Y-24637217D01*
X40104912Y-24637217D02*
X40057292Y-24684836D01*
X40152531Y-25161027D02*
X39485864Y-25161027D01*
X39581102Y-25161027D02*
X39533483Y-25208646D01*
X39533483Y-25208646D02*
X39485864Y-25303884D01*
X39485864Y-25303884D02*
X39485864Y-25446741D01*
X39485864Y-25446741D02*
X39533483Y-25541979D01*
X39533483Y-25541979D02*
X39628721Y-25589598D01*
X39628721Y-25589598D02*
X40152531Y-25589598D01*
X39628721Y-25589598D02*
X39533483Y-25637217D01*
X39533483Y-25637217D02*
X39485864Y-25732455D01*
X39485864Y-25732455D02*
X39485864Y-25875312D01*
X39485864Y-25875312D02*
X39533483Y-25970551D01*
X39533483Y-25970551D02*
X39628721Y-26018170D01*
X39628721Y-26018170D02*
X40152531Y-26018170D01*
X40152531Y-26637217D02*
X40104912Y-26541979D01*
X40104912Y-26541979D02*
X40057292Y-26494360D01*
X40057292Y-26494360D02*
X39962054Y-26446741D01*
X39962054Y-26446741D02*
X39676340Y-26446741D01*
X39676340Y-26446741D02*
X39581102Y-26494360D01*
X39581102Y-26494360D02*
X39533483Y-26541979D01*
X39533483Y-26541979D02*
X39485864Y-26637217D01*
X39485864Y-26637217D02*
X39485864Y-26780074D01*
X39485864Y-26780074D02*
X39533483Y-26875312D01*
X39533483Y-26875312D02*
X39581102Y-26922931D01*
X39581102Y-26922931D02*
X39676340Y-26970550D01*
X39676340Y-26970550D02*
X39962054Y-26970550D01*
X39962054Y-26970550D02*
X40057292Y-26922931D01*
X40057292Y-26922931D02*
X40104912Y-26875312D01*
X40104912Y-26875312D02*
X40152531Y-26780074D01*
X40152531Y-26780074D02*
X40152531Y-26637217D01*
X40247769Y-27161027D02*
X40247769Y-27922931D01*
X40152531Y-28732455D02*
X39676340Y-28399122D01*
X40152531Y-28161027D02*
X39152531Y-28161027D01*
X39152531Y-28161027D02*
X39152531Y-28541979D01*
X39152531Y-28541979D02*
X39200150Y-28637217D01*
X39200150Y-28637217D02*
X39247769Y-28684836D01*
X39247769Y-28684836D02*
X39343007Y-28732455D01*
X39343007Y-28732455D02*
X39485864Y-28732455D01*
X39485864Y-28732455D02*
X39581102Y-28684836D01*
X39581102Y-28684836D02*
X39628721Y-28637217D01*
X39628721Y-28637217D02*
X39676340Y-28541979D01*
X39676340Y-28541979D02*
X39676340Y-28161027D01*
X40104912Y-29541979D02*
X40152531Y-29446741D01*
X40152531Y-29446741D02*
X40152531Y-29256265D01*
X40152531Y-29256265D02*
X40104912Y-29161027D01*
X40104912Y-29161027D02*
X40009673Y-29113408D01*
X40009673Y-29113408D02*
X39628721Y-29113408D01*
X39628721Y-29113408D02*
X39533483Y-29161027D01*
X39533483Y-29161027D02*
X39485864Y-29256265D01*
X39485864Y-29256265D02*
X39485864Y-29446741D01*
X39485864Y-29446741D02*
X39533483Y-29541979D01*
X39533483Y-29541979D02*
X39628721Y-29589598D01*
X39628721Y-29589598D02*
X39723959Y-29589598D01*
X39723959Y-29589598D02*
X39819197Y-29113408D01*
X40152531Y-30018170D02*
X39485864Y-30018170D01*
X39581102Y-30018170D02*
X39533483Y-30065789D01*
X39533483Y-30065789D02*
X39485864Y-30161027D01*
X39485864Y-30161027D02*
X39485864Y-30303884D01*
X39485864Y-30303884D02*
X39533483Y-30399122D01*
X39533483Y-30399122D02*
X39628721Y-30446741D01*
X39628721Y-30446741D02*
X40152531Y-30446741D01*
X39628721Y-30446741D02*
X39533483Y-30494360D01*
X39533483Y-30494360D02*
X39485864Y-30589598D01*
X39485864Y-30589598D02*
X39485864Y-30732455D01*
X39485864Y-30732455D02*
X39533483Y-30827694D01*
X39533483Y-30827694D02*
X39628721Y-30875313D01*
X39628721Y-30875313D02*
X40152531Y-30875313D01*
X40152531Y-31494360D02*
X40104912Y-31399122D01*
X40104912Y-31399122D02*
X40057292Y-31351503D01*
X40057292Y-31351503D02*
X39962054Y-31303884D01*
X39962054Y-31303884D02*
X39676340Y-31303884D01*
X39676340Y-31303884D02*
X39581102Y-31351503D01*
X39581102Y-31351503D02*
X39533483Y-31399122D01*
X39533483Y-31399122D02*
X39485864Y-31494360D01*
X39485864Y-31494360D02*
X39485864Y-31637217D01*
X39485864Y-31637217D02*
X39533483Y-31732455D01*
X39533483Y-31732455D02*
X39581102Y-31780074D01*
X39581102Y-31780074D02*
X39676340Y-31827693D01*
X39676340Y-31827693D02*
X39962054Y-31827693D01*
X39962054Y-31827693D02*
X40057292Y-31780074D01*
X40057292Y-31780074D02*
X40104912Y-31732455D01*
X40104912Y-31732455D02*
X40152531Y-31637217D01*
X40152531Y-31637217D02*
X40152531Y-31494360D01*
X39485864Y-32113408D02*
X39485864Y-32494360D01*
X39152531Y-32256265D02*
X40009673Y-32256265D01*
X40009673Y-32256265D02*
X40104912Y-32303884D01*
X40104912Y-32303884D02*
X40152531Y-32399122D01*
X40152531Y-32399122D02*
X40152531Y-32494360D01*
X40104912Y-33208646D02*
X40152531Y-33113408D01*
X40152531Y-33113408D02*
X40152531Y-32922932D01*
X40152531Y-32922932D02*
X40104912Y-32827694D01*
X40104912Y-32827694D02*
X40009673Y-32780075D01*
X40009673Y-32780075D02*
X39628721Y-32780075D01*
X39628721Y-32780075D02*
X39533483Y-32827694D01*
X39533483Y-32827694D02*
X39485864Y-32922932D01*
X39485864Y-32922932D02*
X39485864Y-33113408D01*
X39485864Y-33113408D02*
X39533483Y-33208646D01*
X39533483Y-33208646D02*
X39628721Y-33256265D01*
X39628721Y-33256265D02*
X39723959Y-33256265D01*
X39723959Y-33256265D02*
X39819197Y-32780075D01*
X40857713Y-23256265D02*
X40810094Y-23303884D01*
X40810094Y-23303884D02*
X40762475Y-23399122D01*
X40762475Y-23399122D02*
X40762475Y-23637217D01*
X40762475Y-23637217D02*
X40810094Y-23732455D01*
X40810094Y-23732455D02*
X40857713Y-23780074D01*
X40857713Y-23780074D02*
X40952951Y-23827693D01*
X40952951Y-23827693D02*
X41048189Y-23827693D01*
X41048189Y-23827693D02*
X41191046Y-23780074D01*
X41191046Y-23780074D02*
X41762475Y-23208646D01*
X41762475Y-23208646D02*
X41762475Y-23827693D01*
X40762475Y-24446741D02*
X40762475Y-24541979D01*
X40762475Y-24541979D02*
X40810094Y-24637217D01*
X40810094Y-24637217D02*
X40857713Y-24684836D01*
X40857713Y-24684836D02*
X40952951Y-24732455D01*
X40952951Y-24732455D02*
X41143427Y-24780074D01*
X41143427Y-24780074D02*
X41381522Y-24780074D01*
X41381522Y-24780074D02*
X41571998Y-24732455D01*
X41571998Y-24732455D02*
X41667236Y-24684836D01*
X41667236Y-24684836D02*
X41714856Y-24637217D01*
X41714856Y-24637217D02*
X41762475Y-24541979D01*
X41762475Y-24541979D02*
X41762475Y-24446741D01*
X41762475Y-24446741D02*
X41714856Y-24351503D01*
X41714856Y-24351503D02*
X41667236Y-24303884D01*
X41667236Y-24303884D02*
X41571998Y-24256265D01*
X41571998Y-24256265D02*
X41381522Y-24208646D01*
X41381522Y-24208646D02*
X41143427Y-24208646D01*
X41143427Y-24208646D02*
X40952951Y-24256265D01*
X40952951Y-24256265D02*
X40857713Y-24303884D01*
X40857713Y-24303884D02*
X40810094Y-24351503D01*
X40810094Y-24351503D02*
X40762475Y-24446741D01*
X40857713Y-25161027D02*
X40810094Y-25208646D01*
X40810094Y-25208646D02*
X40762475Y-25303884D01*
X40762475Y-25303884D02*
X40762475Y-25541979D01*
X40762475Y-25541979D02*
X40810094Y-25637217D01*
X40810094Y-25637217D02*
X40857713Y-25684836D01*
X40857713Y-25684836D02*
X40952951Y-25732455D01*
X40952951Y-25732455D02*
X41048189Y-25732455D01*
X41048189Y-25732455D02*
X41191046Y-25684836D01*
X41191046Y-25684836D02*
X41762475Y-25113408D01*
X41762475Y-25113408D02*
X41762475Y-25732455D01*
X40762475Y-26637217D02*
X40762475Y-26161027D01*
X40762475Y-26161027D02*
X41238665Y-26113408D01*
X41238665Y-26113408D02*
X41191046Y-26161027D01*
X41191046Y-26161027D02*
X41143427Y-26256265D01*
X41143427Y-26256265D02*
X41143427Y-26494360D01*
X41143427Y-26494360D02*
X41191046Y-26589598D01*
X41191046Y-26589598D02*
X41238665Y-26637217D01*
X41238665Y-26637217D02*
X41333903Y-26684836D01*
X41333903Y-26684836D02*
X41571998Y-26684836D01*
X41571998Y-26684836D02*
X41667236Y-26637217D01*
X41667236Y-26637217D02*
X41714856Y-26589598D01*
X41714856Y-26589598D02*
X41762475Y-26494360D01*
X41762475Y-26494360D02*
X41762475Y-26256265D01*
X41762475Y-26256265D02*
X41714856Y-26161027D01*
X41714856Y-26161027D02*
X41667236Y-26113408D01*
X41381522Y-27113408D02*
X41381522Y-27875313D01*
X41762475Y-28875312D02*
X41762475Y-28303884D01*
X41762475Y-28589598D02*
X40762475Y-28589598D01*
X40762475Y-28589598D02*
X40905332Y-28494360D01*
X40905332Y-28494360D02*
X41000570Y-28399122D01*
X41000570Y-28399122D02*
X41048189Y-28303884D01*
X41762475Y-29827693D02*
X41762475Y-29256265D01*
X41762475Y-29541979D02*
X40762475Y-29541979D01*
X40762475Y-29541979D02*
X40905332Y-29446741D01*
X40905332Y-29446741D02*
X41000570Y-29351503D01*
X41000570Y-29351503D02*
X41048189Y-29256265D01*
X41381522Y-30256265D02*
X41381522Y-31018170D01*
X40857713Y-31446741D02*
X40810094Y-31494360D01*
X40810094Y-31494360D02*
X40762475Y-31589598D01*
X40762475Y-31589598D02*
X40762475Y-31827693D01*
X40762475Y-31827693D02*
X40810094Y-31922931D01*
X40810094Y-31922931D02*
X40857713Y-31970550D01*
X40857713Y-31970550D02*
X40952951Y-32018169D01*
X40952951Y-32018169D02*
X41048189Y-32018169D01*
X41048189Y-32018169D02*
X41191046Y-31970550D01*
X41191046Y-31970550D02*
X41762475Y-31399122D01*
X41762475Y-31399122D02*
X41762475Y-32018169D01*
X40762475Y-32922931D02*
X40762475Y-32446741D01*
X40762475Y-32446741D02*
X41238665Y-32399122D01*
X41238665Y-32399122D02*
X41191046Y-32446741D01*
X41191046Y-32446741D02*
X41143427Y-32541979D01*
X41143427Y-32541979D02*
X41143427Y-32780074D01*
X41143427Y-32780074D02*
X41191046Y-32875312D01*
X41191046Y-32875312D02*
X41238665Y-32922931D01*
X41238665Y-32922931D02*
X41333903Y-32970550D01*
X41333903Y-32970550D02*
X41571998Y-32970550D01*
X41571998Y-32970550D02*
X41667236Y-32922931D01*
X41667236Y-32922931D02*
X41714856Y-32875312D01*
X41714856Y-32875312D02*
X41762475Y-32780074D01*
X41762475Y-32780074D02*
X41762475Y-32541979D01*
X41762475Y-32541979D02*
X41714856Y-32446741D01*
X41714856Y-32446741D02*
X41667236Y-32399122D01*
X43372419Y-23875312D02*
X42896228Y-23541979D01*
X43372419Y-23303884D02*
X42372419Y-23303884D01*
X42372419Y-23303884D02*
X42372419Y-23684836D01*
X42372419Y-23684836D02*
X42420038Y-23780074D01*
X42420038Y-23780074D02*
X42467657Y-23827693D01*
X42467657Y-23827693D02*
X42562895Y-23875312D01*
X42562895Y-23875312D02*
X42705752Y-23875312D01*
X42705752Y-23875312D02*
X42800990Y-23827693D01*
X42800990Y-23827693D02*
X42848609Y-23780074D01*
X42848609Y-23780074D02*
X42896228Y-23684836D01*
X42896228Y-23684836D02*
X42896228Y-23303884D01*
X43324800Y-24684836D02*
X43372419Y-24589598D01*
X43372419Y-24589598D02*
X43372419Y-24399122D01*
X43372419Y-24399122D02*
X43324800Y-24303884D01*
X43324800Y-24303884D02*
X43229561Y-24256265D01*
X43229561Y-24256265D02*
X42848609Y-24256265D01*
X42848609Y-24256265D02*
X42753371Y-24303884D01*
X42753371Y-24303884D02*
X42705752Y-24399122D01*
X42705752Y-24399122D02*
X42705752Y-24589598D01*
X42705752Y-24589598D02*
X42753371Y-24684836D01*
X42753371Y-24684836D02*
X42848609Y-24732455D01*
X42848609Y-24732455D02*
X42943847Y-24732455D01*
X42943847Y-24732455D02*
X43039085Y-24256265D01*
X42705752Y-25065789D02*
X43372419Y-25303884D01*
X43372419Y-25303884D02*
X42705752Y-25541979D01*
X43277180Y-25922932D02*
X43324800Y-25970551D01*
X43324800Y-25970551D02*
X43372419Y-25922932D01*
X43372419Y-25922932D02*
X43324800Y-25875313D01*
X43324800Y-25875313D02*
X43277180Y-25922932D01*
X43277180Y-25922932D02*
X43372419Y-25922932D01*
X42753371Y-25922932D02*
X42800990Y-25970551D01*
X42800990Y-25970551D02*
X42848609Y-25922932D01*
X42848609Y-25922932D02*
X42800990Y-25875313D01*
X42800990Y-25875313D02*
X42753371Y-25922932D01*
X42753371Y-25922932D02*
X42848609Y-25922932D01*
X43372419Y-27684836D02*
X43372419Y-27113408D01*
X43372419Y-27399122D02*
X42372419Y-27399122D01*
X42372419Y-27399122D02*
X42515276Y-27303884D01*
X42515276Y-27303884D02*
X42610514Y-27208646D01*
X42610514Y-27208646D02*
X42658133Y-27113408D01*
X43277180Y-28113408D02*
X43324800Y-28161027D01*
X43324800Y-28161027D02*
X43372419Y-28113408D01*
X43372419Y-28113408D02*
X43324800Y-28065789D01*
X43324800Y-28065789D02*
X43277180Y-28113408D01*
X43277180Y-28113408D02*
X43372419Y-28113408D01*
X42372419Y-28780074D02*
X42372419Y-28875312D01*
X42372419Y-28875312D02*
X42420038Y-28970550D01*
X42420038Y-28970550D02*
X42467657Y-29018169D01*
X42467657Y-29018169D02*
X42562895Y-29065788D01*
X42562895Y-29065788D02*
X42753371Y-29113407D01*
X42753371Y-29113407D02*
X42991466Y-29113407D01*
X42991466Y-29113407D02*
X43181942Y-29065788D01*
X43181942Y-29065788D02*
X43277180Y-29018169D01*
X43277180Y-29018169D02*
X43324800Y-28970550D01*
X43324800Y-28970550D02*
X43372419Y-28875312D01*
X43372419Y-28875312D02*
X43372419Y-28780074D01*
X43372419Y-28780074D02*
X43324800Y-28684836D01*
X43324800Y-28684836D02*
X43277180Y-28637217D01*
X43277180Y-28637217D02*
X43181942Y-28589598D01*
X43181942Y-28589598D02*
X42991466Y-28541979D01*
X42991466Y-28541979D02*
X42753371Y-28541979D01*
X42753371Y-28541979D02*
X42562895Y-28589598D01*
X42562895Y-28589598D02*
X42467657Y-28637217D01*
X42467657Y-28637217D02*
X42420038Y-28684836D01*
X42420038Y-28684836D02*
X42372419Y-28780074D01*
D11*
X26219285Y-73969819D02*
X26219285Y-72969819D01*
X26219285Y-72969819D02*
X25981190Y-72969819D01*
X25981190Y-72969819D02*
X25838333Y-73017438D01*
X25838333Y-73017438D02*
X25743095Y-73112676D01*
X25743095Y-73112676D02*
X25695476Y-73207914D01*
X25695476Y-73207914D02*
X25647857Y-73398390D01*
X25647857Y-73398390D02*
X25647857Y-73541247D01*
X25647857Y-73541247D02*
X25695476Y-73731723D01*
X25695476Y-73731723D02*
X25743095Y-73826961D01*
X25743095Y-73826961D02*
X25838333Y-73922200D01*
X25838333Y-73922200D02*
X25981190Y-73969819D01*
X25981190Y-73969819D02*
X26219285Y-73969819D01*
X24695476Y-73969819D02*
X25266904Y-73969819D01*
X24981190Y-73969819D02*
X24981190Y-72969819D01*
X24981190Y-72969819D02*
X25076428Y-73112676D01*
X25076428Y-73112676D02*
X25171666Y-73207914D01*
X25171666Y-73207914D02*
X25266904Y-73255533D01*
X24314523Y-73065057D02*
X24266904Y-73017438D01*
X24266904Y-73017438D02*
X24171666Y-72969819D01*
X24171666Y-72969819D02*
X23933571Y-72969819D01*
X23933571Y-72969819D02*
X23838333Y-73017438D01*
X23838333Y-73017438D02*
X23790714Y-73065057D01*
X23790714Y-73065057D02*
X23743095Y-73160295D01*
X23743095Y-73160295D02*
X23743095Y-73255533D01*
X23743095Y-73255533D02*
X23790714Y-73398390D01*
X23790714Y-73398390D02*
X24362142Y-73969819D01*
X24362142Y-73969819D02*
X23743095Y-73969819D01*
X26209285Y-8439819D02*
X26209285Y-7439819D01*
X26209285Y-7439819D02*
X25971190Y-7439819D01*
X25971190Y-7439819D02*
X25828333Y-7487438D01*
X25828333Y-7487438D02*
X25733095Y-7582676D01*
X25733095Y-7582676D02*
X25685476Y-7677914D01*
X25685476Y-7677914D02*
X25637857Y-7868390D01*
X25637857Y-7868390D02*
X25637857Y-8011247D01*
X25637857Y-8011247D02*
X25685476Y-8201723D01*
X25685476Y-8201723D02*
X25733095Y-8296961D01*
X25733095Y-8296961D02*
X25828333Y-8392200D01*
X25828333Y-8392200D02*
X25971190Y-8439819D01*
X25971190Y-8439819D02*
X26209285Y-8439819D01*
X24685476Y-8439819D02*
X25256904Y-8439819D01*
X24971190Y-8439819D02*
X24971190Y-7439819D01*
X24971190Y-7439819D02*
X25066428Y-7582676D01*
X25066428Y-7582676D02*
X25161666Y-7677914D01*
X25161666Y-7677914D02*
X25256904Y-7725533D01*
X24066428Y-7439819D02*
X23971190Y-7439819D01*
X23971190Y-7439819D02*
X23875952Y-7487438D01*
X23875952Y-7487438D02*
X23828333Y-7535057D01*
X23828333Y-7535057D02*
X23780714Y-7630295D01*
X23780714Y-7630295D02*
X23733095Y-7820771D01*
X23733095Y-7820771D02*
X23733095Y-8058866D01*
X23733095Y-8058866D02*
X23780714Y-8249342D01*
X23780714Y-8249342D02*
X23828333Y-8344580D01*
X23828333Y-8344580D02*
X23875952Y-8392200D01*
X23875952Y-8392200D02*
X23971190Y-8439819D01*
X23971190Y-8439819D02*
X24066428Y-8439819D01*
X24066428Y-8439819D02*
X24161666Y-8392200D01*
X24161666Y-8392200D02*
X24209285Y-8344580D01*
X24209285Y-8344580D02*
X24256904Y-8249342D01*
X24256904Y-8249342D02*
X24304523Y-8058866D01*
X24304523Y-8058866D02*
X24304523Y-7820771D01*
X24304523Y-7820771D02*
X24256904Y-7630295D01*
X24256904Y-7630295D02*
X24209285Y-7535057D01*
X24209285Y-7535057D02*
X24161666Y-7487438D01*
X24161666Y-7487438D02*
X24066428Y-7439819D01*
X41603333Y-61044819D02*
X41603333Y-61759104D01*
X41603333Y-61759104D02*
X41650952Y-61901961D01*
X41650952Y-61901961D02*
X41746190Y-61997200D01*
X41746190Y-61997200D02*
X41889047Y-62044819D01*
X41889047Y-62044819D02*
X41984285Y-62044819D01*
X40603333Y-62044819D02*
X41174761Y-62044819D01*
X40889047Y-62044819D02*
X40889047Y-61044819D01*
X40889047Y-61044819D02*
X40984285Y-61187676D01*
X40984285Y-61187676D02*
X41079523Y-61282914D01*
X41079523Y-61282914D02*
X41174761Y-61330533D01*
X16693336Y-10156584D02*
X15986229Y-9449478D01*
X15986229Y-9449478D02*
X15817870Y-9617836D01*
X15817870Y-9617836D02*
X15750527Y-9752523D01*
X15750527Y-9752523D02*
X15750527Y-9887210D01*
X15750527Y-9887210D02*
X15784199Y-9988226D01*
X15784199Y-9988226D02*
X15885214Y-10156584D01*
X15885214Y-10156584D02*
X15986229Y-10257600D01*
X15986229Y-10257600D02*
X16154588Y-10358615D01*
X16154588Y-10358615D02*
X16255603Y-10392287D01*
X16255603Y-10392287D02*
X16390290Y-10392287D01*
X16390290Y-10392287D02*
X16524977Y-10324943D01*
X16524977Y-10324943D02*
X16693336Y-10156584D01*
X15952557Y-10897363D02*
X15817870Y-11032050D01*
X15817870Y-11032050D02*
X15716855Y-11065722D01*
X15716855Y-11065722D02*
X15649512Y-11065722D01*
X15649512Y-11065722D02*
X15481153Y-11032050D01*
X15481153Y-11032050D02*
X15312794Y-10931035D01*
X15312794Y-10931035D02*
X15043420Y-10661661D01*
X15043420Y-10661661D02*
X15009748Y-10560645D01*
X15009748Y-10560645D02*
X15009748Y-10493302D01*
X15009748Y-10493302D02*
X15043420Y-10392287D01*
X15043420Y-10392287D02*
X15178107Y-10257600D01*
X15178107Y-10257600D02*
X15279122Y-10223928D01*
X15279122Y-10223928D02*
X15346466Y-10223928D01*
X15346466Y-10223928D02*
X15447481Y-10257600D01*
X15447481Y-10257600D02*
X15615840Y-10425958D01*
X15615840Y-10425958D02*
X15649512Y-10526974D01*
X15649512Y-10526974D02*
X15649512Y-10594317D01*
X15649512Y-10594317D02*
X15615840Y-10695332D01*
X15615840Y-10695332D02*
X15481153Y-10830019D01*
X15481153Y-10830019D02*
X15380138Y-10863691D01*
X15380138Y-10863691D02*
X15312794Y-10863691D01*
X15312794Y-10863691D02*
X15211779Y-10830019D01*
X38281009Y-70114285D02*
X38328628Y-70257142D01*
X38328628Y-70257142D02*
X38376247Y-70304761D01*
X38376247Y-70304761D02*
X38471485Y-70352380D01*
X38471485Y-70352380D02*
X38614342Y-70352380D01*
X38614342Y-70352380D02*
X38709580Y-70304761D01*
X38709580Y-70304761D02*
X38757200Y-70257142D01*
X38757200Y-70257142D02*
X38804819Y-70161904D01*
X38804819Y-70161904D02*
X38804819Y-69780952D01*
X38804819Y-69780952D02*
X37804819Y-69780952D01*
X37804819Y-69780952D02*
X37804819Y-70114285D01*
X37804819Y-70114285D02*
X37852438Y-70209523D01*
X37852438Y-70209523D02*
X37900057Y-70257142D01*
X37900057Y-70257142D02*
X37995295Y-70304761D01*
X37995295Y-70304761D02*
X38090533Y-70304761D01*
X38090533Y-70304761D02*
X38185771Y-70257142D01*
X38185771Y-70257142D02*
X38233390Y-70209523D01*
X38233390Y-70209523D02*
X38281009Y-70114285D01*
X38281009Y-70114285D02*
X38281009Y-69780952D01*
X37804819Y-70638095D02*
X37804819Y-71209523D01*
X38804819Y-70923809D02*
X37804819Y-70923809D01*
X38804819Y-72066666D02*
X38804819Y-71495238D01*
X38804819Y-71780952D02*
X37804819Y-71780952D01*
X37804819Y-71780952D02*
X37947676Y-71685714D01*
X37947676Y-71685714D02*
X38042914Y-71590476D01*
X38042914Y-71590476D02*
X38090533Y-71495238D01*
X31464700Y-74138571D02*
X31464700Y-75281429D01*
X32036128Y-74710000D02*
X30893271Y-74710000D01*
X18764700Y-35228571D02*
X18764700Y-36371429D01*
X19336128Y-35800000D02*
X18193271Y-35800000D01*
X31464700Y-57628571D02*
X31464700Y-58771429D01*
X32036128Y-58200000D02*
X30893271Y-58200000D01*
X18764700Y-74138571D02*
X18764700Y-75281429D01*
X31464700Y-35228571D02*
X31464700Y-36371429D01*
X18764700Y-57628571D02*
X18764700Y-58771429D01*
X34253069Y-11668139D02*
X34960175Y-10961032D01*
X34960175Y-10961032D02*
X34791817Y-10792673D01*
X34791817Y-10792673D02*
X34657130Y-10725330D01*
X34657130Y-10725330D02*
X34522443Y-10725330D01*
X34522443Y-10725330D02*
X34421427Y-10759002D01*
X34421427Y-10759002D02*
X34253069Y-10860017D01*
X34253069Y-10860017D02*
X34152053Y-10961032D01*
X34152053Y-10961032D02*
X34051038Y-11129391D01*
X34051038Y-11129391D02*
X34017366Y-11230406D01*
X34017366Y-11230406D02*
X34017366Y-11365093D01*
X34017366Y-11365093D02*
X34084710Y-11499780D01*
X34084710Y-11499780D02*
X34253069Y-11668139D01*
X33175573Y-10590643D02*
X33579634Y-10994704D01*
X33377603Y-10792673D02*
X34084710Y-10085567D01*
X34084710Y-10085567D02*
X34051038Y-10253925D01*
X34051038Y-10253925D02*
X34051038Y-10388612D01*
X34051038Y-10388612D02*
X34084710Y-10489628D01*
X32502137Y-9917208D02*
X32906198Y-10321269D01*
X32704168Y-10119238D02*
X33411275Y-9412131D01*
X33411275Y-9412131D02*
X33377603Y-9580490D01*
X33377603Y-9580490D02*
X33377603Y-9715177D01*
X33377603Y-9715177D02*
X33411275Y-9816192D01*
D12*
%TO.C,D12*%
X22045000Y-81765000D02*
X22045000Y-82885000D01*
X22045000Y-82885000D02*
X22445000Y-82885000D01*
X22445000Y-81765000D02*
X22045000Y-81765000D01*
X22445000Y-81765000D02*
X22445000Y-87925000D01*
X22445000Y-82885000D02*
X22445000Y-81765000D01*
X23735000Y-76555000D02*
X23735000Y-76555000D01*
X23735000Y-76555000D02*
X23735000Y-81765000D01*
X23735000Y-81765000D02*
X23735000Y-76555000D01*
X23735000Y-81765000D02*
X23735000Y-81765000D01*
X26275000Y-76555000D02*
X26275000Y-76555000D01*
X26275000Y-76555000D02*
X26275000Y-81765000D01*
X26275000Y-81765000D02*
X26275000Y-76555000D01*
X26275000Y-81765000D02*
X26275000Y-81765000D01*
X27565000Y-81765000D02*
X22445000Y-81765000D01*
X27565000Y-81765000D02*
X27565000Y-87925000D01*
X27565000Y-87925000D02*
G75*
G02*
X22445000Y-87925000I-2560000J0D01*
G01*
%TO.C,D10*%
X22435000Y265000D02*
X22435000Y6425000D01*
X22435000Y265000D02*
X27555000Y265000D01*
X23725000Y265000D02*
X23725000Y265000D01*
X23725000Y265000D02*
X23725000Y-4945000D01*
X23725000Y-4945000D02*
X23725000Y265000D01*
X23725000Y-4945000D02*
X23725000Y-4945000D01*
X26265000Y265000D02*
X26265000Y265000D01*
X26265000Y265000D02*
X26265000Y-4945000D01*
X26265000Y-4945000D02*
X26265000Y265000D01*
X26265000Y-4945000D02*
X26265000Y-4945000D01*
X27555000Y1385000D02*
X27555000Y265000D01*
X27555000Y265000D02*
X27555000Y6425000D01*
X27555000Y265000D02*
X27955000Y265000D01*
X27955000Y1385000D02*
X27555000Y1385000D01*
X27955000Y265000D02*
X27955000Y1385000D01*
X22435000Y6425000D02*
G75*
G02*
X27555000Y6425000I2560000J0D01*
G01*
D13*
%TO.C,G\u002A\u002A\u002A*%
G36*
X26600182Y-14425034D02*
G01*
X26667803Y-14516171D01*
X26655239Y-14655912D01*
X26613042Y-14705966D01*
X26493978Y-14726468D01*
X26397748Y-14683563D01*
X26366726Y-14567287D01*
X26393094Y-14456832D01*
X26493978Y-14408105D01*
X26600182Y-14425034D01*
G37*
G36*
X23547707Y-14419911D02*
G01*
X23617950Y-14515021D01*
X23608759Y-14651953D01*
X23604779Y-14660829D01*
X23521985Y-14723420D01*
X23405716Y-14731687D01*
X23318414Y-14679670D01*
X23312269Y-14668432D01*
X23305623Y-14552900D01*
X23365732Y-14445373D01*
X23465412Y-14397953D01*
X23547707Y-14419911D01*
G37*
G36*
X27977635Y-14700268D02*
G01*
X27904082Y-15047923D01*
X27747800Y-15371968D01*
X27508700Y-15655066D01*
X27186687Y-15879881D01*
X26879823Y-16040188D01*
X24929941Y-16023404D01*
X24486810Y-16019243D01*
X24041010Y-16013754D01*
X23686327Y-16007193D01*
X23410814Y-15998920D01*
X23202523Y-15988296D01*
X23049505Y-15974681D01*
X22939811Y-15957435D01*
X22861494Y-15935918D01*
X22802605Y-15909490D01*
X22592717Y-15765985D01*
X22324015Y-15484454D01*
X22116775Y-15139514D01*
X22105697Y-15115079D01*
X22028101Y-14910333D01*
X21998407Y-14722567D01*
X21999708Y-14681419D01*
X22867493Y-14681419D01*
X22966613Y-14898050D01*
X23176063Y-15091988D01*
X23304325Y-15157234D01*
X23522552Y-15183574D01*
X23732285Y-15122759D01*
X23910544Y-14988454D01*
X24034351Y-14794323D01*
X24080726Y-14554030D01*
X24080369Y-14549083D01*
X25886948Y-14549083D01*
X25887527Y-14554030D01*
X25907686Y-14726323D01*
X26018295Y-14943510D01*
X26226238Y-15103831D01*
X26429660Y-15170240D01*
X26671543Y-15156563D01*
X26884667Y-15047460D01*
X27043350Y-14850881D01*
X27108492Y-14685019D01*
X27113110Y-14468978D01*
X27015600Y-14241324D01*
X26945468Y-14145249D01*
X26751262Y-13996382D01*
X26526434Y-13943881D01*
X26294471Y-13990329D01*
X26078859Y-14138309D01*
X25986849Y-14239501D01*
X25907963Y-14381542D01*
X25886948Y-14549083D01*
X24080369Y-14549083D01*
X24071994Y-14432946D01*
X24016504Y-14289200D01*
X23888815Y-14138309D01*
X23734868Y-14021376D01*
X23507601Y-13950526D01*
X23281795Y-13978404D01*
X23080638Y-14100785D01*
X22927322Y-14313446D01*
X22878966Y-14442908D01*
X22867493Y-14681419D01*
X21999708Y-14681419D01*
X22005812Y-14488399D01*
X22008483Y-14458427D01*
X22098475Y-14057050D01*
X22278798Y-13703343D01*
X22538322Y-13413906D01*
X22865918Y-13205343D01*
X22933303Y-13178282D01*
X23015757Y-13155419D01*
X23122754Y-13137569D01*
X23266912Y-13124111D01*
X23460854Y-13114425D01*
X23717199Y-13107888D01*
X24048569Y-13103881D01*
X24467584Y-13101783D01*
X24986866Y-13100971D01*
X26880783Y-13099731D01*
X27172763Y-13245231D01*
X27446401Y-13420279D01*
X27702843Y-13689008D01*
X27876924Y-14003474D01*
X27968552Y-14346340D01*
X27971699Y-14468978D01*
X27977635Y-14700268D01*
G37*
G36*
X28984971Y-15123890D02*
G01*
X28974938Y-15454636D01*
X28950567Y-15716116D01*
X28908244Y-15924432D01*
X28844354Y-16095688D01*
X28755284Y-16245986D01*
X28637418Y-16391430D01*
X28487142Y-16548124D01*
X28353822Y-16671145D01*
X27927988Y-16967651D01*
X27415306Y-17207572D01*
X26825952Y-17386723D01*
X26170104Y-17500919D01*
X25939682Y-17521929D01*
X25543682Y-17541521D01*
X25101364Y-17549150D01*
X24651394Y-17544827D01*
X24232441Y-17528561D01*
X23883170Y-17500361D01*
X23462710Y-17440606D01*
X22821010Y-17292799D01*
X22268267Y-17087378D01*
X21807296Y-16825758D01*
X21440913Y-16509350D01*
X21171935Y-16139569D01*
X21004504Y-15837287D01*
X20986536Y-14618538D01*
X20985991Y-14580920D01*
X20984814Y-14465047D01*
X21371393Y-14465047D01*
X21371543Y-14667904D01*
X21374299Y-15068406D01*
X21383356Y-15379783D01*
X21402342Y-15618669D01*
X21434881Y-15801699D01*
X21484599Y-15945508D01*
X21555123Y-16066731D01*
X21650078Y-16182002D01*
X21773091Y-16307957D01*
X21941661Y-16455945D01*
X22341922Y-16710020D01*
X22821691Y-16912030D01*
X23364393Y-17055691D01*
X23953456Y-17134717D01*
X24257754Y-17156204D01*
X24619198Y-17177525D01*
X24920710Y-17188079D01*
X25193130Y-17188285D01*
X25467299Y-17178558D01*
X25774059Y-17159315D01*
X25923364Y-17147195D01*
X26582324Y-17054852D01*
X27159724Y-16906294D01*
X27651220Y-16703645D01*
X28052471Y-16449032D01*
X28359132Y-16144580D01*
X28566862Y-15792414D01*
X28567049Y-15791965D01*
X28603874Y-15639536D01*
X28631236Y-15397937D01*
X28649179Y-15090378D01*
X28657751Y-14740073D01*
X28656996Y-14370234D01*
X28646961Y-14004073D01*
X28627693Y-13664802D01*
X28599236Y-13375635D01*
X28561638Y-13159782D01*
X28385682Y-12651813D01*
X28113133Y-12187059D01*
X27753539Y-11789359D01*
X27311718Y-11463034D01*
X26792486Y-11212406D01*
X26200661Y-11041797D01*
X25893573Y-10994739D01*
X25473368Y-10961354D01*
X25013015Y-10949264D01*
X24550110Y-10958482D01*
X24122245Y-10989022D01*
X23767013Y-11040899D01*
X23704711Y-11054264D01*
X23214292Y-11203951D01*
X22750999Y-11420491D01*
X22336098Y-11690326D01*
X21990850Y-11999896D01*
X21736521Y-12335644D01*
X21660366Y-12469796D01*
X21564173Y-12663144D01*
X21491707Y-12855420D01*
X21439715Y-13065605D01*
X21404942Y-13312681D01*
X21384134Y-13615626D01*
X21374035Y-13993421D01*
X21371393Y-14465047D01*
X20984814Y-14465047D01*
X20981650Y-14153524D01*
X20982893Y-13819081D01*
X20990590Y-13559179D01*
X21005614Y-13355407D01*
X21028835Y-13189353D01*
X21061124Y-13042607D01*
X21208949Y-12605525D01*
X21421740Y-12175378D01*
X21673334Y-11811686D01*
X21871903Y-11574014D01*
X21340254Y-10657650D01*
X21178756Y-10376251D01*
X21012645Y-10074226D01*
X20900089Y-9847341D01*
X20836899Y-9684188D01*
X20818886Y-9573357D01*
X20841862Y-9503441D01*
X20901636Y-9463029D01*
X20922731Y-9455736D01*
X20971409Y-9450850D01*
X21022562Y-9473939D01*
X21085060Y-9536707D01*
X21167772Y-9650855D01*
X21279570Y-9828088D01*
X21429323Y-10080109D01*
X21625901Y-10418620D01*
X21759028Y-10648345D01*
X21904373Y-10897722D01*
X22022104Y-11098101D01*
X22102649Y-11233204D01*
X22136434Y-11286754D01*
X22151506Y-11285903D01*
X22245617Y-11249987D01*
X22404575Y-11176314D01*
X22604757Y-11075540D01*
X22785033Y-10985863D01*
X23157738Y-10830876D01*
X23538305Y-10719572D01*
X23952401Y-10646779D01*
X24425690Y-10607323D01*
X24983837Y-10596033D01*
X25045779Y-10596228D01*
X25539446Y-10606507D01*
X25950192Y-10635740D01*
X26304248Y-10689026D01*
X26627847Y-10771467D01*
X26947218Y-10888164D01*
X27288593Y-11044218D01*
X27453983Y-11123781D01*
X27645978Y-11211096D01*
X27781377Y-11266420D01*
X27838110Y-11280273D01*
X27861761Y-11243645D01*
X27934233Y-11122608D01*
X28045472Y-10933190D01*
X28185868Y-10691771D01*
X28345813Y-10414732D01*
X28472592Y-10196066D01*
X28625664Y-9936691D01*
X28755269Y-9722287D01*
X28850651Y-9570586D01*
X28901052Y-9499324D01*
X28980989Y-9458354D01*
X29098150Y-9478937D01*
X29180437Y-9570126D01*
X29181114Y-9573514D01*
X29156871Y-9653460D01*
X29084344Y-9812543D01*
X28971718Y-10034562D01*
X28827177Y-10303313D01*
X28658904Y-10602596D01*
X28108931Y-11560954D01*
X28379187Y-11920225D01*
X28529065Y-12143376D01*
X28685768Y-12420577D01*
X28803736Y-12675502D01*
X28850178Y-12798175D01*
X28889156Y-12918019D01*
X28918128Y-13041807D01*
X28938992Y-13187696D01*
X28953647Y-13373841D01*
X28963989Y-13618399D01*
X28971916Y-13939526D01*
X28979327Y-14355377D01*
X28984282Y-14707772D01*
X28984335Y-14740073D01*
X28984971Y-15123890D01*
G37*
D12*
%TO.C,J1*%
X38670000Y-62590000D02*
X38670000Y-70330000D01*
X41270000Y-62590000D02*
X38670000Y-62590000D01*
X41270000Y-65190000D02*
X41270000Y-62590000D01*
X43870000Y-62590000D02*
X42540000Y-62590000D01*
X43870000Y-63920000D02*
X43870000Y-62590000D01*
X43870000Y-65190000D02*
X41270000Y-65190000D01*
X43870000Y-65190000D02*
X43870000Y-70330000D01*
X43870000Y-70330000D02*
X38670000Y-70330000D01*
%TO.C,D9*%
X8205995Y-6333453D02*
X3850217Y-1977675D01*
X8205995Y-6333453D02*
X11826381Y-2713066D01*
X9118162Y-5421285D02*
X9118162Y-5421285D01*
X9118162Y-5421285D02*
X12802189Y-9105312D01*
X10914214Y-3625234D02*
X10914214Y-3625234D01*
X10914214Y-3625234D02*
X14598240Y-7309260D01*
X11034422Y-1921107D02*
X11826381Y-2713066D01*
X11317264Y-1638264D02*
X11034422Y-1921107D01*
X11826381Y-2713066D02*
X7470604Y1642711D01*
X11826381Y-2713066D02*
X12109224Y-2430224D01*
X12109224Y-2430224D02*
X11317264Y-1638264D01*
X12802189Y-9105312D02*
X9118162Y-5421285D01*
X12802189Y-9105312D02*
X12802189Y-9105312D01*
X14598240Y-7309260D02*
X10914214Y-3625234D01*
X14598240Y-7309260D02*
X14598240Y-7309260D01*
X3850217Y-1977675D02*
G75*
G02*
X7470603Y1642711I1810193J1810193D01*
G01*
%TO.C,BT1*%
X12595000Y-73600000D02*
X12595000Y-20400000D01*
X12600000Y-20400000D02*
X37400000Y-20400000D01*
X13570000Y-21830000D02*
X13570000Y-24370000D01*
X13570000Y-24370000D02*
X14840000Y-24370000D01*
X13570000Y-37070000D02*
X14840000Y-37070000D01*
X13570000Y-56930000D02*
X13570000Y-37070000D01*
X13570000Y-69630000D02*
X14840000Y-69630000D01*
X13570000Y-72170000D02*
X13570000Y-69630000D01*
X14840000Y-24370000D02*
X14840000Y-37070000D01*
X14840000Y-56930000D02*
X13570000Y-56930000D01*
X14840000Y-69630000D02*
X14840000Y-56930000D01*
X16110000Y-38340000D02*
X16110000Y-56930000D01*
X16110000Y-56930000D02*
X21190000Y-56930000D01*
X17380000Y-37070000D02*
X17380000Y-38340000D01*
X17380000Y-38340000D02*
X16110000Y-38340000D01*
X19920000Y-37070000D02*
X17380000Y-37070000D01*
X19920000Y-38340000D02*
X19920000Y-37070000D01*
X21190000Y-38340000D02*
X19920000Y-38340000D01*
X21190000Y-56930000D02*
X21190000Y-38340000D01*
X24650000Y-42150000D02*
X24650000Y-21830000D01*
X24650000Y-49310000D02*
X24650000Y-72170000D01*
X25350000Y-21830000D02*
X25350000Y-42150000D01*
X25350000Y-42150000D02*
X24650000Y-42150000D01*
X25350000Y-49310000D02*
X24650000Y-49310000D01*
X25350000Y-72170000D02*
X25350000Y-49310000D01*
X28810000Y-37070000D02*
X28810000Y-55660000D01*
X28810000Y-55660000D02*
X30080000Y-55660000D01*
X30080000Y-55660000D02*
X30080000Y-56930000D01*
X30080000Y-56930000D02*
X32620000Y-56930000D01*
X32620000Y-55660000D02*
X33890000Y-55660000D01*
X32620000Y-56930000D02*
X32620000Y-55660000D01*
X33890000Y-37070000D02*
X28810000Y-37070000D01*
X33890000Y-55660000D02*
X33890000Y-37070000D01*
X35160000Y-24370000D02*
X35160000Y-37070000D01*
X35160000Y-37070000D02*
X36430000Y-37070000D01*
X35160000Y-69630000D02*
X35160000Y-56930000D01*
X35160000Y-69630000D02*
X36430000Y-69630000D01*
X36430000Y-21830000D02*
X13570000Y-21830000D01*
X36430000Y-21830000D02*
X36430000Y-24370000D01*
X36430000Y-24370000D02*
X35160000Y-24370000D01*
X36430000Y-37070000D02*
X36430000Y-56930000D01*
X36430000Y-56930000D02*
X35160000Y-56930000D01*
X36430000Y-69630000D02*
X36430000Y-72170000D01*
X36430000Y-72170000D02*
X13570000Y-72170000D01*
X37400000Y-73600000D02*
X12600000Y-73600000D01*
X37405000Y-20400000D02*
X37405000Y-73600000D01*
%TO.C,D11*%
X34967624Y-7440274D02*
X34967624Y-7440274D01*
X34967624Y-7440274D02*
X38651651Y-3756247D01*
X36763676Y-9236325D02*
X36763676Y-9236325D01*
X36763676Y-9236325D02*
X40447702Y-5552299D01*
X37739483Y-2844080D02*
X41359870Y-6464466D01*
X37739483Y-2844080D02*
X42095261Y1511698D01*
X38651651Y-3756247D02*
X34967624Y-7440274D01*
X38651651Y-3756247D02*
X38651651Y-3756247D01*
X40447702Y-5552299D02*
X36763676Y-9236325D01*
X40447702Y-5552299D02*
X40447702Y-5552299D01*
X41359870Y-6464466D02*
X41642712Y-6747309D01*
X41359870Y-6464466D02*
X45715647Y-2108689D01*
X41642712Y-6747309D02*
X42434672Y-5955349D01*
X42151829Y-5672507D02*
X41359870Y-6464466D01*
X42434672Y-5955349D02*
X42151829Y-5672507D01*
X42095261Y1511698D02*
G75*
G02*
X45715647Y-2108688I1810193J-1810193D01*
G01*
%TD*%
%LPC*%
D14*
%TO.C,H1*%
X7100000Y-18000000D03*
X7802944Y-16302944D03*
X7802944Y-19697056D03*
X9500000Y-15600000D03*
D15*
X9500000Y-18000000D03*
D14*
X9500000Y-20400000D03*
X11197056Y-16302944D03*
X11197056Y-19697056D03*
X11900000Y-18000000D03*
%TD*%
%TO.C,H3*%
X6600000Y-76000000D03*
X7302944Y-74302944D03*
X7302944Y-77697056D03*
X9000000Y-73600000D03*
D15*
X9000000Y-76000000D03*
D14*
X9000000Y-78400000D03*
X10697056Y-74302944D03*
X10697056Y-77697056D03*
X11400000Y-76000000D03*
%TD*%
D16*
%TO.C,SW6*%
X40700000Y-57000000D03*
D17*
X40700000Y-54500000D03*
X40700000Y-52000000D03*
X44000000Y-52000000D03*
X44000000Y-54500000D03*
X44000000Y-57000000D03*
%TD*%
D14*
%TO.C,H2*%
X38100000Y-18000000D03*
X38802944Y-16302944D03*
X38802944Y-19697056D03*
X40500000Y-15600000D03*
D15*
X40500000Y-18000000D03*
D14*
X40500000Y-20400000D03*
X42197056Y-16302944D03*
X42197056Y-19697056D03*
X42900000Y-18000000D03*
%TD*%
%TO.C,H4*%
X38600000Y-76000000D03*
X39302944Y-74302944D03*
X39302944Y-77697056D03*
X41000000Y-73600000D03*
D15*
X41000000Y-76000000D03*
D14*
X41000000Y-78400000D03*
X42697056Y-74302944D03*
X42697056Y-77697056D03*
X43400000Y-76000000D03*
%TD*%
D18*
%TO.C,D12*%
X26275000Y-75475000D03*
D19*
X23735000Y-75475000D03*
%TD*%
D18*
%TO.C,D10*%
X23725000Y-6025000D03*
D19*
X26265000Y-6025000D03*
%TD*%
D20*
%TO.C,J1*%
X42540000Y-63920000D03*
D21*
X40000000Y-63920000D03*
X42540000Y-66460000D03*
X40000000Y-66460000D03*
X42540000Y-69000000D03*
X40000000Y-69000000D03*
%TD*%
D22*
%TO.C,D9*%
X13565864Y-9868987D03*
D19*
X15361915Y-8072936D03*
%TD*%
D23*
%TO.C,BT1*%
X22650000Y-32290000D03*
D24*
X30500000Y-71400000D03*
D25*
X19500000Y-71400000D03*
%TD*%
D26*
%TO.C,D11*%
X34203949Y-8203949D03*
D19*
X36000000Y-10000000D03*
%TD*%
%LPD*%
M02*
