%TF.GenerationSoftware,KiCad,Pcbnew,9.0.0*%
%TF.CreationDate,2025-12-02T16:05:52+02:00*%
%TF.ProjectId,Start_Stop_Remote,53746172-745f-4537-946f-705f52656d6f,rev?*%
%TF.SameCoordinates,Original*%
%TF.FileFunction,Copper,L1,Top*%
%TF.FilePolarity,Positive*%
%FSLAX46Y46*%
G04 Gerber Fmt 4.6, Leading zero omitted, Abs format (unit mm)*
G04 Created by KiCad (PCBNEW 9.0.0) date 2025-12-02 16:05:52*
%MOMM*%
%LPD*%
G01*
G04 APERTURE LIST*
G04 Aperture macros list*
%AMRoundRect*
0 Rectangle with rounded corners*
0 $1 Rounding radius*
0 $2 $3 $4 $5 $6 $7 $8 $9 X,Y pos of 4 corners*
0 Add a 4 corners polygon primitive as box body*
4,1,4,$2,$3,$4,$5,$6,$7,$8,$9,$2,$3,0*
0 Add four circle primitives for the rounded corners*
1,1,$1+$1,$2,$3*
1,1,$1+$1,$4,$5*
1,1,$1+$1,$6,$7*
1,1,$1+$1,$8,$9*
0 Add four rect primitives between the rounded corners*
20,1,$1+$1,$2,$3,$4,$5,0*
20,1,$1+$1,$4,$5,$6,$7,0*
20,1,$1+$1,$6,$7,$8,$9,0*
20,1,$1+$1,$8,$9,$2,$3,0*%
%AMRotRect*
0 Rectangle, with rotation*
0 The origin of the aperture is its center*
0 $1 length*
0 $2 width*
0 $3 Rotation angle, in degrees counterclockwise*
0 Add horizontal line*
21,1,$1,$2,0,0,$3*%
G04 Aperture macros list end*
%TA.AperFunction,SMDPad,CuDef*%
%ADD10R,0.750000X1.500000*%
%TD*%
%TA.AperFunction,SMDPad,CuDef*%
%ADD11R,0.900000X0.900000*%
%TD*%
%TA.AperFunction,SMDPad,CuDef*%
%ADD12RoundRect,0.135000X-0.185000X0.135000X-0.185000X-0.135000X0.185000X-0.135000X0.185000X0.135000X0*%
%TD*%
%TA.AperFunction,SMDPad,CuDef*%
%ADD13R,1.000000X0.750000*%
%TD*%
%TA.AperFunction,SMDPad,CuDef*%
%ADD14C,1.000000*%
%TD*%
%TA.AperFunction,SMDPad,CuDef*%
%ADD15RoundRect,0.135000X-0.135000X-0.185000X0.135000X-0.185000X0.135000X0.185000X-0.135000X0.185000X0*%
%TD*%
%TA.AperFunction,SMDPad,CuDef*%
%ADD16RoundRect,0.250000X0.945755X0.362392X0.362392X0.945755X-0.945755X-0.362392X-0.362392X-0.945755X0*%
%TD*%
%TA.AperFunction,ComponentPad*%
%ADD17C,0.800000*%
%TD*%
%TA.AperFunction,ComponentPad*%
%ADD18C,6.400000*%
%TD*%
%TA.AperFunction,SMDPad,CuDef*%
%ADD19RoundRect,0.135000X0.135000X0.185000X-0.135000X0.185000X-0.135000X-0.185000X0.135000X-0.185000X0*%
%TD*%
%TA.AperFunction,SMDPad,CuDef*%
%ADD20RoundRect,0.250000X-0.970000X-0.310000X0.970000X-0.310000X0.970000X0.310000X-0.970000X0.310000X0*%
%TD*%
%TA.AperFunction,SMDPad,CuDef*%
%ADD21RoundRect,0.218750X-0.218750X-0.256250X0.218750X-0.256250X0.218750X0.256250X-0.218750X0.256250X0*%
%TD*%
%TA.AperFunction,ComponentPad*%
%ADD22RoundRect,0.250000X0.450000X-0.450000X0.450000X0.450000X-0.450000X0.450000X-0.450000X-0.450000X0*%
%TD*%
%TA.AperFunction,ComponentPad*%
%ADD23C,1.400000*%
%TD*%
%TA.AperFunction,SMDPad,CuDef*%
%ADD24RoundRect,0.225000X0.335876X0.017678X0.017678X0.335876X-0.335876X-0.017678X-0.017678X-0.335876X0*%
%TD*%
%TA.AperFunction,SMDPad,CuDef*%
%ADD25RotRect,1.500000X0.750000X225.000000*%
%TD*%
%TA.AperFunction,SMDPad,CuDef*%
%ADD26RotRect,0.900000X0.900000X225.000000*%
%TD*%
%TA.AperFunction,SMDPad,CuDef*%
%ADD27RoundRect,0.250000X0.503814X0.132583X0.132583X0.503814X-0.503814X-0.132583X-0.132583X-0.503814X0*%
%TD*%
%TA.AperFunction,SMDPad,CuDef*%
%ADD28RoundRect,0.125000X-0.353553X-0.530330X0.530330X0.353553X0.353553X0.530330X-0.530330X-0.353553X0*%
%TD*%
%TA.AperFunction,SMDPad,CuDef*%
%ADD29RoundRect,0.125000X0.353553X-0.530330X0.530330X-0.353553X-0.353553X0.530330X-0.530330X0.353553X0*%
%TD*%
%TA.AperFunction,SMDPad,CuDef*%
%ADD30RotRect,1.500000X0.750000X315.000000*%
%TD*%
%TA.AperFunction,SMDPad,CuDef*%
%ADD31RotRect,0.900000X0.900000X315.000000*%
%TD*%
%TA.AperFunction,SMDPad,CuDef*%
%ADD32RoundRect,0.250000X0.262500X0.450000X-0.262500X0.450000X-0.262500X-0.450000X0.262500X-0.450000X0*%
%TD*%
%TA.AperFunction,SMDPad,CuDef*%
%ADD33RoundRect,0.250000X-0.132583X0.503814X-0.503814X0.132583X0.132583X-0.503814X0.503814X-0.132583X0*%
%TD*%
%TA.AperFunction,SMDPad,CuDef*%
%ADD34RoundRect,0.225000X0.250000X-0.225000X0.250000X0.225000X-0.250000X0.225000X-0.250000X-0.225000X0*%
%TD*%
%TA.AperFunction,SMDPad,CuDef*%
%ADD35RoundRect,0.150000X0.150000X-0.587500X0.150000X0.587500X-0.150000X0.587500X-0.150000X-0.587500X0*%
%TD*%
%TA.AperFunction,ComponentPad*%
%ADD36R,1.800000X1.800000*%
%TD*%
%TA.AperFunction,ComponentPad*%
%ADD37C,1.800000*%
%TD*%
%TA.AperFunction,ComponentPad*%
%ADD38R,1.700000X1.700000*%
%TD*%
%TA.AperFunction,ComponentPad*%
%ADD39O,1.700000X1.700000*%
%TD*%
%TA.AperFunction,ComponentPad*%
%ADD40RotRect,1.800000X1.800000X45.000000*%
%TD*%
%TA.AperFunction,ComponentPad*%
%ADD41R,2.000000X2.000000*%
%TD*%
%TA.AperFunction,ComponentPad*%
%ADD42C,2.000000*%
%TD*%
%TA.AperFunction,ComponentPad*%
%ADD43RotRect,1.800000X1.800000X315.000000*%
%TD*%
%TA.AperFunction,ViaPad*%
%ADD44C,0.600000*%
%TD*%
%TA.AperFunction,Conductor*%
%ADD45C,0.300000*%
%TD*%
%TA.AperFunction,Conductor*%
%ADD46C,0.500000*%
%TD*%
G04 APERTURE END LIST*
D10*
%TO.P,D2,1,K*%
%TO.N,Net-(D10-K)*%
X23625000Y-1000000D03*
D11*
%TO.P,D2,2,A*%
%TO.N,VCC*%
X25000000Y-1650000D03*
D10*
%TO.P,D2,3*%
%TO.N,N/C*%
X26375000Y-1000000D03*
%TD*%
D12*
%TO.P,R18,1*%
%TO.N,Net-(R18-Pad1)*%
X24000000Y-38490000D03*
%TO.P,R18,2*%
%TO.N,/SW_STOP*%
X24000000Y-39510000D03*
%TD*%
D13*
%TO.P,SW3,1,1*%
%TO.N,Net-(R18-Pad1)*%
X28000000Y-28875000D03*
X22000000Y-28875000D03*
%TO.P,SW3,2,2*%
%TO.N,GND*%
X28000000Y-25125000D03*
X22000000Y-25125000D03*
%TD*%
D14*
%TO.P,TP8,1,1*%
%TO.N,Net-(U1-ADC7)*%
X42500000Y-42500000D03*
%TD*%
D12*
%TO.P,R17,1*%
%TO.N,Net-(R17-Pad1)*%
X31500000Y-41990000D03*
%TO.P,R17,2*%
%TO.N,/SW_START*%
X31500000Y-43010000D03*
%TD*%
D15*
%TO.P,R7,1*%
%TO.N,/PRG_LED*%
X19990000Y-75000000D03*
%TO.P,R7,2*%
%TO.N,Net-(D12-A)*%
X21010000Y-75000000D03*
%TD*%
D14*
%TO.P,TP3,1,1*%
%TO.N,Net-(U1-PD6)*%
X24000000Y-68500000D03*
%TD*%
D16*
%TO.P,C4,1*%
%TO.N,VCC*%
X25587177Y-59087177D03*
%TO.P,C4,2*%
%TO.N,GND*%
X23412823Y-56912823D03*
%TD*%
D17*
%TO.P,H1,1,1*%
%TO.N,GND*%
X7100000Y-18000000D03*
X7802944Y-16302944D03*
X7802944Y-19697056D03*
X9500000Y-15600000D03*
D18*
X9500000Y-18000000D03*
D17*
X9500000Y-20400000D03*
X11197056Y-16302944D03*
X11197056Y-19697056D03*
X11900000Y-18000000D03*
%TD*%
D13*
%TO.P,SW4,1,1*%
%TO.N,Net-(R19-Pad1)*%
X8250000Y-54125000D03*
X14250000Y-54125000D03*
%TO.P,SW4,2,2*%
%TO.N,GND*%
X8250000Y-57875000D03*
X14250000Y-57875000D03*
%TD*%
D10*
%TO.P,D4,1,K*%
%TO.N,GND*%
X26375000Y-79000000D03*
D11*
%TO.P,D4,2,A*%
%TO.N,Net-(D12-A)*%
X25000000Y-78350000D03*
D10*
%TO.P,D4,3*%
%TO.N,N/C*%
X23625000Y-79000000D03*
%TD*%
D19*
%TO.P,R8,1*%
%TO.N,/S_LED1*%
X13010000Y-62495000D03*
%TO.P,R8,2*%
%TO.N,Net-(D5-A)*%
X11990000Y-62495000D03*
%TD*%
D17*
%TO.P,H3,1,1*%
%TO.N,GND*%
X6600000Y-76000000D03*
X7302944Y-74302944D03*
X7302944Y-77697056D03*
X9000000Y-73600000D03*
D18*
X9000000Y-76000000D03*
D17*
X9000000Y-78400000D03*
X10697056Y-74302944D03*
X10697056Y-77697056D03*
X11400000Y-76000000D03*
%TD*%
D16*
%TO.P,C5,1*%
%TO.N,VCC*%
X21587177Y-55087177D03*
%TO.P,C5,2*%
%TO.N,GND*%
X19412823Y-52912823D03*
%TD*%
D20*
%TO.P,SW1,1*%
%TO.N,GND*%
X6890000Y-37380000D03*
%TO.P,SW1,2*%
X6890000Y-39920000D03*
%TO.P,SW1,3*%
X6890000Y-42460000D03*
%TO.P,SW1,4*%
X6890000Y-45000000D03*
%TO.P,SW1,5*%
X6890000Y-47540000D03*
%TO.P,SW1,6*%
%TO.N,Net-(R16-Pad2)*%
X15500000Y-47540000D03*
%TO.P,SW1,7*%
%TO.N,Net-(R15-Pad2)*%
X15500000Y-45000000D03*
%TO.P,SW1,8*%
%TO.N,Net-(R14-Pad2)*%
X15500000Y-42460000D03*
%TO.P,SW1,9*%
%TO.N,Net-(R13-Pad2)*%
X15500000Y-39920000D03*
%TO.P,SW1,10*%
%TO.N,Net-(R12-Pad2)*%
X15500000Y-37380000D03*
%TD*%
D21*
%TO.P,D7,1,K*%
%TO.N,GND*%
X6212500Y-68495000D03*
%TO.P,D7,2,A*%
%TO.N,Net-(D7-A)*%
X7787500Y-68495000D03*
%TD*%
D15*
%TO.P,R19,1*%
%TO.N,Net-(R19-Pad1)*%
X15000000Y-51500000D03*
%TO.P,R19,2*%
%TO.N,/SW_PROG*%
X16020000Y-51500000D03*
%TD*%
D22*
%TO.P,SW6,1,A*%
%TO.N,Net-(BT1-+)*%
X40700000Y-57000000D03*
D23*
%TO.P,SW6,2,B*%
%TO.N,VCC*%
X40700000Y-54500000D03*
%TO.P,SW6,3,C*%
%TO.N,unconnected-(SW6-C-Pad3)*%
X40700000Y-52000000D03*
%TO.P,SW6,4,A*%
%TO.N,unconnected-(SW6-A-Pad4)*%
X44000000Y-52000000D03*
%TO.P,SW6,5,B*%
%TO.N,unconnected-(SW6-B-Pad5)*%
X44000000Y-54500000D03*
%TO.P,SW6,6,C*%
%TO.N,unconnected-(SW6-C-Pad6)*%
X44000000Y-57000000D03*
%TD*%
D15*
%TO.P,R6,1*%
%TO.N,/PRG_LED*%
X19990000Y-76500000D03*
%TO.P,R6,2*%
%TO.N,Net-(D12-A)*%
X21010000Y-76500000D03*
%TD*%
D16*
%TO.P,C3,1*%
%TO.N,VCC*%
X38087177Y-45587177D03*
%TO.P,C3,2*%
%TO.N,GND*%
X35912823Y-43412823D03*
%TD*%
D24*
%TO.P,C2,1*%
%TO.N,VCC*%
X35548008Y-46548008D03*
%TO.P,C2,2*%
%TO.N,GND*%
X34451992Y-45451992D03*
%TD*%
D25*
%TO.P,D3,1,K*%
%TO.N,Net-(D11-K)*%
X37027728Y-5527728D03*
D26*
%TO.P,D3,2,A*%
%TO.N,VCC*%
X37540381Y-6959619D03*
D25*
%TO.P,D3,3*%
%TO.N,N/C*%
X38972272Y-7472272D03*
%TD*%
D19*
%TO.P,R15,1*%
%TO.N,/ADDR_3*%
X20010000Y-44960000D03*
%TO.P,R15,2*%
%TO.N,Net-(R15-Pad2)*%
X18990000Y-44960000D03*
%TD*%
%TO.P,R13,1*%
%TO.N,/ADDR_1*%
X20010000Y-39960000D03*
%TO.P,R13,2*%
%TO.N,Net-(R13-Pad2)*%
X18990000Y-39960000D03*
%TD*%
%TO.P,R10,1*%
%TO.N,/S_LED3*%
X13010000Y-65495000D03*
%TO.P,R10,2*%
%TO.N,Net-(D7-A)*%
X11990000Y-65495000D03*
%TD*%
D14*
%TO.P,TP7,1,1*%
%TO.N,Net-(U1-ADC6)*%
X42500000Y-47500000D03*
%TD*%
D27*
%TO.P,R1,1*%
%TO.N,Net-(Q1-D)*%
X33645235Y-11645235D03*
%TO.P,R1,2*%
%TO.N,Net-(D11-K)*%
X32354765Y-10354765D03*
%TD*%
D14*
%TO.P,TP1,1,1*%
%TO.N,Net-(U1-PD4)*%
X19000000Y-60500000D03*
%TD*%
D28*
%TO.P,U1,1,PD3*%
%TO.N,/PRG_LED*%
X24567930Y-50972272D03*
%TO.P,U1,2,PD4*%
%TO.N,Net-(U1-PD4)*%
X25133616Y-51537957D03*
%TO.P,U1,3,GND*%
%TO.N,GND*%
X25699301Y-52103643D03*
%TO.P,U1,4,VCC*%
%TO.N,VCC*%
X26264986Y-52669328D03*
%TO.P,U1,5,GND*%
%TO.N,GND*%
X26830672Y-53235014D03*
%TO.P,U1,6,VCC*%
%TO.N,VCC*%
X27396357Y-53800699D03*
%TO.P,U1,7,XTAL1/PB6*%
%TO.N,Net-(U1-XTAL1{slash}PB6)*%
X27962043Y-54366384D03*
%TO.P,U1,8,XTAL2/PB7*%
%TO.N,Net-(U1-XTAL2{slash}PB7)*%
X28527728Y-54932070D03*
D29*
%TO.P,U1,9,PD5*%
%TO.N,/CMD_LEDS*%
X30472272Y-54932070D03*
%TO.P,U1,10,PD6*%
%TO.N,Net-(U1-PD6)*%
X31037957Y-54366384D03*
%TO.P,U1,11,PD7*%
%TO.N,Net-(U1-PD7)*%
X31603643Y-53800699D03*
%TO.P,U1,12,PB0*%
%TO.N,/S_LED1*%
X32169328Y-53235014D03*
%TO.P,U1,13,PB1*%
%TO.N,/S_LED2*%
X32735014Y-52669328D03*
%TO.P,U1,14,PB2*%
%TO.N,/S_LED3*%
X33300699Y-52103643D03*
%TO.P,U1,15,PB3*%
%TO.N,/MOSI*%
X33866384Y-51537957D03*
%TO.P,U1,16,PB4*%
%TO.N,/MISO*%
X34432070Y-50972272D03*
D28*
%TO.P,U1,17,PB5*%
%TO.N,/SCK*%
X34432070Y-49027728D03*
%TO.P,U1,18,AVCC*%
%TO.N,VCC*%
X33866384Y-48462043D03*
%TO.P,U1,19,ADC6*%
%TO.N,Net-(U1-ADC6)*%
X33300699Y-47896357D03*
%TO.P,U1,20,AREF*%
%TO.N,Net-(U1-AREF)*%
X32735014Y-47330672D03*
%TO.P,U1,21,GND*%
%TO.N,GND*%
X32169328Y-46764986D03*
%TO.P,U1,22,ADC7*%
%TO.N,Net-(U1-ADC7)*%
X31603643Y-46199301D03*
%TO.P,U1,23,PC0*%
%TO.N,/SW_START*%
X31037957Y-45633616D03*
%TO.P,U1,24,PC1*%
%TO.N,/ADDR_0*%
X30472272Y-45067930D03*
D29*
%TO.P,U1,25,PC2*%
%TO.N,/ADDR_1*%
X28527728Y-45067930D03*
%TO.P,U1,26,PC3*%
%TO.N,/ADDR_2*%
X27962043Y-45633616D03*
%TO.P,U1,27,PC4*%
%TO.N,/ADDR_3*%
X27396357Y-46199301D03*
%TO.P,U1,28,PC5*%
%TO.N,/ADDR_4*%
X26830672Y-46764986D03*
%TO.P,U1,29,~{RESET}/PC6*%
%TO.N,/RESET*%
X26264986Y-47330672D03*
%TO.P,U1,30,PD0*%
%TO.N,Net-(U1-PD0)*%
X25699301Y-47896357D03*
%TO.P,U1,31,PD1*%
%TO.N,/SW_PROG*%
X25133616Y-48462043D03*
%TO.P,U1,32,PD2*%
%TO.N,/SW_STOP*%
X24567930Y-49027728D03*
%TD*%
D30*
%TO.P,D1,1,K*%
%TO.N,Net-(D1-K)*%
X11027728Y-7472272D03*
D31*
%TO.P,D1,2,A*%
%TO.N,VCC*%
X12459619Y-6959619D03*
D30*
%TO.P,D1,3*%
%TO.N,N/C*%
X12972272Y-5527728D03*
%TD*%
D14*
%TO.P,TP2,1,1*%
%TO.N,Net-(U1-PD0)*%
X42500000Y-40000000D03*
%TD*%
D32*
%TO.P,R3,1*%
%TO.N,Net-(Q1-D)*%
X25912500Y-8500000D03*
%TO.P,R3,2*%
%TO.N,Net-(D10-K)*%
X24087500Y-8500000D03*
%TD*%
D15*
%TO.P,R20,1*%
%TO.N,Net-(Q1-G)*%
X12940000Y-31937500D03*
%TO.P,R20,2*%
%TO.N,GND*%
X13960000Y-31937500D03*
%TD*%
D19*
%TO.P,R11,1*%
%TO.N,/MOSI*%
X10505000Y-25000000D03*
%TO.P,R11,2*%
%TO.N,Net-(D8-A)*%
X9485000Y-25000000D03*
%TD*%
D33*
%TO.P,R2,1*%
%TO.N,Net-(Q1-D)*%
X17145235Y-10354765D03*
%TO.P,R2,2*%
%TO.N,Net-(D1-K)*%
X15854765Y-11645235D03*
%TD*%
D34*
%TO.P,C6,1*%
%TO.N,VCC*%
X30000000Y-6775000D03*
%TO.P,C6,2*%
%TO.N,GND*%
X30000000Y-5225000D03*
%TD*%
D19*
%TO.P,R12,1*%
%TO.N,/ADDR_0*%
X20010000Y-37460000D03*
%TO.P,R12,2*%
%TO.N,Net-(R12-Pad2)*%
X18990000Y-37460000D03*
%TD*%
D13*
%TO.P,SW2,1,1*%
%TO.N,Net-(R17-Pad1)*%
X28000000Y-18375000D03*
X22000000Y-18375000D03*
%TO.P,SW2,2,2*%
%TO.N,GND*%
X28000000Y-14625000D03*
X22000000Y-14625000D03*
%TD*%
D19*
%TO.P,R14,1*%
%TO.N,/ADDR_2*%
X20010000Y-42460000D03*
%TO.P,R14,2*%
%TO.N,Net-(R14-Pad2)*%
X18990000Y-42460000D03*
%TD*%
%TO.P,R4,1*%
%TO.N,/CMD_LEDS*%
X13960000Y-32937500D03*
%TO.P,R4,2*%
%TO.N,Net-(Q1-G)*%
X12940000Y-32937500D03*
%TD*%
D12*
%TO.P,R5,1*%
%TO.N,VCC*%
X37000000Y-63990000D03*
%TO.P,R5,2*%
%TO.N,/RESET*%
X37000000Y-65010000D03*
%TD*%
D21*
%TO.P,D8,1,K*%
%TO.N,GND*%
X6207500Y-25000000D03*
%TO.P,D8,2,A*%
%TO.N,Net-(D8-A)*%
X7782500Y-25000000D03*
%TD*%
D17*
%TO.P,H2,1,1*%
%TO.N,GND*%
X38100000Y-18000000D03*
X38802944Y-16302944D03*
X38802944Y-19697056D03*
X40500000Y-15600000D03*
D18*
X40500000Y-18000000D03*
D17*
X40500000Y-20400000D03*
X42197056Y-16302944D03*
X42197056Y-19697056D03*
X42900000Y-18000000D03*
%TD*%
D19*
%TO.P,R9,1*%
%TO.N,/S_LED2*%
X13010000Y-63995000D03*
%TO.P,R9,2*%
%TO.N,Net-(D6-A)*%
X11990000Y-63995000D03*
%TD*%
D24*
%TO.P,C8,1*%
%TO.N,VCC*%
X26548008Y-56048008D03*
%TO.P,C8,2*%
%TO.N,GND*%
X25451992Y-54951992D03*
%TD*%
D14*
%TO.P,TP4,1,1*%
%TO.N,Net-(U1-PD7)*%
X26500000Y-68500000D03*
%TD*%
D21*
%TO.P,D6,1,K*%
%TO.N,GND*%
X6212500Y-65495000D03*
%TO.P,D6,2,A*%
%TO.N,Net-(D6-A)*%
X7787500Y-65495000D03*
%TD*%
D14*
%TO.P,TP9,1,1*%
%TO.N,Net-(U1-AREF)*%
X42500000Y-45000000D03*
%TD*%
D24*
%TO.P,C1,1*%
%TO.N,VCC*%
X24048008Y-53548008D03*
%TO.P,C1,2*%
%TO.N,GND*%
X22951992Y-52451992D03*
%TD*%
D34*
%TO.P,C7,1*%
%TO.N,VCC*%
X20000000Y-6775000D03*
%TO.P,C7,2*%
%TO.N,GND*%
X20000000Y-5225000D03*
%TD*%
D21*
%TO.P,D5,1,K*%
%TO.N,GND*%
X6212500Y-62495000D03*
%TO.P,D5,2,A*%
%TO.N,Net-(D5-A)*%
X7787500Y-62495000D03*
%TD*%
D14*
%TO.P,TP6,1,1*%
%TO.N,Net-(U1-XTAL1{slash}PB6)*%
X19000000Y-63000000D03*
%TD*%
D17*
%TO.P,H4,1,1*%
%TO.N,GND*%
X38600000Y-76000000D03*
X39302944Y-74302944D03*
X39302944Y-77697056D03*
X41000000Y-73600000D03*
D18*
X41000000Y-76000000D03*
D17*
X41000000Y-78400000D03*
X42697056Y-74302944D03*
X42697056Y-77697056D03*
X43400000Y-76000000D03*
%TD*%
D14*
%TO.P,TP5,1,1*%
%TO.N,Net-(U1-XTAL2{slash}PB7)*%
X21000000Y-65000000D03*
%TD*%
D35*
%TO.P,Q1,1,G*%
%TO.N,Net-(Q1-G)*%
X12550000Y-30437500D03*
%TO.P,Q1,2,S*%
%TO.N,GND*%
X14450000Y-30437500D03*
%TO.P,Q1,3,D*%
%TO.N,Net-(Q1-D)*%
X13500000Y-28562500D03*
%TD*%
D19*
%TO.P,R16,1*%
%TO.N,/ADDR_4*%
X20010000Y-47460000D03*
%TO.P,R16,2*%
%TO.N,Net-(R16-Pad2)*%
X18990000Y-47460000D03*
%TD*%
D36*
%TO.P,D12,1,K*%
%TO.N,GND*%
X26275000Y-75475000D03*
D37*
%TO.P,D12,2,A*%
%TO.N,Net-(D12-A)*%
X23735000Y-75475000D03*
%TD*%
D36*
%TO.P,D10,1,K*%
%TO.N,Net-(D10-K)*%
X23725000Y-6025000D03*
D37*
%TO.P,D10,2,A*%
%TO.N,VCC*%
X26265000Y-6025000D03*
%TD*%
D38*
%TO.P,J1,1,MISO*%
%TO.N,/MISO*%
X42540000Y-63920000D03*
D39*
%TO.P,J1,2,VCC*%
%TO.N,VCC*%
X40000000Y-63920000D03*
%TO.P,J1,3,SCK*%
%TO.N,/SCK*%
X42540000Y-66460000D03*
%TO.P,J1,4,MOSI*%
%TO.N,/MOSI*%
X40000000Y-66460000D03*
%TO.P,J1,5,~{RST}*%
%TO.N,/RESET*%
X42540000Y-69000000D03*
%TO.P,J1,6,GND*%
%TO.N,GND*%
X40000000Y-69000000D03*
%TD*%
D40*
%TO.P,D9,1,K*%
%TO.N,Net-(D1-K)*%
X13565864Y-9868987D03*
D37*
%TO.P,D9,2,A*%
%TO.N,VCC*%
X15361915Y-8072936D03*
%TD*%
D41*
%TO.P,BT1,1,+*%
%TO.N,Net-(BT1-+)*%
X30500000Y-71400000D03*
D42*
%TO.P,BT1,2,-*%
%TO.N,GND*%
X19500000Y-71400000D03*
%TD*%
D43*
%TO.P,D11,1,K*%
%TO.N,Net-(D11-K)*%
X34203949Y-8203949D03*
D37*
%TO.P,D11,2,A*%
%TO.N,VCC*%
X36000000Y-10000000D03*
%TD*%
D44*
%TO.N,GND*%
X35800000Y-45094975D03*
X31500000Y-62500000D03*
X27000000Y-11000000D03*
X24000000Y-46500000D03*
X9000000Y-35500000D03*
X28000000Y-77500000D03*
X29500000Y-56000000D03*
X7000000Y-60500000D03*
X25000000Y-16500000D03*
X26000000Y-50000000D03*
X15000000Y-35500000D03*
X18000000Y-65500000D03*
X11500000Y-56000000D03*
X41000000Y-61500000D03*
X36000000Y-49500000D03*
X17500000Y-31500000D03*
X17500000Y-5500000D03*
X33000000Y-5000000D03*
X39500000Y-48500000D03*
X37000000Y-62500000D03*
X19000000Y-3500000D03*
X19000000Y-12000000D03*
X34000000Y-67000000D03*
X9000000Y-49000000D03*
X34500000Y-58500000D03*
X31500000Y-57500000D03*
X27000000Y-39800000D03*
X43500000Y-60000000D03*
X18000000Y-49000000D03*
X27500000Y-4000000D03*
X29500000Y-13500000D03*
X38700000Y-60325007D03*
X38500000Y-54000000D03*
X33500000Y-41000000D03*
X6500000Y-71500000D03*
X37000000Y-58500000D03*
X34000000Y-44000000D03*
X25000000Y-27000000D03*
X18500000Y-56000000D03*
%TO.N,/S_LED1*%
X14000000Y-62495000D03*
X28212132Y-51712132D03*
%TO.N,/S_LED2*%
X29000000Y-51000000D03*
X14000000Y-63495000D03*
%TO.N,/S_LED3*%
X14000000Y-64495000D03*
X30000000Y-50000001D03*
%TO.N,/MOSI*%
X31000000Y-49000000D03*
X35000000Y-54000000D03*
X11500000Y-25000000D03*
%TO.N,/MISO*%
X35800000Y-53000000D03*
%TO.N,/SCK*%
X36500000Y-52000000D03*
%TO.N,/RESET*%
X30500000Y-47000000D03*
X37000000Y-66000000D03*
%TO.N,/CMD_LEDS*%
X29500000Y-42500000D03*
X31750000Y-56250000D03*
%TO.N,/SW_STOP*%
X23750000Y-40750000D03*
X23000000Y-49000000D03*
%TO.N,Net-(U1-PD0)*%
X30500000Y-40000000D03*
X25000000Y-46500000D03*
X41000000Y-40000000D03*
X25000000Y-40500000D03*
%TO.N,Net-(U1-ADC6)*%
X41000000Y-47500000D03*
X34494975Y-46994976D03*
%TO.N,Net-(U1-ADC7)*%
X41000000Y-42500000D03*
X34500000Y-42000000D03*
%TO.N,Net-(U1-AREF)*%
X33500000Y-46500000D03*
X41000000Y-45500000D03*
%TD*%
D45*
%TO.N,GND*%
X26830672Y-53235014D02*
X25451992Y-54613694D01*
X25699301Y-52103643D02*
X25256208Y-52546736D01*
X23046736Y-52546736D02*
X22951992Y-52451992D01*
X34451992Y-45451992D02*
X33482322Y-45451992D01*
X23412823Y-56912823D02*
X23491161Y-56912823D01*
X23491161Y-56912823D02*
X25451992Y-54951992D01*
X19873654Y-52451992D02*
X19412823Y-52912823D01*
X35412823Y-44491161D02*
X34451992Y-45451992D01*
X33482322Y-45451992D02*
X32169328Y-46764986D01*
X22951992Y-52451992D02*
X19873654Y-52451992D01*
X25451992Y-54613694D02*
X25451992Y-54951992D01*
X25256208Y-52546736D02*
X23046736Y-52546736D01*
X35412823Y-43912823D02*
X35412823Y-44491161D01*
%TO.N,Net-(D5-A)*%
X11990000Y-62495000D02*
X7787500Y-62495000D01*
%TO.N,Net-(D6-A)*%
X10500000Y-63995000D02*
X9000000Y-65495000D01*
X11990000Y-63995000D02*
X10500000Y-63995000D01*
X9000000Y-65495000D02*
X7787500Y-65495000D01*
%TO.N,Net-(D7-A)*%
X11990000Y-65495000D02*
X11990000Y-65505000D01*
X11990000Y-65505000D02*
X9000000Y-68495000D01*
X9000000Y-68495000D02*
X7787500Y-68495000D01*
%TO.N,Net-(D8-A)*%
X9485000Y-25000000D02*
X7782500Y-25000000D01*
%TO.N,/PRG_LED*%
X19990000Y-75000000D02*
X19990000Y-74680001D01*
X24095658Y-50500000D02*
X24567930Y-50972272D01*
X15500000Y-57792894D02*
X17000000Y-56292894D01*
X19990000Y-74680001D02*
X15500000Y-70190001D01*
X15500000Y-70190001D02*
X15500000Y-57792894D01*
X19990000Y-75000000D02*
X19990000Y-76500000D01*
X17000000Y-51792893D02*
X18292893Y-50500000D01*
X17000000Y-56292894D02*
X17000000Y-51792893D01*
X18292893Y-50500000D02*
X24095658Y-50500000D01*
%TO.N,/S_LED1*%
X32169328Y-53235014D02*
X30934314Y-52000000D01*
X13010000Y-62495000D02*
X14000000Y-62495000D01*
X28500000Y-52000000D02*
X28212132Y-51712132D01*
X30934314Y-52000000D02*
X28500000Y-52000000D01*
%TO.N,/S_LED2*%
X31065686Y-51000000D02*
X29000000Y-51000000D01*
X32735014Y-52669328D02*
X31065686Y-51000000D01*
X13010000Y-63995000D02*
X13500000Y-63995000D01*
X13500000Y-63995000D02*
X14000000Y-63495000D01*
%TO.N,/S_LED3*%
X31197056Y-50000000D02*
X30000000Y-50000001D01*
X14000000Y-64505000D02*
X14000000Y-64495000D01*
X13010000Y-65495000D02*
X14000000Y-64505000D01*
X33300699Y-52103643D02*
X31197056Y-50000000D01*
%TO.N,/MOSI*%
X10505000Y-25000000D02*
X11500000Y-25000000D01*
X33866384Y-51537957D02*
X35000000Y-52671573D01*
X33866384Y-51537957D02*
X31328427Y-49000000D01*
X35000000Y-52671573D02*
X35000000Y-54000000D01*
X31328427Y-49000000D02*
X31000000Y-49000000D01*
%TO.N,/ADDR_0*%
X27904342Y-42500000D02*
X23000000Y-42500000D01*
X21000000Y-37460000D02*
X20010000Y-37460000D01*
X30472272Y-45067930D02*
X27904342Y-42500000D01*
X23000000Y-42500000D02*
X21000000Y-40500000D01*
X21000000Y-40500000D02*
X21000000Y-37460000D01*
D46*
%TO.N,Net-(R12-Pad2)*%
X15580000Y-37460000D02*
X15500000Y-37380000D01*
X18990000Y-37460000D02*
X15580000Y-37460000D01*
D45*
%TO.N,/ADDR_1*%
X28527728Y-45067930D02*
X26959798Y-43500000D01*
X26959798Y-43500000D02*
X22500000Y-43500000D01*
X20010000Y-41010000D02*
X20010000Y-39960000D01*
X22500000Y-43500000D02*
X20010000Y-41010000D01*
D46*
%TO.N,Net-(R13-Pad2)*%
X18990000Y-39960000D02*
X15540000Y-39960000D01*
X15540000Y-39960000D02*
X15500000Y-39920000D01*
D45*
%TO.N,/ADDR_2*%
X26328427Y-44000000D02*
X21550000Y-44000000D01*
X21550000Y-44000000D02*
X20010000Y-42460000D01*
X27962043Y-45633616D02*
X26328427Y-44000000D01*
%TO.N,/ADDR_3*%
X27396357Y-46199301D02*
X26157056Y-44960000D01*
X26157056Y-44960000D02*
X20010000Y-44960000D01*
D46*
%TO.N,Net-(R14-Pad2)*%
X18990000Y-42460000D02*
X15500000Y-42460000D01*
%TO.N,Net-(R15-Pad2)*%
X15540000Y-44960000D02*
X15500000Y-45000000D01*
X18990000Y-44960000D02*
X15540000Y-44960000D01*
D45*
%TO.N,/ADDR_4*%
X25565686Y-45500000D02*
X26830672Y-46764986D01*
X21970000Y-45500000D02*
X25565686Y-45500000D01*
X20010000Y-47460000D02*
X21970000Y-45500000D01*
D46*
%TO.N,VCC*%
X37540381Y-8459619D02*
X36000000Y-10000000D01*
D45*
X26548008Y-54649048D02*
X26548008Y-56048008D01*
X34633451Y-47694976D02*
X34962808Y-47694976D01*
D46*
X31000000Y-14500000D02*
X32000000Y-13500000D01*
D45*
X21587177Y-55087177D02*
X23126346Y-53548008D01*
X27087022Y-51934314D02*
X27000000Y-51934314D01*
D46*
X20000000Y-6775000D02*
X16659851Y-6775000D01*
X38087177Y-43087177D02*
X31000000Y-36000000D01*
D45*
X42500000Y-56300000D02*
X42500000Y-58500000D01*
X35548008Y-46548008D02*
X37126346Y-46548008D01*
X25386306Y-53548008D02*
X24048008Y-53548008D01*
D46*
X37540381Y-6959619D02*
X37540381Y-8459619D01*
X36000000Y-12000000D02*
X36000000Y-10000000D01*
D45*
X33423291Y-48905136D02*
X33866384Y-48462043D01*
X23126346Y-53548008D02*
X24048008Y-53548008D01*
X37070000Y-63920000D02*
X37000000Y-63990000D01*
D46*
X38087177Y-51887177D02*
X38087177Y-43087177D01*
D45*
X40000000Y-61000000D02*
X40000000Y-63920000D01*
X42500000Y-58500000D02*
X40000000Y-61000000D01*
X26548008Y-58126346D02*
X25587177Y-59087177D01*
D46*
X34500000Y-13500000D02*
X36000000Y-12000000D01*
X25000000Y-3500000D02*
X26265000Y-4765000D01*
X16659851Y-6775000D02*
X15361915Y-8072936D01*
X13000000Y-7500000D02*
X14788979Y-7500000D01*
D45*
X33866384Y-48462043D02*
X34633451Y-47694976D01*
X27000000Y-51934314D02*
X27000000Y-50500000D01*
X27839451Y-53357605D02*
X27839451Y-52686743D01*
X27839451Y-52686743D02*
X27087022Y-51934314D01*
X29500000Y-48000000D02*
X31500000Y-48000000D01*
D46*
X12459619Y-6959619D02*
X13000000Y-7500000D01*
X25000000Y-1650000D02*
X25000000Y-3500000D01*
X29250000Y-6025000D02*
X30000000Y-6775000D01*
D45*
X27000000Y-50500000D02*
X29500000Y-48000000D01*
D46*
X31000000Y-36000000D02*
X31000000Y-14500000D01*
X14788979Y-7500000D02*
X15361915Y-8072936D01*
D45*
X27396357Y-53800699D02*
X26548008Y-54649048D01*
X34962808Y-47694976D02*
X35548008Y-47109776D01*
D46*
X26265000Y-6025000D02*
X29250000Y-6025000D01*
X26265000Y-4765000D02*
X26265000Y-6025000D01*
D45*
X27396357Y-53800699D02*
X27839451Y-53357605D01*
X32405136Y-48905136D02*
X33423291Y-48905136D01*
D46*
X32000000Y-13500000D02*
X34500000Y-13500000D01*
D45*
X40700000Y-54500000D02*
X42500000Y-56300000D01*
X26264986Y-52669328D02*
X27000000Y-51934314D01*
X37126346Y-46548008D02*
X38087177Y-45587177D01*
X26264986Y-52669328D02*
X25386306Y-53548008D01*
X31500000Y-48000000D02*
X32405136Y-48905136D01*
X26548008Y-56048008D02*
X26548008Y-58126346D01*
X35548008Y-47109776D02*
X35548008Y-46548008D01*
X40000000Y-63920000D02*
X37070000Y-63920000D01*
D46*
X40700000Y-54500000D02*
X38087177Y-51887177D01*
%TO.N,Net-(D1-K)*%
X15342112Y-11645235D02*
X13565864Y-9868987D01*
X15854765Y-11645235D02*
X15342112Y-11645235D01*
X13565864Y-9868987D02*
X13424443Y-9868987D01*
X13424443Y-9868987D02*
X11027728Y-7472272D01*
D45*
%TO.N,/MISO*%
X34432070Y-50972272D02*
X36000000Y-52540202D01*
X36000000Y-52800000D02*
X35800000Y-53000000D01*
X36000000Y-52540202D02*
X36000000Y-52800000D01*
%TO.N,/SCK*%
X34432070Y-49932070D02*
X36500000Y-52000000D01*
X34432070Y-49027728D02*
X34432070Y-49932070D01*
%TO.N,/RESET*%
X30000000Y-47500000D02*
X30500000Y-47000000D01*
X37000000Y-65010000D02*
X37000000Y-66000000D01*
X28226235Y-47773765D02*
X28500000Y-47500000D01*
X26708079Y-47773765D02*
X28226235Y-47773765D01*
X28500000Y-47500000D02*
X30000000Y-47500000D01*
X26264986Y-47330672D02*
X26708079Y-47773765D01*
D46*
%TO.N,Net-(Q1-D)*%
X17145235Y-10354765D02*
X25645235Y-10354765D01*
X17500000Y-24000000D02*
X17500000Y-10709530D01*
X26500000Y-8500000D02*
X25912500Y-8500000D01*
X32790470Y-12500000D02*
X30500000Y-12500000D01*
X25912500Y-10087500D02*
X25912500Y-8500000D01*
X17500000Y-10709530D02*
X17145235Y-10354765D01*
X13500000Y-28000000D02*
X17500000Y-24000000D01*
X25645235Y-10354765D02*
X25912500Y-10087500D01*
X30500000Y-12500000D02*
X26500000Y-8500000D01*
X13500000Y-28562500D02*
X13500000Y-28000000D01*
X33645235Y-11645235D02*
X32790470Y-12500000D01*
D45*
%TO.N,Net-(Q1-G)*%
X12550000Y-31547500D02*
X12940000Y-31937500D01*
X12550000Y-30437500D02*
X12550000Y-31547500D01*
X12940000Y-32937500D02*
X12940000Y-31937500D01*
%TO.N,/CMD_LEDS*%
X30472272Y-54972272D02*
X31750000Y-56250000D01*
X18000000Y-32937500D02*
X13960000Y-32937500D01*
X22000000Y-37000000D02*
X18000000Y-33000000D01*
X28500000Y-41500000D02*
X23500000Y-41500000D01*
X22000000Y-40000000D02*
X22000000Y-37000000D01*
X23500000Y-41500000D02*
X22000000Y-40000000D01*
X18000000Y-33000000D02*
X18000000Y-32937500D01*
X29500000Y-42500000D02*
X28500000Y-41500000D01*
X30472272Y-54932070D02*
X30472272Y-54972272D01*
D46*
%TO.N,Net-(R16-Pad2)*%
X15580000Y-47460000D02*
X15500000Y-47540000D01*
X18990000Y-47460000D02*
X15580000Y-47460000D01*
D45*
%TO.N,/SW_START*%
X31481051Y-45190522D02*
X31481051Y-43028949D01*
X31481051Y-43028949D02*
X31500000Y-43010000D01*
X31037957Y-45633616D02*
X31481051Y-45190522D01*
%TO.N,Net-(R17-Pad1)*%
X31500000Y-38000000D02*
X30000000Y-36500000D01*
X30000000Y-20375000D02*
X28000000Y-18375000D01*
X28000000Y-18375000D02*
X22000000Y-18375000D01*
X31500000Y-41990000D02*
X31500000Y-38000000D01*
X30000000Y-36500000D02*
X30000000Y-20375000D01*
%TO.N,/SW_STOP*%
X23750000Y-40750000D02*
X23750000Y-39760000D01*
X23027728Y-49027728D02*
X23000000Y-49000000D01*
X23750000Y-39760000D02*
X24000000Y-39510000D01*
X24567930Y-49027728D02*
X23027728Y-49027728D01*
D46*
%TO.N,Net-(R18-Pad1)*%
X28000000Y-28875000D02*
X22000000Y-28875000D01*
D45*
X19000000Y-33000000D02*
X19000000Y-31000000D01*
X21125000Y-28875000D02*
X22000000Y-28875000D01*
X19000000Y-31000000D02*
X21125000Y-28875000D01*
X24000000Y-38490000D02*
X24000000Y-38000000D01*
X24000000Y-38000000D02*
X19000000Y-33000000D01*
%TO.N,/SW_PROG*%
X22500000Y-47500000D02*
X19999999Y-50000001D01*
X19999999Y-50000001D02*
X17200001Y-50000000D01*
X17200001Y-50000000D02*
X16020000Y-51180001D01*
X16020000Y-51180001D02*
X16020000Y-51500000D01*
X25133616Y-48462043D02*
X24171573Y-47500000D01*
X24171573Y-47500000D02*
X22500000Y-47500000D01*
%TO.N,Net-(R19-Pad1)*%
X15000000Y-53375000D02*
X14250000Y-54125000D01*
X15000000Y-51500000D02*
X15000000Y-53375000D01*
D46*
%TO.N,Net-(BT1-+)*%
X30500000Y-71400000D02*
X30500000Y-67200000D01*
X30500000Y-67200000D02*
X40700000Y-57000000D01*
%TO.N,Net-(D10-K)*%
X23625000Y-5925000D02*
X23725000Y-6025000D01*
X24087500Y-8500000D02*
X24087500Y-6387500D01*
X23625000Y-1000000D02*
X23625000Y-5925000D01*
X24087500Y-6387500D02*
X23725000Y-6025000D01*
%TO.N,Net-(D11-K)*%
X34203949Y-8203949D02*
X34351507Y-8203949D01*
X32354765Y-10354765D02*
X32354765Y-10053133D01*
X32354765Y-10053133D02*
X34203949Y-8203949D01*
X34351507Y-8203949D02*
X37027728Y-5527728D01*
D45*
%TO.N,Net-(D12-A)*%
X23735000Y-76735000D02*
X23735000Y-75475000D01*
X25000000Y-78000000D02*
X23735000Y-76735000D01*
X21010000Y-76500000D02*
X21010000Y-75000000D01*
X21010000Y-75000000D02*
X23260000Y-75000000D01*
X23260000Y-75000000D02*
X23735000Y-75475000D01*
X25000000Y-78350000D02*
X25000000Y-78000000D01*
%TO.N,Net-(U1-PD4)*%
X23000000Y-51000000D02*
X19000000Y-51000000D01*
X19000000Y-51000000D02*
X17500000Y-52500000D01*
X25133616Y-51537957D02*
X24690522Y-51981051D01*
X17500000Y-59000000D02*
X19000000Y-60500000D01*
X17500000Y-52500000D02*
X17500000Y-59000000D01*
X24690522Y-51981051D02*
X23981051Y-51981051D01*
X23981051Y-51981051D02*
X23000000Y-51000000D01*
%TO.N,Net-(U1-PD0)*%
X41000000Y-40000000D02*
X42500000Y-40000000D01*
X25699301Y-47896357D02*
X25000000Y-47197056D01*
X30000000Y-40500000D02*
X30500000Y-40000000D01*
X25000000Y-47197056D02*
X25000000Y-46500000D01*
X25000000Y-40500000D02*
X30000000Y-40500000D01*
%TO.N,Net-(U1-PD6)*%
X25500000Y-67000000D02*
X24000000Y-68500000D01*
X31037957Y-54366384D02*
X32500000Y-55828427D01*
X32500000Y-55828427D02*
X32500000Y-63000000D01*
X28500000Y-67000000D02*
X25500000Y-67000000D01*
X32500000Y-63000000D02*
X28500000Y-67000000D01*
%TO.N,Net-(U1-PD7)*%
X33000000Y-63207106D02*
X27707106Y-68500000D01*
X31603643Y-53800699D02*
X33000000Y-55197056D01*
X27707106Y-68500000D02*
X26500000Y-68500000D01*
X33000000Y-55197056D02*
X33000000Y-63207106D01*
%TO.N,Net-(U1-XTAL2{slash}PB7)*%
X28527728Y-56527728D02*
X28527728Y-54932070D01*
X21000000Y-65000000D02*
X21500000Y-65500000D01*
X30500000Y-58500000D02*
X28527728Y-56527728D01*
X21500000Y-65500000D02*
X28207107Y-65500000D01*
X30500000Y-63207107D02*
X30500000Y-58500000D01*
X28207107Y-65500000D02*
X30500000Y-63207107D01*
%TO.N,Net-(U1-XTAL1{slash}PB6)*%
X27500000Y-56207106D02*
X30000000Y-58707106D01*
X30000000Y-58707106D02*
X30000000Y-63000000D01*
X22500000Y-63000000D02*
X19000000Y-63000000D01*
X27500000Y-54828427D02*
X27500000Y-56207106D01*
X30000000Y-63000000D02*
X28000000Y-65000000D01*
X28000000Y-65000000D02*
X24500000Y-65000000D01*
X24500000Y-65000000D02*
X22500000Y-63000000D01*
X27962043Y-54366384D02*
X27500000Y-54828427D01*
%TO.N,Net-(U1-ADC6)*%
X42500000Y-47500000D02*
X41792894Y-47500000D01*
X41792894Y-47500000D02*
X41000000Y-47500000D01*
X33300699Y-47896357D02*
X34277817Y-46919239D01*
X34419238Y-46919239D02*
X34494975Y-46994976D01*
X34277817Y-46919239D02*
X34419238Y-46919239D01*
%TO.N,Net-(U1-ADC7)*%
X32500000Y-44000000D02*
X34500000Y-42000000D01*
X31603643Y-46199301D02*
X32500000Y-45302944D01*
X41000000Y-42500000D02*
X42500000Y-42500000D01*
X32500000Y-45302944D02*
X32500000Y-44000000D01*
%TO.N,Net-(U1-AREF)*%
X32735014Y-47264986D02*
X33500000Y-46500000D01*
X32735014Y-47330672D02*
X32735014Y-47264986D01*
X41000000Y-45500000D02*
X42000000Y-45500000D01*
X42000000Y-45500000D02*
X42500000Y-45000000D01*
%TD*%
%TA.AperFunction,Conductor*%
%TO.N,GND*%
G36*
X10055897Y-7754430D02*
G01*
X10100244Y-7782931D01*
X10972837Y-8655524D01*
X11019520Y-8693144D01*
X11150436Y-8752932D01*
X11222386Y-8763276D01*
X11285942Y-8792300D01*
X11292421Y-8798333D01*
X11888004Y-9393916D01*
X11921489Y-9455239D01*
X11916505Y-9524931D01*
X11896876Y-9559401D01*
X11867696Y-9595611D01*
X11867693Y-9595617D01*
X11807906Y-9726530D01*
X11787425Y-9868987D01*
X11807906Y-10011443D01*
X11867693Y-10142357D01*
X11867694Y-10142358D01*
X11867695Y-10142360D01*
X11905314Y-10189043D01*
X11905317Y-10189046D01*
X11905322Y-10189052D01*
X12920307Y-11204035D01*
X13245808Y-11529536D01*
X13292491Y-11567156D01*
X13423407Y-11626944D01*
X13423406Y-11626944D01*
X13441313Y-11629518D01*
X13565864Y-11647426D01*
X13708321Y-11626944D01*
X13839237Y-11567156D01*
X13885920Y-11529537D01*
X13937803Y-11477652D01*
X13999122Y-11444169D01*
X14068813Y-11449152D01*
X14113163Y-11477654D01*
X14863696Y-12228187D01*
X14886423Y-12243372D01*
X14930972Y-12273139D01*
X14930973Y-12273139D01*
X14986617Y-12310319D01*
X15059261Y-12340409D01*
X15128828Y-12369225D01*
X15128469Y-12370089D01*
X15174771Y-12397838D01*
X15492026Y-12715093D01*
X15492034Y-12715099D01*
X15492039Y-12715104D01*
X15572125Y-12780345D01*
X15572128Y-12780347D01*
X15572133Y-12780351D01*
X15728914Y-12859088D01*
X15728916Y-12859089D01*
X15871459Y-12892873D01*
X15899627Y-12899549D01*
X15899630Y-12899549D01*
X16075065Y-12899549D01*
X16075068Y-12899549D01*
X16167466Y-12877649D01*
X16245778Y-12859089D01*
X16245779Y-12859088D01*
X16245781Y-12859088D01*
X16402562Y-12780351D01*
X16482669Y-12715094D01*
X16537819Y-12659943D01*
X16599141Y-12626458D01*
X16668833Y-12631442D01*
X16724766Y-12673313D01*
X16749184Y-12738777D01*
X16749500Y-12747624D01*
X16749500Y-23637769D01*
X16729815Y-23704808D01*
X16713181Y-23725450D01*
X13041390Y-27397240D01*
X13016832Y-27416290D01*
X12948132Y-27456920D01*
X12948132Y-27456921D01*
X12831923Y-27573129D01*
X12831917Y-27573137D01*
X12748255Y-27714603D01*
X12748254Y-27714606D01*
X12702402Y-27872426D01*
X12702401Y-27872432D01*
X12699500Y-27909298D01*
X12699500Y-29075500D01*
X12679815Y-29142539D01*
X12627011Y-29188294D01*
X12575500Y-29199500D01*
X12334298Y-29199500D01*
X12297432Y-29202401D01*
X12297426Y-29202402D01*
X12139606Y-29248254D01*
X12139603Y-29248255D01*
X11998137Y-29331917D01*
X11998129Y-29331923D01*
X11881923Y-29448129D01*
X11881917Y-29448137D01*
X11798255Y-29589603D01*
X11798254Y-29589606D01*
X11752402Y-29747426D01*
X11752401Y-29747432D01*
X11749500Y-29784298D01*
X11749500Y-31090701D01*
X11752401Y-31127567D01*
X11752402Y-31127573D01*
X11798254Y-31285393D01*
X11798255Y-31285396D01*
X11798256Y-31285398D01*
X11874538Y-31414384D01*
X11882232Y-31427394D01*
X11899500Y-31490515D01*
X11899500Y-31611569D01*
X11899500Y-31611571D01*
X11899499Y-31611571D01*
X11924497Y-31737238D01*
X11924499Y-31737244D01*
X11973535Y-31855627D01*
X12044723Y-31962169D01*
X12133182Y-32050628D01*
X12166666Y-32111949D01*
X12169500Y-32138306D01*
X12169500Y-32186668D01*
X12169501Y-32186692D01*
X12172335Y-32222705D01*
X12217129Y-32376888D01*
X12220230Y-32384054D01*
X12218313Y-32384883D01*
X12232825Y-32442126D01*
X12218686Y-32490277D01*
X12220230Y-32490946D01*
X12217129Y-32498111D01*
X12172335Y-32652291D01*
X12172334Y-32652297D01*
X12169500Y-32688311D01*
X12169500Y-33186669D01*
X12169501Y-33186691D01*
X12172335Y-33222705D01*
X12217129Y-33376888D01*
X12217131Y-33376893D01*
X12298863Y-33515095D01*
X12298869Y-33515103D01*
X12412396Y-33628630D01*
X12412400Y-33628633D01*
X12412402Y-33628635D01*
X12550607Y-33710369D01*
X12550614Y-33710371D01*
X12704791Y-33755164D01*
X12704794Y-33755164D01*
X12704796Y-33755165D01*
X12740819Y-33758000D01*
X13139180Y-33757999D01*
X13175204Y-33755165D01*
X13329393Y-33710369D01*
X13386882Y-33676369D01*
X13454602Y-33659188D01*
X13513117Y-33676369D01*
X13570607Y-33710369D01*
X13570610Y-33710369D01*
X13570612Y-33710371D01*
X13724791Y-33755164D01*
X13724794Y-33755164D01*
X13724796Y-33755165D01*
X13760819Y-33758000D01*
X14159180Y-33757999D01*
X14195204Y-33755165D01*
X14349393Y-33710369D01*
X14487598Y-33628635D01*
X14487603Y-33628630D01*
X14491915Y-33624319D01*
X14553238Y-33590834D01*
X14579596Y-33588000D01*
X17616692Y-33588000D01*
X17683731Y-33607685D01*
X17704373Y-33624319D01*
X20605449Y-36525395D01*
X20638934Y-36586718D01*
X20633950Y-36656410D01*
X20592078Y-36712343D01*
X20526614Y-36736760D01*
X20458341Y-36721908D01*
X20454647Y-36719808D01*
X20399394Y-36687131D01*
X20399388Y-36687129D01*
X20245208Y-36642335D01*
X20245202Y-36642334D01*
X20209181Y-36639500D01*
X19810830Y-36639500D01*
X19810808Y-36639501D01*
X19774794Y-36642335D01*
X19620611Y-36687129D01*
X19620604Y-36687132D01*
X19563119Y-36721128D01*
X19495395Y-36738309D01*
X19436881Y-36721128D01*
X19379395Y-36687132D01*
X19379388Y-36687129D01*
X19225208Y-36642335D01*
X19225202Y-36642334D01*
X19189181Y-36639500D01*
X18790830Y-36639500D01*
X18790808Y-36639501D01*
X18754794Y-36642335D01*
X18600611Y-36687129D01*
X18600606Y-36687131D01*
X18591982Y-36692232D01*
X18528861Y-36709500D01*
X17198630Y-36709500D01*
X17131591Y-36689815D01*
X17093091Y-36650597D01*
X17087995Y-36642335D01*
X17062712Y-36601344D01*
X16938656Y-36477288D01*
X16789334Y-36385186D01*
X16622797Y-36330001D01*
X16622795Y-36330000D01*
X16520010Y-36319500D01*
X14479998Y-36319500D01*
X14479981Y-36319501D01*
X14377203Y-36330000D01*
X14377200Y-36330001D01*
X14210668Y-36385185D01*
X14210663Y-36385187D01*
X14061342Y-36477289D01*
X13937289Y-36601342D01*
X13845187Y-36750663D01*
X13845186Y-36750666D01*
X13790001Y-36917203D01*
X13790001Y-36917204D01*
X13790000Y-36917204D01*
X13779500Y-37019983D01*
X13779500Y-37740001D01*
X13779501Y-37740019D01*
X13790000Y-37842796D01*
X13790001Y-37842799D01*
X13829634Y-37962402D01*
X13845186Y-38009334D01*
X13937288Y-38158656D01*
X14061344Y-38282712D01*
X14210666Y-38374814D01*
X14377203Y-38429999D01*
X14479991Y-38440500D01*
X16520008Y-38440499D01*
X16622797Y-38429999D01*
X16789334Y-38374814D01*
X16938656Y-38282712D01*
X16974549Y-38246819D01*
X17035872Y-38213334D01*
X17062230Y-38210500D01*
X18528861Y-38210500D01*
X18591981Y-38227767D01*
X18600607Y-38232869D01*
X18641268Y-38244682D01*
X18754791Y-38277664D01*
X18754794Y-38277664D01*
X18754796Y-38277665D01*
X18790819Y-38280500D01*
X19189180Y-38280499D01*
X19225204Y-38277665D01*
X19379393Y-38232869D01*
X19436882Y-38198869D01*
X19504602Y-38181688D01*
X19563117Y-38198869D01*
X19620607Y-38232869D01*
X19620610Y-38232869D01*
X19620612Y-38232871D01*
X19774791Y-38277664D01*
X19774794Y-38277664D01*
X19774796Y-38277665D01*
X19810819Y-38280500D01*
X20209180Y-38280499D01*
X20215772Y-38279980D01*
X20284148Y-38294344D01*
X20333905Y-38343395D01*
X20349500Y-38403598D01*
X20349500Y-39016400D01*
X20329815Y-39083439D01*
X20277011Y-39129194D01*
X20215781Y-39140019D01*
X20210984Y-39139641D01*
X20209181Y-39139500D01*
X20209179Y-39139500D01*
X19810830Y-39139500D01*
X19810808Y-39139501D01*
X19774794Y-39142335D01*
X19620611Y-39187129D01*
X19620604Y-39187132D01*
X19563119Y-39221128D01*
X19495395Y-39238309D01*
X19436881Y-39221128D01*
X19379395Y-39187132D01*
X19379388Y-39187129D01*
X19225208Y-39142335D01*
X19225202Y-39142334D01*
X19189181Y-39139500D01*
X18790830Y-39139500D01*
X18790808Y-39139501D01*
X18754794Y-39142335D01*
X18600611Y-39187129D01*
X18600606Y-39187131D01*
X18591982Y-39192232D01*
X18528861Y-39209500D01*
X17173958Y-39209500D01*
X17106919Y-39189815D01*
X17068420Y-39150598D01*
X17062712Y-39141344D01*
X16938657Y-39017289D01*
X16938656Y-39017288D01*
X16789334Y-38925186D01*
X16622797Y-38870001D01*
X16622795Y-38870000D01*
X16520010Y-38859500D01*
X14479998Y-38859500D01*
X14479981Y-38859501D01*
X14377203Y-38870000D01*
X14377200Y-38870001D01*
X14210668Y-38925185D01*
X14210663Y-38925187D01*
X14061342Y-39017289D01*
X13937289Y-39141342D01*
X13845187Y-39290663D01*
X13845185Y-39290668D01*
X13826629Y-39346666D01*
X13790001Y-39457203D01*
X13790001Y-39457204D01*
X13790000Y-39457204D01*
X13779500Y-39559983D01*
X13779500Y-40280001D01*
X13779501Y-40280019D01*
X13790000Y-40382796D01*
X13790001Y-40382799D01*
X13820192Y-40473907D01*
X13845186Y-40549334D01*
X13937288Y-40698656D01*
X14061344Y-40822712D01*
X14210666Y-40914814D01*
X14377203Y-40969999D01*
X14479991Y-40980500D01*
X16520008Y-40980499D01*
X16622797Y-40969999D01*
X16789334Y-40914814D01*
X16938656Y-40822712D01*
X17014549Y-40746819D01*
X17075872Y-40713334D01*
X17102230Y-40710500D01*
X18528861Y-40710500D01*
X18591981Y-40727767D01*
X18600607Y-40732869D01*
X18641268Y-40744682D01*
X18754791Y-40777664D01*
X18754794Y-40777664D01*
X18754796Y-40777665D01*
X18790819Y-40780500D01*
X19189180Y-40780499D01*
X19225204Y-40777665D01*
X19225204Y-40777664D01*
X19225774Y-40777620D01*
X19294151Y-40791986D01*
X19343907Y-40841038D01*
X19359500Y-40901238D01*
X19359500Y-41074071D01*
X19374766Y-41150816D01*
X19377522Y-41164669D01*
X19384499Y-41199744D01*
X19433535Y-41318127D01*
X19504723Y-41424669D01*
X19599676Y-41519622D01*
X19611358Y-41541016D01*
X19626623Y-41560015D01*
X19627801Y-41571130D01*
X19633160Y-41580943D01*
X19631421Y-41605256D01*
X19633992Y-41629495D01*
X19628973Y-41639484D01*
X19628176Y-41650635D01*
X19613569Y-41670147D01*
X19602627Y-41691929D01*
X19589170Y-41702740D01*
X19586305Y-41706569D01*
X19575114Y-41714035D01*
X19563120Y-41721128D01*
X19495395Y-41738309D01*
X19436881Y-41721128D01*
X19379395Y-41687132D01*
X19379388Y-41687129D01*
X19225208Y-41642335D01*
X19225202Y-41642334D01*
X19189181Y-41639500D01*
X18790830Y-41639500D01*
X18790808Y-41639501D01*
X18754794Y-41642335D01*
X18600611Y-41687129D01*
X18600606Y-41687131D01*
X18591982Y-41692232D01*
X18528861Y-41709500D01*
X17142230Y-41709500D01*
X17075191Y-41689815D01*
X17054549Y-41673181D01*
X16938657Y-41557289D01*
X16938656Y-41557288D01*
X16789334Y-41465186D01*
X16622797Y-41410001D01*
X16622795Y-41410000D01*
X16520010Y-41399500D01*
X14479998Y-41399500D01*
X14479981Y-41399501D01*
X14377203Y-41410000D01*
X14377200Y-41410001D01*
X14210668Y-41465185D01*
X14210663Y-41465187D01*
X14061342Y-41557289D01*
X13937289Y-41681342D01*
X13845187Y-41830663D01*
X13845185Y-41830668D01*
X13829431Y-41878210D01*
X13790001Y-41997203D01*
X13790001Y-41997204D01*
X13790000Y-41997204D01*
X13779500Y-42099983D01*
X13779500Y-42820001D01*
X13779501Y-42820019D01*
X13790000Y-42922796D01*
X13790001Y-42922799D01*
X13818993Y-43010289D01*
X13845186Y-43089334D01*
X13937288Y-43238656D01*
X14061344Y-43362712D01*
X14210666Y-43454814D01*
X14377203Y-43509999D01*
X14479991Y-43520500D01*
X16520008Y-43520499D01*
X16622797Y-43509999D01*
X16789334Y-43454814D01*
X16938656Y-43362712D01*
X17054549Y-43246819D01*
X17115872Y-43213334D01*
X17142230Y-43210500D01*
X18528861Y-43210500D01*
X18591981Y-43227767D01*
X18600607Y-43232869D01*
X18623665Y-43239568D01*
X18754791Y-43277664D01*
X18754794Y-43277664D01*
X18754796Y-43277665D01*
X18790819Y-43280500D01*
X19189180Y-43280499D01*
X19225204Y-43277665D01*
X19379393Y-43232869D01*
X19436882Y-43198869D01*
X19504602Y-43181688D01*
X19563117Y-43198869D01*
X19620607Y-43232869D01*
X19620610Y-43232869D01*
X19620612Y-43232871D01*
X19774791Y-43277664D01*
X19774794Y-43277664D01*
X19774796Y-43277665D01*
X19810819Y-43280500D01*
X19859190Y-43280499D01*
X19926228Y-43300182D01*
X19946872Y-43316818D01*
X20727873Y-44097819D01*
X20738485Y-44117255D01*
X20752986Y-44133989D01*
X20754902Y-44147320D01*
X20761358Y-44159142D01*
X20759778Y-44181228D01*
X20762930Y-44203147D01*
X20757334Y-44215398D01*
X20756374Y-44228834D01*
X20743103Y-44246560D01*
X20733905Y-44266703D01*
X20722573Y-44273985D01*
X20714502Y-44284767D01*
X20693756Y-44292504D01*
X20675127Y-44304477D01*
X20653208Y-44307628D01*
X20649038Y-44309184D01*
X20640192Y-44309500D01*
X20629596Y-44309500D01*
X20562557Y-44289815D01*
X20541915Y-44273181D01*
X20537603Y-44268869D01*
X20537595Y-44268863D01*
X20399393Y-44187131D01*
X20399388Y-44187129D01*
X20245208Y-44142335D01*
X20245202Y-44142334D01*
X20209181Y-44139500D01*
X19810830Y-44139500D01*
X19810808Y-44139501D01*
X19774794Y-44142335D01*
X19620611Y-44187129D01*
X19620604Y-44187132D01*
X19563119Y-44221128D01*
X19495395Y-44238309D01*
X19436881Y-44221128D01*
X19379395Y-44187132D01*
X19379388Y-44187129D01*
X19225208Y-44142335D01*
X19225202Y-44142334D01*
X19189181Y-44139500D01*
X18790830Y-44139500D01*
X18790808Y-44139501D01*
X18754794Y-44142335D01*
X18600611Y-44187129D01*
X18600606Y-44187131D01*
X18591982Y-44192232D01*
X18528861Y-44209500D01*
X17102230Y-44209500D01*
X17035191Y-44189815D01*
X17014549Y-44173181D01*
X16938657Y-44097289D01*
X16938656Y-44097288D01*
X16825573Y-44027538D01*
X16789336Y-44005187D01*
X16789331Y-44005185D01*
X16768825Y-43998390D01*
X16622797Y-43950001D01*
X16622795Y-43950000D01*
X16520010Y-43939500D01*
X14479998Y-43939500D01*
X14479981Y-43939501D01*
X14377203Y-43950000D01*
X14377200Y-43950001D01*
X14210668Y-44005185D01*
X14210663Y-44005187D01*
X14061342Y-44097289D01*
X13937289Y-44221342D01*
X13845187Y-44370663D01*
X13845186Y-44370666D01*
X13790001Y-44537203D01*
X13790001Y-44537204D01*
X13790000Y-44537204D01*
X13779500Y-44639983D01*
X13779500Y-45360001D01*
X13779501Y-45360019D01*
X13790000Y-45462796D01*
X13790001Y-45462797D01*
X13845185Y-45629331D01*
X13845187Y-45629336D01*
X13858863Y-45651508D01*
X13937288Y-45778656D01*
X14061344Y-45902712D01*
X14210666Y-45994814D01*
X14377203Y-46049999D01*
X14479991Y-46060500D01*
X16520008Y-46060499D01*
X16622797Y-46049999D01*
X16789334Y-45994814D01*
X16938656Y-45902712D01*
X17062712Y-45778656D01*
X17068420Y-45769402D01*
X17120368Y-45722678D01*
X17173958Y-45710500D01*
X18528861Y-45710500D01*
X18591981Y-45727767D01*
X18600607Y-45732869D01*
X18639925Y-45744292D01*
X18754791Y-45777664D01*
X18754794Y-45777664D01*
X18754796Y-45777665D01*
X18790819Y-45780500D01*
X19189180Y-45780499D01*
X19225204Y-45777665D01*
X19379393Y-45732869D01*
X19436882Y-45698869D01*
X19504602Y-45681688D01*
X19563117Y-45698869D01*
X19620607Y-45732869D01*
X19620610Y-45732869D01*
X19620612Y-45732871D01*
X19774791Y-45777664D01*
X19774794Y-45777664D01*
X19774796Y-45777665D01*
X19810819Y-45780500D01*
X20209180Y-45780499D01*
X20245204Y-45777665D01*
X20399393Y-45732869D01*
X20537598Y-45651135D01*
X20537603Y-45651130D01*
X20541915Y-45646819D01*
X20568842Y-45632115D01*
X20594661Y-45615523D01*
X20600861Y-45614631D01*
X20603238Y-45613334D01*
X20629596Y-45610500D01*
X20640192Y-45610500D01*
X20707231Y-45630185D01*
X20752986Y-45682989D01*
X20762930Y-45752147D01*
X20733905Y-45815703D01*
X20727873Y-45822181D01*
X19946871Y-46603181D01*
X19885548Y-46636666D01*
X19859192Y-46639500D01*
X19810831Y-46639500D01*
X19810807Y-46639501D01*
X19774794Y-46642335D01*
X19620611Y-46687129D01*
X19620604Y-46687132D01*
X19563119Y-46721128D01*
X19495395Y-46738309D01*
X19436881Y-46721128D01*
X19379395Y-46687132D01*
X19379388Y-46687129D01*
X19225208Y-46642335D01*
X19225202Y-46642334D01*
X19189181Y-46639500D01*
X18790830Y-46639500D01*
X18790808Y-46639501D01*
X18754794Y-46642335D01*
X18600611Y-46687129D01*
X18600606Y-46687131D01*
X18591982Y-46692232D01*
X18528861Y-46709500D01*
X17062230Y-46709500D01*
X16995191Y-46689815D01*
X16974549Y-46673181D01*
X16938657Y-46637289D01*
X16938656Y-46637288D01*
X16789334Y-46545186D01*
X16622797Y-46490001D01*
X16622795Y-46490000D01*
X16520010Y-46479500D01*
X14479998Y-46479500D01*
X14479981Y-46479501D01*
X14377203Y-46490000D01*
X14377200Y-46490001D01*
X14210668Y-46545185D01*
X14210663Y-46545187D01*
X14061342Y-46637289D01*
X13937289Y-46761342D01*
X13845187Y-46910663D01*
X13845185Y-46910668D01*
X13818994Y-46989707D01*
X13790001Y-47077203D01*
X13790001Y-47077204D01*
X13790000Y-47077204D01*
X13779500Y-47179983D01*
X13779500Y-47900001D01*
X13779501Y-47900019D01*
X13790000Y-48002796D01*
X13790001Y-48002799D01*
X13845185Y-48169331D01*
X13845187Y-48169336D01*
X13869893Y-48209390D01*
X13937288Y-48318656D01*
X14061344Y-48442712D01*
X14210666Y-48534814D01*
X14377203Y-48589999D01*
X14479991Y-48600500D01*
X16520008Y-48600499D01*
X16622797Y-48589999D01*
X16789334Y-48534814D01*
X16938656Y-48442712D01*
X17062712Y-48318656D01*
X17093091Y-48269402D01*
X17145039Y-48222679D01*
X17198630Y-48210500D01*
X18528861Y-48210500D01*
X18591981Y-48227767D01*
X18600607Y-48232869D01*
X18600614Y-48232871D01*
X18754791Y-48277664D01*
X18754794Y-48277664D01*
X18754796Y-48277665D01*
X18790819Y-48280500D01*
X19189180Y-48280499D01*
X19225204Y-48277665D01*
X19379393Y-48232869D01*
X19436882Y-48198869D01*
X19504602Y-48181688D01*
X19563117Y-48198869D01*
X19620607Y-48232869D01*
X19620610Y-48232869D01*
X19620612Y-48232871D01*
X19774791Y-48277664D01*
X19774794Y-48277664D01*
X19774796Y-48277665D01*
X19810819Y-48280500D01*
X20209180Y-48280499D01*
X20245204Y-48277665D01*
X20399393Y-48232869D01*
X20537598Y-48151135D01*
X20651135Y-48037598D01*
X20732869Y-47899393D01*
X20777665Y-47745204D01*
X20780500Y-47709181D01*
X20780499Y-47660807D01*
X20800182Y-47593770D01*
X20816813Y-47573131D01*
X22203127Y-46186819D01*
X22264450Y-46153334D01*
X22290808Y-46150500D01*
X24102243Y-46150500D01*
X24169282Y-46170185D01*
X24215037Y-46222989D01*
X24224981Y-46292147D01*
X24223860Y-46298692D01*
X24199500Y-46421155D01*
X24199500Y-46421158D01*
X24199500Y-46578842D01*
X24199500Y-46578844D01*
X24199499Y-46578844D01*
X24223860Y-46701308D01*
X24217633Y-46770900D01*
X24174770Y-46826077D01*
X24108880Y-46849322D01*
X24102243Y-46849500D01*
X22435929Y-46849500D01*
X22310261Y-46874497D01*
X22310255Y-46874499D01*
X22191870Y-46923535D01*
X22085331Y-46994722D01*
X22085324Y-46994728D01*
X19766872Y-49313181D01*
X19705549Y-49346666D01*
X19679191Y-49349500D01*
X17135930Y-49349500D01*
X17010262Y-49374497D01*
X17010256Y-49374499D01*
X16891871Y-49423535D01*
X16785332Y-49494722D01*
X16785325Y-49494728D01*
X15560164Y-50719890D01*
X15498841Y-50753375D01*
X15429149Y-50748391D01*
X15409369Y-50738945D01*
X15389393Y-50727131D01*
X15389388Y-50727128D01*
X15235208Y-50682335D01*
X15235202Y-50682334D01*
X15199181Y-50679500D01*
X14800830Y-50679500D01*
X14800808Y-50679501D01*
X14764794Y-50682335D01*
X14610611Y-50727129D01*
X14610606Y-50727131D01*
X14472404Y-50808863D01*
X14472396Y-50808869D01*
X14358869Y-50922396D01*
X14358863Y-50922404D01*
X14277131Y-51060606D01*
X14277129Y-51060611D01*
X14232335Y-51214791D01*
X14232334Y-51214797D01*
X14229500Y-51250811D01*
X14229500Y-51749169D01*
X14229501Y-51749191D01*
X14232334Y-51785200D01*
X14232334Y-51785203D01*
X14232335Y-51785204D01*
X14277131Y-51939393D01*
X14332184Y-52032483D01*
X14332232Y-52032563D01*
X14349500Y-52095684D01*
X14349500Y-53054192D01*
X14340855Y-53083629D01*
X14334332Y-53113620D01*
X14330576Y-53118636D01*
X14329815Y-53121231D01*
X14313185Y-53141868D01*
X14259766Y-53195288D01*
X14241872Y-53213182D01*
X14180548Y-53246666D01*
X14154191Y-53249500D01*
X13702129Y-53249500D01*
X13702123Y-53249501D01*
X13642516Y-53255908D01*
X13507671Y-53306202D01*
X13507664Y-53306206D01*
X13392455Y-53392452D01*
X13392452Y-53392455D01*
X13306206Y-53507664D01*
X13306202Y-53507671D01*
X13255908Y-53642517D01*
X13251167Y-53686619D01*
X13249501Y-53702123D01*
X13249500Y-53702135D01*
X13249500Y-54547870D01*
X13249501Y-54547876D01*
X13255908Y-54607483D01*
X13306202Y-54742328D01*
X13306206Y-54742335D01*
X13392452Y-54857544D01*
X13392455Y-54857547D01*
X13507664Y-54943793D01*
X13507671Y-54943797D01*
X13642517Y-54994091D01*
X13642516Y-54994091D01*
X13649444Y-54994835D01*
X13702127Y-55000500D01*
X14797872Y-55000499D01*
X14857483Y-54994091D01*
X14992331Y-54943796D01*
X15107546Y-54857546D01*
X15193796Y-54742331D01*
X15244091Y-54607483D01*
X15250500Y-54547873D01*
X15250499Y-54095806D01*
X15270183Y-54028768D01*
X15286813Y-54008130D01*
X15505276Y-53789669D01*
X15576465Y-53683127D01*
X15625501Y-53564744D01*
X15633606Y-53523994D01*
X15636333Y-53510290D01*
X15636333Y-53510288D01*
X15636367Y-53510120D01*
X15650500Y-53439069D01*
X15650500Y-52441238D01*
X15670185Y-52374199D01*
X15722989Y-52328444D01*
X15784230Y-52317620D01*
X15784793Y-52317664D01*
X15784796Y-52317665D01*
X15820819Y-52320500D01*
X16219180Y-52320499D01*
X16219186Y-52320498D01*
X16220622Y-52320442D01*
X16220848Y-52320499D01*
X16221614Y-52320499D01*
X16221614Y-52320691D01*
X16288384Y-52337474D01*
X16336180Y-52388437D01*
X16349500Y-52444346D01*
X16349500Y-55972085D01*
X16329815Y-56039124D01*
X16313181Y-56059766D01*
X14994727Y-57378219D01*
X14994724Y-57378222D01*
X14946610Y-57450230D01*
X14946611Y-57450231D01*
X14923534Y-57484768D01*
X14874499Y-57603149D01*
X14874497Y-57603155D01*
X14849500Y-57728822D01*
X14849500Y-61916730D01*
X14829815Y-61983769D01*
X14777011Y-62029524D01*
X14707853Y-62039468D01*
X14644297Y-62010443D01*
X14625707Y-61989373D01*
X14625653Y-61989419D01*
X14624391Y-61987881D01*
X14622403Y-61985628D01*
X14621793Y-61984716D01*
X14621786Y-61984707D01*
X14510292Y-61873213D01*
X14510288Y-61873210D01*
X14379185Y-61785609D01*
X14379172Y-61785602D01*
X14233501Y-61725264D01*
X14233489Y-61725261D01*
X14078845Y-61694500D01*
X14078842Y-61694500D01*
X13921158Y-61694500D01*
X13921155Y-61694500D01*
X13766510Y-61725261D01*
X13766498Y-61725264D01*
X13615192Y-61787937D01*
X13614552Y-61786392D01*
X13554003Y-61798994D01*
X13500841Y-61782127D01*
X13399393Y-61722131D01*
X13399388Y-61722129D01*
X13245208Y-61677335D01*
X13245202Y-61677334D01*
X13209181Y-61674500D01*
X12810830Y-61674500D01*
X12810808Y-61674501D01*
X12774794Y-61677335D01*
X12620611Y-61722129D01*
X12620604Y-61722132D01*
X12563119Y-61756128D01*
X12495395Y-61773309D01*
X12436881Y-61756128D01*
X12379395Y-61722132D01*
X12379388Y-61722129D01*
X12225208Y-61677335D01*
X12225202Y-61677334D01*
X12189181Y-61674500D01*
X11790830Y-61674500D01*
X11790808Y-61674501D01*
X11754794Y-61677335D01*
X11600611Y-61722129D01*
X11600606Y-61722131D01*
X11462404Y-61803863D01*
X11462396Y-61803869D01*
X11458085Y-61808181D01*
X11396762Y-61841666D01*
X11370404Y-61844500D01*
X8677345Y-61844500D01*
X8610306Y-61824815D01*
X8580194Y-61794143D01*
X8578762Y-61795276D01*
X8574280Y-61789608D01*
X8455391Y-61670719D01*
X8455387Y-61670716D01*
X8312295Y-61582455D01*
X8312289Y-61582452D01*
X8312287Y-61582451D01*
X8152685Y-61529564D01*
X8152683Y-61529563D01*
X8054181Y-61519500D01*
X8054174Y-61519500D01*
X7520826Y-61519500D01*
X7520818Y-61519500D01*
X7422316Y-61529563D01*
X7422315Y-61529564D01*
X7343219Y-61555773D01*
X7262715Y-61582450D01*
X7262704Y-61582455D01*
X7119612Y-61670716D01*
X7119608Y-61670719D01*
X7000719Y-61789608D01*
X7000716Y-61789612D01*
X6912455Y-61932704D01*
X6912450Y-61932715D01*
X6895219Y-61984716D01*
X6859564Y-62092315D01*
X6859564Y-62092316D01*
X6859563Y-62092316D01*
X6849500Y-62190818D01*
X6849500Y-62799181D01*
X6859563Y-62897683D01*
X6912450Y-63057284D01*
X6912455Y-63057295D01*
X7000716Y-63200387D01*
X7000719Y-63200391D01*
X7119608Y-63319280D01*
X7119612Y-63319283D01*
X7262704Y-63407544D01*
X7262707Y-63407545D01*
X7262713Y-63407549D01*
X7422315Y-63460436D01*
X7520826Y-63470500D01*
X7520831Y-63470500D01*
X8054169Y-63470500D01*
X8054174Y-63470500D01*
X8152685Y-63460436D01*
X8312287Y-63407549D01*
X8455391Y-63319281D01*
X8574281Y-63200391D01*
X8574284Y-63200385D01*
X8578762Y-63194724D01*
X8580786Y-63196324D01*
X8623759Y-63157676D01*
X8677345Y-63145500D01*
X10227648Y-63145500D01*
X10294687Y-63165185D01*
X10340442Y-63217989D01*
X10350386Y-63287147D01*
X10321361Y-63350703D01*
X10275100Y-63384061D01*
X10191874Y-63418533D01*
X10191871Y-63418535D01*
X10085331Y-63489722D01*
X10085324Y-63489728D01*
X8766873Y-64808181D01*
X8739945Y-64822884D01*
X8714127Y-64839477D01*
X8707926Y-64840368D01*
X8705550Y-64841666D01*
X8679192Y-64844500D01*
X8677345Y-64844500D01*
X8610306Y-64824815D01*
X8580194Y-64794143D01*
X8578762Y-64795276D01*
X8574280Y-64789608D01*
X8455391Y-64670719D01*
X8455387Y-64670716D01*
X8312295Y-64582455D01*
X8312289Y-64582452D01*
X8312287Y-64582451D01*
X8152685Y-64529564D01*
X8152683Y-64529563D01*
X8054181Y-64519500D01*
X8054174Y-64519500D01*
X7520826Y-64519500D01*
X7520818Y-64519500D01*
X7422316Y-64529563D01*
X7422315Y-64529564D01*
X7343219Y-64555773D01*
X7262715Y-64582450D01*
X7262704Y-64582455D01*
X7119612Y-64670716D01*
X7119608Y-64670719D01*
X7000719Y-64789608D01*
X7000716Y-64789612D01*
X6912455Y-64932704D01*
X6912450Y-64932715D01*
X6889962Y-65000581D01*
X6859564Y-65092315D01*
X6859564Y-65092316D01*
X6859563Y-65092316D01*
X6849500Y-65190818D01*
X6849500Y-65799181D01*
X6859563Y-65897683D01*
X6912450Y-66057284D01*
X6912455Y-66057295D01*
X7000716Y-66200387D01*
X7000719Y-66200391D01*
X7119608Y-66319280D01*
X7119612Y-66319283D01*
X7262704Y-66407544D01*
X7262707Y-66407545D01*
X7262713Y-66407549D01*
X7422315Y-66460436D01*
X7520826Y-66470500D01*
X7520831Y-66470500D01*
X8054169Y-66470500D01*
X8054174Y-66470500D01*
X8152685Y-66460436D01*
X8312287Y-66407549D01*
X8455391Y-66319281D01*
X8574281Y-66200391D01*
X8574284Y-66200385D01*
X8578762Y-66194724D01*
X8580786Y-66196324D01*
X8623759Y-66157676D01*
X8677345Y-66145500D01*
X9064071Y-66145500D01*
X9164613Y-66125500D01*
X9189744Y-66120501D01*
X9308127Y-66071465D01*
X9329346Y-66057287D01*
X9414669Y-66000277D01*
X10733127Y-64681819D01*
X10794450Y-64648334D01*
X10820808Y-64645500D01*
X11321404Y-64645500D01*
X11388443Y-64665185D01*
X11434198Y-64717989D01*
X11444142Y-64787147D01*
X11415117Y-64850703D01*
X11409085Y-64857181D01*
X11348869Y-64917396D01*
X11348863Y-64917404D01*
X11267131Y-65055606D01*
X11267129Y-65055611D01*
X11222335Y-65209791D01*
X11222334Y-65209797D01*
X11219500Y-65245811D01*
X11219500Y-65304191D01*
X11199815Y-65371230D01*
X11183181Y-65391872D01*
X8766873Y-67808181D01*
X8739945Y-67822884D01*
X8714127Y-67839477D01*
X8707926Y-67840368D01*
X8705550Y-67841666D01*
X8679192Y-67844500D01*
X8677345Y-67844500D01*
X8610306Y-67824815D01*
X8580194Y-67794143D01*
X8578762Y-67795276D01*
X8574280Y-67789608D01*
X8455391Y-67670719D01*
X8455387Y-67670716D01*
X8312295Y-67582455D01*
X8312289Y-67582452D01*
X8312287Y-67582451D01*
X8152685Y-67529564D01*
X8152683Y-67529563D01*
X8054181Y-67519500D01*
X8054174Y-67519500D01*
X7520826Y-67519500D01*
X7520818Y-67519500D01*
X7422316Y-67529563D01*
X7422315Y-67529564D01*
X7397011Y-67537949D01*
X7262715Y-67582450D01*
X7262704Y-67582455D01*
X7119612Y-67670716D01*
X7119608Y-67670719D01*
X7000719Y-67789608D01*
X7000716Y-67789612D01*
X6912455Y-67932704D01*
X6912451Y-67932713D01*
X6859564Y-68092315D01*
X6859564Y-68092316D01*
X6859563Y-68092316D01*
X6849500Y-68190818D01*
X6849500Y-68799181D01*
X6859563Y-68897683D01*
X6912450Y-69057284D01*
X6912455Y-69057295D01*
X7000716Y-69200387D01*
X7000719Y-69200391D01*
X7119608Y-69319280D01*
X7119612Y-69319283D01*
X7262704Y-69407544D01*
X7262707Y-69407545D01*
X7262713Y-69407549D01*
X7422315Y-69460436D01*
X7520826Y-69470500D01*
X7520831Y-69470500D01*
X8054169Y-69470500D01*
X8054174Y-69470500D01*
X8152685Y-69460436D01*
X8312287Y-69407549D01*
X8455391Y-69319281D01*
X8574281Y-69200391D01*
X8574284Y-69200385D01*
X8578762Y-69194724D01*
X8580786Y-69196324D01*
X8623759Y-69157676D01*
X8677345Y-69145500D01*
X9064071Y-69145500D01*
X9164613Y-69125500D01*
X9189744Y-69120501D01*
X9308127Y-69071465D01*
X9329346Y-69057287D01*
X9414669Y-69000277D01*
X12063127Y-66351817D01*
X12124450Y-66318333D01*
X12150808Y-66315499D01*
X12189168Y-66315499D01*
X12189180Y-66315499D01*
X12225204Y-66312665D01*
X12379393Y-66267869D01*
X12436882Y-66233869D01*
X12504602Y-66216688D01*
X12563117Y-66233869D01*
X12620607Y-66267869D01*
X12620610Y-66267869D01*
X12620612Y-66267871D01*
X12774791Y-66312664D01*
X12774794Y-66312664D01*
X12774796Y-66312665D01*
X12810819Y-66315500D01*
X13209180Y-66315499D01*
X13245204Y-66312665D01*
X13399393Y-66267869D01*
X13537598Y-66186135D01*
X13651135Y-66072598D01*
X13732869Y-65934393D01*
X13777665Y-65780204D01*
X13780500Y-65744181D01*
X13780499Y-65695807D01*
X13800182Y-65628770D01*
X13816813Y-65608131D01*
X14115414Y-65309530D01*
X14176735Y-65276047D01*
X14178818Y-65275612D01*
X14233497Y-65264737D01*
X14367622Y-65209181D01*
X14379172Y-65204397D01*
X14379172Y-65204396D01*
X14379179Y-65204394D01*
X14510289Y-65116789D01*
X14621789Y-65005289D01*
X14622397Y-65004378D01*
X14622839Y-65004008D01*
X14625653Y-65000581D01*
X14626303Y-65001114D01*
X14676010Y-64959573D01*
X14745334Y-64950866D01*
X14808362Y-64981020D01*
X14845082Y-65040463D01*
X14849500Y-65073269D01*
X14849500Y-70254070D01*
X14849500Y-70254072D01*
X14849499Y-70254072D01*
X14874497Y-70379739D01*
X14874499Y-70379745D01*
X14923534Y-70498126D01*
X14994726Y-70604674D01*
X14994727Y-70604675D01*
X19183181Y-74793128D01*
X19216666Y-74854451D01*
X19219500Y-74880809D01*
X19219500Y-75249169D01*
X19219501Y-75249191D01*
X19222334Y-75285200D01*
X19267131Y-75439393D01*
X19322232Y-75532563D01*
X19339500Y-75595684D01*
X19339500Y-75904314D01*
X19322232Y-75967434D01*
X19267133Y-76060602D01*
X19267129Y-76060611D01*
X19222335Y-76214791D01*
X19222334Y-76214797D01*
X19219500Y-76250811D01*
X19219500Y-76749169D01*
X19219501Y-76749191D01*
X19222335Y-76785205D01*
X19267129Y-76939388D01*
X19267131Y-76939393D01*
X19348863Y-77077595D01*
X19348869Y-77077603D01*
X19462396Y-77191130D01*
X19462400Y-77191133D01*
X19462402Y-77191135D01*
X19600607Y-77272869D01*
X19600614Y-77272871D01*
X19754791Y-77317664D01*
X19754794Y-77317664D01*
X19754796Y-77317665D01*
X19790819Y-77320500D01*
X20189180Y-77320499D01*
X20225204Y-77317665D01*
X20379393Y-77272869D01*
X20436882Y-77238869D01*
X20504602Y-77221688D01*
X20563117Y-77238869D01*
X20620607Y-77272869D01*
X20620610Y-77272869D01*
X20620612Y-77272871D01*
X20774791Y-77317664D01*
X20774794Y-77317664D01*
X20774796Y-77317665D01*
X20810819Y-77320500D01*
X21209180Y-77320499D01*
X21245204Y-77317665D01*
X21399393Y-77272869D01*
X21537598Y-77191135D01*
X21651135Y-77077598D01*
X21732869Y-76939393D01*
X21777665Y-76785204D01*
X21780500Y-76749181D01*
X21780499Y-76250820D01*
X21777665Y-76214796D01*
X21732869Y-76060607D01*
X21730680Y-76056906D01*
X21677768Y-75967434D01*
X21673418Y-75951534D01*
X21665523Y-75939249D01*
X21660500Y-75904314D01*
X21660500Y-75774500D01*
X21680185Y-75707461D01*
X21732989Y-75661706D01*
X21784500Y-75650500D01*
X22238933Y-75650500D01*
X22305972Y-75670185D01*
X22351727Y-75722989D01*
X22361406Y-75755101D01*
X22368985Y-75802952D01*
X22437103Y-76012603D01*
X22437104Y-76012606D01*
X22537187Y-76209025D01*
X22666752Y-76387358D01*
X22666756Y-76387363D01*
X22822636Y-76543243D01*
X22822641Y-76543247D01*
X23000973Y-76672812D01*
X23000975Y-76672813D01*
X23000978Y-76672815D01*
X23016795Y-76680874D01*
X23067591Y-76728848D01*
X23082704Y-76770333D01*
X23084500Y-76780771D01*
X23084500Y-76799069D01*
X23107495Y-76914669D01*
X23109499Y-76924744D01*
X23158535Y-77043127D01*
X23181571Y-77077603D01*
X23229726Y-77149673D01*
X23229727Y-77149674D01*
X23617873Y-77537819D01*
X23651358Y-77599142D01*
X23646374Y-77668833D01*
X23604503Y-77724767D01*
X23539038Y-77749184D01*
X23530192Y-77749500D01*
X23202130Y-77749500D01*
X23202123Y-77749501D01*
X23142516Y-77755908D01*
X23007671Y-77806202D01*
X23007664Y-77806206D01*
X22892455Y-77892452D01*
X22892452Y-77892455D01*
X22806206Y-78007664D01*
X22806202Y-78007671D01*
X22755908Y-78142517D01*
X22749842Y-78198946D01*
X22749500Y-78202127D01*
X22749500Y-78847883D01*
X22749501Y-79375500D01*
X22729816Y-79442539D01*
X22677013Y-79488294D01*
X22625501Y-79499500D01*
X10002706Y-79499500D01*
X9997297Y-79499382D01*
X9613249Y-79482614D01*
X9602473Y-79481671D01*
X9224042Y-79431849D01*
X9213389Y-79429971D01*
X8840727Y-79347354D01*
X8830278Y-79344554D01*
X8466244Y-79229775D01*
X8456078Y-79226075D01*
X8103427Y-79080002D01*
X8093623Y-79075430D01*
X7755057Y-78899183D01*
X7745689Y-78893775D01*
X7423755Y-78688681D01*
X7414894Y-78682476D01*
X7112069Y-78450110D01*
X7103782Y-78443156D01*
X6822364Y-78185284D01*
X6814715Y-78177635D01*
X6556843Y-77896217D01*
X6549889Y-77887930D01*
X6317523Y-77585105D01*
X6311318Y-77576244D01*
X6289791Y-77542454D01*
X6106223Y-77254309D01*
X6100816Y-77244942D01*
X6072803Y-77191130D01*
X5924566Y-76906369D01*
X5919997Y-76896572D01*
X5879610Y-76799069D01*
X5773920Y-76543911D01*
X5770224Y-76533755D01*
X5724067Y-76387363D01*
X5655442Y-76169710D01*
X5652648Y-76159284D01*
X5570025Y-75786597D01*
X5568152Y-75775971D01*
X5518326Y-75397506D01*
X5517386Y-75386771D01*
X5500618Y-75002702D01*
X5500500Y-74997293D01*
X5500500Y-53702135D01*
X7249500Y-53702135D01*
X7249500Y-54547870D01*
X7249501Y-54547876D01*
X7255908Y-54607483D01*
X7306202Y-54742328D01*
X7306206Y-54742335D01*
X7392452Y-54857544D01*
X7392455Y-54857547D01*
X7507664Y-54943793D01*
X7507671Y-54943797D01*
X7642517Y-54994091D01*
X7642516Y-54994091D01*
X7649444Y-54994835D01*
X7702127Y-55000500D01*
X8797872Y-55000499D01*
X8857483Y-54994091D01*
X8992331Y-54943796D01*
X9107546Y-54857546D01*
X9193796Y-54742331D01*
X9244091Y-54607483D01*
X9250500Y-54547873D01*
X9250499Y-53702128D01*
X9244091Y-53642517D01*
X9235997Y-53620817D01*
X9193797Y-53507671D01*
X9193793Y-53507664D01*
X9107547Y-53392455D01*
X9107544Y-53392452D01*
X8992335Y-53306206D01*
X8992328Y-53306202D01*
X8857482Y-53255908D01*
X8857483Y-53255908D01*
X8797883Y-53249501D01*
X8797881Y-53249500D01*
X8797873Y-53249500D01*
X8797864Y-53249500D01*
X7702129Y-53249500D01*
X7702123Y-53249501D01*
X7642516Y-53255908D01*
X7507671Y-53306202D01*
X7507664Y-53306206D01*
X7392455Y-53392452D01*
X7392452Y-53392455D01*
X7306206Y-53507664D01*
X7306202Y-53507671D01*
X7255908Y-53642517D01*
X7251167Y-53686619D01*
X7249501Y-53702123D01*
X7249500Y-53702135D01*
X5500500Y-53702135D01*
X5500500Y-24695818D01*
X6844500Y-24695818D01*
X6844500Y-25304181D01*
X6854563Y-25402683D01*
X6907450Y-25562284D01*
X6907455Y-25562295D01*
X6995716Y-25705387D01*
X6995719Y-25705391D01*
X7114608Y-25824280D01*
X7114612Y-25824283D01*
X7257704Y-25912544D01*
X7257707Y-25912545D01*
X7257713Y-25912549D01*
X7417315Y-25965436D01*
X7515826Y-25975500D01*
X7515831Y-25975500D01*
X8049169Y-25975500D01*
X8049174Y-25975500D01*
X8147685Y-25965436D01*
X8307287Y-25912549D01*
X8450391Y-25824281D01*
X8569281Y-25705391D01*
X8569284Y-25705385D01*
X8573762Y-25699724D01*
X8575183Y-25700848D01*
X8578632Y-25693297D01*
X8599933Y-25679607D01*
X8618759Y-25662676D01*
X8630393Y-25660032D01*
X8637410Y-25655523D01*
X8672345Y-25650500D01*
X8865404Y-25650500D01*
X8932443Y-25670185D01*
X8953085Y-25686819D01*
X8957396Y-25691130D01*
X8957400Y-25691133D01*
X8957402Y-25691135D01*
X9095607Y-25772869D01*
X9095614Y-25772871D01*
X9249791Y-25817664D01*
X9249794Y-25817664D01*
X9249796Y-25817665D01*
X9285819Y-25820500D01*
X9684180Y-25820499D01*
X9720204Y-25817665D01*
X9874393Y-25772869D01*
X9931882Y-25738869D01*
X9999602Y-25721688D01*
X10058117Y-25738869D01*
X10115607Y-25772869D01*
X10115610Y-25772869D01*
X10115612Y-25772871D01*
X10269791Y-25817664D01*
X10269794Y-25817664D01*
X10269796Y-25817665D01*
X10305819Y-25820500D01*
X10704180Y-25820499D01*
X10740204Y-25817665D01*
X10894393Y-25772869D01*
X10998215Y-25711469D01*
X11065939Y-25694286D01*
X11114993Y-25707544D01*
X11115193Y-25707063D01*
X11118914Y-25708604D01*
X11119782Y-25708839D01*
X11120817Y-25709391D01*
X11120821Y-25709394D01*
X11266503Y-25769737D01*
X11421153Y-25800499D01*
X11421156Y-25800500D01*
X11421158Y-25800500D01*
X11578844Y-25800500D01*
X11578845Y-25800499D01*
X11733497Y-25769737D01*
X11849498Y-25721688D01*
X11879172Y-25709397D01*
X11879172Y-25709396D01*
X11879179Y-25709394D01*
X12010289Y-25621789D01*
X12121789Y-25510289D01*
X12209394Y-25379179D01*
X12269737Y-25233497D01*
X12300500Y-25078842D01*
X12300500Y-24921158D01*
X12300500Y-24921155D01*
X12300499Y-24921153D01*
X12269738Y-24766510D01*
X12269737Y-24766503D01*
X12240459Y-24695818D01*
X12209397Y-24620827D01*
X12209390Y-24620814D01*
X12121789Y-24489711D01*
X12121786Y-24489707D01*
X12010292Y-24378213D01*
X12010288Y-24378210D01*
X11879185Y-24290609D01*
X11879172Y-24290602D01*
X11733501Y-24230264D01*
X11733489Y-24230261D01*
X11578845Y-24199500D01*
X11578842Y-24199500D01*
X11421158Y-24199500D01*
X11421155Y-24199500D01*
X11266510Y-24230261D01*
X11266498Y-24230264D01*
X11120820Y-24290606D01*
X11119782Y-24291161D01*
X11119176Y-24291287D01*
X11115193Y-24292937D01*
X11114879Y-24292181D01*
X11051378Y-24305399D01*
X10998215Y-24288531D01*
X10894393Y-24227131D01*
X10894388Y-24227129D01*
X10740208Y-24182335D01*
X10740202Y-24182334D01*
X10704181Y-24179500D01*
X10305830Y-24179500D01*
X10305808Y-24179501D01*
X10269794Y-24182335D01*
X10115611Y-24227129D01*
X10115604Y-24227132D01*
X10058119Y-24261128D01*
X9990395Y-24278309D01*
X9931881Y-24261128D01*
X9874395Y-24227132D01*
X9874388Y-24227129D01*
X9720208Y-24182335D01*
X9720202Y-24182334D01*
X9684181Y-24179500D01*
X9285830Y-24179500D01*
X9285808Y-24179501D01*
X9249794Y-24182335D01*
X9095611Y-24227129D01*
X9095606Y-24227131D01*
X8957404Y-24308863D01*
X8957396Y-24308869D01*
X8953085Y-24313181D01*
X8926157Y-24327884D01*
X8900339Y-24344477D01*
X8894138Y-24345368D01*
X8891762Y-24346666D01*
X8865404Y-24349500D01*
X8672345Y-24349500D01*
X8605306Y-24329815D01*
X8575194Y-24299143D01*
X8573762Y-24300276D01*
X8569280Y-24294608D01*
X8450391Y-24175719D01*
X8450387Y-24175716D01*
X8307295Y-24087455D01*
X8307289Y-24087452D01*
X8307287Y-24087451D01*
X8147685Y-24034564D01*
X8147683Y-24034563D01*
X8049181Y-24024500D01*
X8049174Y-24024500D01*
X7515826Y-24024500D01*
X7515818Y-24024500D01*
X7417316Y-24034563D01*
X7417315Y-24034564D01*
X7338219Y-24060773D01*
X7257715Y-24087450D01*
X7257704Y-24087455D01*
X7114612Y-24175716D01*
X7114608Y-24175719D01*
X6995719Y-24294608D01*
X6995716Y-24294612D01*
X6907455Y-24437704D01*
X6907450Y-24437715D01*
X6880773Y-24518219D01*
X6854564Y-24597315D01*
X6854564Y-24597316D01*
X6854563Y-24597316D01*
X6844500Y-24695818D01*
X5500500Y-24695818D01*
X5500500Y-14073768D01*
X5500618Y-14068359D01*
X5502660Y-14021586D01*
X5517388Y-13684294D01*
X5518327Y-13673566D01*
X5568155Y-13295088D01*
X5570026Y-13284476D01*
X5652651Y-12911773D01*
X5655442Y-12901358D01*
X5770227Y-12537300D01*
X5773927Y-12527137D01*
X5794108Y-12478416D01*
X5919993Y-12174492D01*
X5924564Y-12164691D01*
X6047843Y-11927867D01*
X6100815Y-11826105D01*
X6106215Y-11816750D01*
X6311323Y-11494784D01*
X6317505Y-11485957D01*
X6549884Y-11183102D01*
X6556813Y-11174844D01*
X6816012Y-10891963D01*
X6819689Y-10888123D01*
X9924882Y-7782931D01*
X9986205Y-7749446D01*
X10055897Y-7754430D01*
G37*
%TD.AperFunction*%
%TA.AperFunction,Conductor*%
G36*
X22746231Y-51670185D02*
G01*
X22766873Y-51686819D01*
X23566380Y-52486327D01*
X23569970Y-52489273D01*
X23609309Y-52547016D01*
X23611184Y-52616860D01*
X23578993Y-52672812D01*
X23390616Y-52861190D01*
X23329296Y-52894674D01*
X23302937Y-52897508D01*
X23062275Y-52897508D01*
X22936607Y-52922505D01*
X22936601Y-52922507D01*
X22818220Y-52971542D01*
X22783308Y-52994870D01*
X22783306Y-52994871D01*
X22711682Y-53042726D01*
X22711677Y-53042730D01*
X22347886Y-53406520D01*
X22286563Y-53440005D01*
X22216871Y-53435021D01*
X22211158Y-53432530D01*
X22208002Y-53431381D01*
X22037297Y-53390922D01*
X22037292Y-53390921D01*
X22037290Y-53390921D01*
X21861848Y-53390921D01*
X21861846Y-53390921D01*
X21861840Y-53390922D01*
X21691136Y-53431381D01*
X21691135Y-53431381D01*
X21534356Y-53510118D01*
X21534355Y-53510119D01*
X21454250Y-53575372D01*
X21454234Y-53575387D01*
X20075385Y-54954239D01*
X20075377Y-54954248D01*
X20010121Y-55034352D01*
X20010116Y-55034360D01*
X19931381Y-55191135D01*
X19931381Y-55191136D01*
X19890922Y-55361840D01*
X19890921Y-55361851D01*
X19890921Y-55537286D01*
X19890922Y-55537297D01*
X19931381Y-55708003D01*
X20010117Y-55864779D01*
X20010120Y-55864784D01*
X20010448Y-55865187D01*
X20075368Y-55944882D01*
X20075373Y-55944887D01*
X20075376Y-55944891D01*
X20729463Y-56598976D01*
X20729469Y-56598981D01*
X20729476Y-56598987D01*
X20809562Y-56664228D01*
X20809566Y-56664230D01*
X20809570Y-56664234D01*
X20809572Y-56664235D01*
X20809575Y-56664237D01*
X20966350Y-56742972D01*
X21085027Y-56771099D01*
X21137064Y-56783433D01*
X21137067Y-56783433D01*
X21312503Y-56783433D01*
X21312506Y-56783433D01*
X21483218Y-56742972D01*
X21639999Y-56664234D01*
X21720107Y-56598978D01*
X23098976Y-55220107D01*
X23164234Y-55139999D01*
X23242972Y-54983218D01*
X23283433Y-54812506D01*
X23283433Y-54637064D01*
X23242972Y-54466351D01*
X23242967Y-54466341D01*
X23240503Y-54459570D01*
X23242699Y-54458770D01*
X23240345Y-54445826D01*
X23231829Y-54422993D01*
X23234205Y-54412067D01*
X23232205Y-54401066D01*
X23241500Y-54378535D01*
X23246681Y-54354720D01*
X23257027Y-54340898D01*
X23258852Y-54336477D01*
X23267823Y-54326475D01*
X23269688Y-54324610D01*
X23331009Y-54291127D01*
X23400701Y-54296111D01*
X23445046Y-54324611D01*
X23551509Y-54431073D01*
X23586491Y-54459570D01*
X23628945Y-54494155D01*
X23628953Y-54494160D01*
X23661067Y-54510288D01*
X23780505Y-54570272D01*
X23945531Y-54609384D01*
X23945533Y-54609384D01*
X24115127Y-54609384D01*
X24115129Y-54609384D01*
X24280155Y-54570272D01*
X24431713Y-54494157D01*
X24509151Y-54431075D01*
X24705398Y-54234826D01*
X24766721Y-54201342D01*
X24793079Y-54198508D01*
X25450377Y-54198508D01*
X25535229Y-54181629D01*
X25576050Y-54173509D01*
X25694433Y-54124473D01*
X25800975Y-54053285D01*
X26018469Y-53835789D01*
X26032786Y-53827623D01*
X26042722Y-53816921D01*
X26075299Y-53803372D01*
X26123836Y-53790910D01*
X26193661Y-53793305D01*
X26251110Y-53833072D01*
X26277940Y-53897585D01*
X26274773Y-53941853D01*
X26262315Y-53990373D01*
X26229893Y-54047216D01*
X26042731Y-54234379D01*
X25971542Y-54340922D01*
X25922507Y-54459303D01*
X25922505Y-54459309D01*
X25897508Y-54584976D01*
X25897508Y-55302935D01*
X25877823Y-55369974D01*
X25861190Y-55390616D01*
X25664941Y-55586867D01*
X25664939Y-55586869D01*
X25601861Y-55664300D01*
X25601855Y-55664308D01*
X25525745Y-55815857D01*
X25525744Y-55815860D01*
X25525744Y-55815861D01*
X25486632Y-55980887D01*
X25486632Y-56150485D01*
X25520788Y-56294600D01*
X25525745Y-56315514D01*
X25601196Y-56465749D01*
X25601859Y-56467068D01*
X25664941Y-56544507D01*
X25664947Y-56544513D01*
X25861189Y-56740754D01*
X25894674Y-56802077D01*
X25897508Y-56828435D01*
X25897508Y-57284423D01*
X25877823Y-57351462D01*
X25825019Y-57397217D01*
X25802106Y-57405080D01*
X25691135Y-57431381D01*
X25534356Y-57510118D01*
X25534355Y-57510119D01*
X25454250Y-57575372D01*
X25454234Y-57575387D01*
X24075385Y-58954239D01*
X24075377Y-58954248D01*
X24010121Y-59034352D01*
X24010116Y-59034360D01*
X23931381Y-59191135D01*
X23931381Y-59191136D01*
X23890922Y-59361840D01*
X23890921Y-59361851D01*
X23890921Y-59537286D01*
X23890922Y-59537297D01*
X23931381Y-59708003D01*
X24010117Y-59864779D01*
X24010121Y-59864785D01*
X24075368Y-59944882D01*
X24075373Y-59944887D01*
X24075376Y-59944891D01*
X24729463Y-60598976D01*
X24729469Y-60598981D01*
X24729476Y-60598987D01*
X24809562Y-60664228D01*
X24809566Y-60664230D01*
X24809570Y-60664234D01*
X24809572Y-60664235D01*
X24809575Y-60664237D01*
X24966350Y-60742972D01*
X25085027Y-60771099D01*
X25137064Y-60783433D01*
X25137067Y-60783433D01*
X25312503Y-60783433D01*
X25312506Y-60783433D01*
X25483218Y-60742972D01*
X25639999Y-60664234D01*
X25720107Y-60598978D01*
X27098976Y-59220107D01*
X27164234Y-59139999D01*
X27242972Y-58983218D01*
X27283433Y-58812506D01*
X27283433Y-58637064D01*
X27266132Y-58564069D01*
X27242973Y-58466353D01*
X27227693Y-58435928D01*
X27190922Y-58362712D01*
X27178426Y-58293972D01*
X27180112Y-58282892D01*
X27198508Y-58190415D01*
X27198508Y-57124922D01*
X27218193Y-57057883D01*
X27270997Y-57012128D01*
X27340155Y-57002184D01*
X27403711Y-57031209D01*
X27410189Y-57037241D01*
X29313181Y-58940233D01*
X29346666Y-59001556D01*
X29349500Y-59027914D01*
X29349500Y-61309461D01*
X29329815Y-61376500D01*
X29277011Y-61422255D01*
X29207853Y-61432199D01*
X29144297Y-61403174D01*
X29118113Y-61371461D01*
X28996093Y-61160116D01*
X28838448Y-60954668D01*
X28838442Y-60954661D01*
X28655338Y-60771557D01*
X28655331Y-60771551D01*
X28449883Y-60613906D01*
X28225619Y-60484427D01*
X28225609Y-60484423D01*
X27986364Y-60385324D01*
X27861297Y-60351813D01*
X27736228Y-60318301D01*
X27736222Y-60318300D01*
X27736217Y-60318299D01*
X27479491Y-60284501D01*
X27479486Y-60284500D01*
X27479481Y-60284500D01*
X27220519Y-60284500D01*
X27220513Y-60284500D01*
X27220508Y-60284501D01*
X26963782Y-60318299D01*
X26963775Y-60318300D01*
X26963772Y-60318301D01*
X26910908Y-60332465D01*
X26713635Y-60385324D01*
X26474390Y-60484423D01*
X26474380Y-60484427D01*
X26250116Y-60613906D01*
X26044668Y-60771551D01*
X26044661Y-60771557D01*
X25861557Y-60954661D01*
X25861551Y-60954668D01*
X25703906Y-61160116D01*
X25574427Y-61384380D01*
X25574423Y-61384390D01*
X25475324Y-61623635D01*
X25448094Y-61725261D01*
X25408301Y-61873772D01*
X25408300Y-61873776D01*
X25408299Y-61873782D01*
X25374501Y-62130508D01*
X25374500Y-62130525D01*
X25374500Y-62389474D01*
X25374501Y-62389491D01*
X25408299Y-62646217D01*
X25408300Y-62646222D01*
X25408301Y-62646228D01*
X25439345Y-62762085D01*
X25475324Y-62896364D01*
X25574423Y-63135609D01*
X25574427Y-63135619D01*
X25703906Y-63359883D01*
X25861551Y-63565331D01*
X25861557Y-63565338D01*
X26044661Y-63748442D01*
X26044668Y-63748448D01*
X26250116Y-63906093D01*
X26474380Y-64035572D01*
X26474381Y-64035572D01*
X26474384Y-64035574D01*
X26656331Y-64110939D01*
X26710734Y-64154780D01*
X26732799Y-64221074D01*
X26715520Y-64288773D01*
X26664383Y-64336384D01*
X26608878Y-64349500D01*
X24820807Y-64349500D01*
X24753768Y-64329815D01*
X24733126Y-64313181D01*
X22914674Y-62494727D01*
X22914673Y-62494726D01*
X22914669Y-62494723D01*
X22808127Y-62423535D01*
X22790317Y-62416158D01*
X22689744Y-62374499D01*
X22689738Y-62374497D01*
X22564071Y-62349500D01*
X22564069Y-62349500D01*
X19815783Y-62349500D01*
X19748744Y-62329815D01*
X19728106Y-62313185D01*
X19637782Y-62222861D01*
X19637781Y-62222860D01*
X19637780Y-62222859D01*
X19473920Y-62113371D01*
X19473907Y-62113364D01*
X19291839Y-62037950D01*
X19291829Y-62037947D01*
X19098543Y-61999500D01*
X19098541Y-61999500D01*
X18901459Y-61999500D01*
X18901457Y-61999500D01*
X18708170Y-62037947D01*
X18708160Y-62037950D01*
X18526092Y-62113364D01*
X18526079Y-62113371D01*
X18362218Y-62222860D01*
X18362214Y-62222863D01*
X18222863Y-62362214D01*
X18222860Y-62362218D01*
X18113371Y-62526079D01*
X18113364Y-62526092D01*
X18037950Y-62708160D01*
X18037947Y-62708170D01*
X17999500Y-62901456D01*
X17999500Y-62901459D01*
X17999500Y-63098541D01*
X17999500Y-63098543D01*
X17999499Y-63098543D01*
X18037947Y-63291829D01*
X18037950Y-63291839D01*
X18113364Y-63473907D01*
X18113371Y-63473920D01*
X18222860Y-63637781D01*
X18222863Y-63637785D01*
X18362214Y-63777136D01*
X18362218Y-63777139D01*
X18526079Y-63886628D01*
X18526092Y-63886635D01*
X18708160Y-63962049D01*
X18708165Y-63962051D01*
X18708169Y-63962051D01*
X18708170Y-63962052D01*
X18901456Y-64000500D01*
X18901459Y-64000500D01*
X19098543Y-64000500D01*
X19228582Y-63974632D01*
X19291835Y-63962051D01*
X19473914Y-63886632D01*
X19637782Y-63777139D01*
X19728103Y-63686817D01*
X19789424Y-63653334D01*
X19815783Y-63650500D01*
X22179192Y-63650500D01*
X22246231Y-63670185D01*
X22266873Y-63686819D01*
X22815554Y-64235500D01*
X23217874Y-64637819D01*
X23251359Y-64699142D01*
X23246375Y-64768833D01*
X23204503Y-64824767D01*
X23139039Y-64849184D01*
X23130193Y-64849500D01*
X22091929Y-64849500D01*
X22024890Y-64829815D01*
X21979135Y-64777011D01*
X21970312Y-64749692D01*
X21962052Y-64708170D01*
X21962051Y-64708169D01*
X21962051Y-64708165D01*
X21951138Y-64681819D01*
X21886635Y-64526092D01*
X21886628Y-64526079D01*
X21777139Y-64362218D01*
X21777136Y-64362214D01*
X21637785Y-64222863D01*
X21637781Y-64222860D01*
X21473920Y-64113371D01*
X21473907Y-64113364D01*
X21291839Y-64037950D01*
X21291829Y-64037947D01*
X21098543Y-63999500D01*
X21098541Y-63999500D01*
X20901459Y-63999500D01*
X20901457Y-63999500D01*
X20708170Y-64037947D01*
X20708160Y-64037950D01*
X20526092Y-64113364D01*
X20526079Y-64113371D01*
X20362218Y-64222860D01*
X20362214Y-64222863D01*
X20222863Y-64362214D01*
X20222860Y-64362218D01*
X20113371Y-64526079D01*
X20113364Y-64526092D01*
X20037950Y-64708160D01*
X20037947Y-64708170D01*
X19999500Y-64901456D01*
X19999500Y-64901459D01*
X19999500Y-65098541D01*
X19999500Y-65098543D01*
X19999499Y-65098543D01*
X20037947Y-65291829D01*
X20037950Y-65291839D01*
X20113364Y-65473907D01*
X20113371Y-65473920D01*
X20222860Y-65637781D01*
X20222863Y-65637785D01*
X20362214Y-65777136D01*
X20362218Y-65777139D01*
X20526079Y-65886628D01*
X20526092Y-65886635D01*
X20708160Y-65962049D01*
X20708165Y-65962051D01*
X20708169Y-65962051D01*
X20708170Y-65962052D01*
X20901456Y-66000500D01*
X20901459Y-66000500D01*
X21040567Y-66000500D01*
X21058711Y-66005827D01*
X21077619Y-66006165D01*
X21105839Y-66019666D01*
X21107606Y-66020185D01*
X21109457Y-66021397D01*
X21163171Y-66057287D01*
X21163172Y-66057288D01*
X21191867Y-66076461D01*
X21191875Y-66076466D01*
X21218692Y-66087574D01*
X21310256Y-66125501D01*
X21310260Y-66125501D01*
X21310261Y-66125502D01*
X21435928Y-66150500D01*
X25227648Y-66150500D01*
X25294687Y-66170185D01*
X25340442Y-66222989D01*
X25350386Y-66292147D01*
X25321361Y-66355703D01*
X25275100Y-66389061D01*
X25191874Y-66423533D01*
X25191871Y-66423535D01*
X25085331Y-66494722D01*
X25085324Y-66494728D01*
X24116873Y-67463181D01*
X24055550Y-67496666D01*
X24029192Y-67499500D01*
X23901457Y-67499500D01*
X23708170Y-67537947D01*
X23708160Y-67537950D01*
X23526092Y-67613364D01*
X23526079Y-67613371D01*
X23362218Y-67722860D01*
X23362214Y-67722863D01*
X23222863Y-67862214D01*
X23222860Y-67862218D01*
X23113371Y-68026079D01*
X23113364Y-68026092D01*
X23037950Y-68208160D01*
X23037947Y-68208170D01*
X22999500Y-68401456D01*
X22999500Y-68401459D01*
X22999500Y-68598541D01*
X22999500Y-68598543D01*
X22999499Y-68598543D01*
X23037947Y-68791829D01*
X23037950Y-68791839D01*
X23113364Y-68973907D01*
X23113371Y-68973920D01*
X23222860Y-69137781D01*
X23222863Y-69137785D01*
X23362214Y-69277136D01*
X23362218Y-69277139D01*
X23526079Y-69386628D01*
X23526092Y-69386635D01*
X23704266Y-69460436D01*
X23708165Y-69462051D01*
X23708169Y-69462051D01*
X23708170Y-69462052D01*
X23901456Y-69500500D01*
X23901459Y-69500500D01*
X24098543Y-69500500D01*
X24249359Y-69470500D01*
X24291835Y-69462051D01*
X24473914Y-69386632D01*
X24637782Y-69277139D01*
X24777139Y-69137782D01*
X24886632Y-68973914D01*
X24962051Y-68791835D01*
X25000500Y-68598541D01*
X25000500Y-68470808D01*
X25020185Y-68403769D01*
X25036819Y-68383127D01*
X25127767Y-68292179D01*
X25329932Y-68090013D01*
X25391253Y-68056530D01*
X25460944Y-68061514D01*
X25516878Y-68103385D01*
X25541295Y-68168850D01*
X25537639Y-68201893D01*
X25539137Y-68202191D01*
X25499500Y-68401456D01*
X25499500Y-68401459D01*
X25499500Y-68598541D01*
X25499500Y-68598543D01*
X25499499Y-68598543D01*
X25537947Y-68791829D01*
X25537950Y-68791839D01*
X25613364Y-68973907D01*
X25613371Y-68973920D01*
X25722860Y-69137781D01*
X25722863Y-69137785D01*
X25862214Y-69277136D01*
X25862218Y-69277139D01*
X26026079Y-69386628D01*
X26026092Y-69386635D01*
X26204266Y-69460436D01*
X26208165Y-69462051D01*
X26208169Y-69462051D01*
X26208170Y-69462052D01*
X26401456Y-69500500D01*
X26401459Y-69500500D01*
X26598543Y-69500500D01*
X26749359Y-69470500D01*
X26791835Y-69462051D01*
X26973914Y-69386632D01*
X27137782Y-69277139D01*
X27228103Y-69186817D01*
X27289424Y-69153334D01*
X27315783Y-69150500D01*
X27771177Y-69150500D01*
X27855721Y-69133682D01*
X27896850Y-69125501D01*
X28015233Y-69076465D01*
X28034324Y-69063708D01*
X28043934Y-69057288D01*
X28043935Y-69057288D01*
X28102182Y-69018368D01*
X28121775Y-69005277D01*
X29537819Y-67589233D01*
X29599142Y-67555748D01*
X29668834Y-67560732D01*
X29724767Y-67602604D01*
X29749184Y-67668068D01*
X29749500Y-67676914D01*
X29749500Y-69775500D01*
X29729815Y-69842539D01*
X29677011Y-69888294D01*
X29625501Y-69899500D01*
X29452130Y-69899500D01*
X29452123Y-69899501D01*
X29392516Y-69905908D01*
X29257671Y-69956202D01*
X29257664Y-69956206D01*
X29142455Y-70042452D01*
X29142452Y-70042455D01*
X29056206Y-70157664D01*
X29056202Y-70157671D01*
X29005908Y-70292517D01*
X29003250Y-70317246D01*
X28999501Y-70352123D01*
X28999500Y-70352135D01*
X28999500Y-72447870D01*
X28999501Y-72447876D01*
X29005908Y-72507483D01*
X29056202Y-72642328D01*
X29056206Y-72642335D01*
X29142452Y-72757544D01*
X29142455Y-72757547D01*
X29257664Y-72843793D01*
X29257671Y-72843797D01*
X29392517Y-72894091D01*
X29392516Y-72894091D01*
X29399444Y-72894835D01*
X29452127Y-72900500D01*
X31547872Y-72900499D01*
X31607483Y-72894091D01*
X31742331Y-72843796D01*
X31857546Y-72757546D01*
X31943796Y-72642331D01*
X31994091Y-72507483D01*
X32000500Y-72447873D01*
X32000499Y-70352128D01*
X31994091Y-70292517D01*
X31979751Y-70254070D01*
X31943797Y-70157671D01*
X31943793Y-70157664D01*
X31857547Y-70042455D01*
X31857544Y-70042452D01*
X31742335Y-69956206D01*
X31742328Y-69956202D01*
X31607482Y-69905908D01*
X31607483Y-69905908D01*
X31547883Y-69899501D01*
X31547881Y-69899500D01*
X31547873Y-69899500D01*
X31547865Y-69899500D01*
X31374500Y-69899500D01*
X31307461Y-69879815D01*
X31261706Y-69827011D01*
X31250500Y-69775500D01*
X31250500Y-67562228D01*
X31270185Y-67495189D01*
X31286814Y-67474552D01*
X40524548Y-58236817D01*
X40585871Y-58203333D01*
X40612229Y-58200499D01*
X41200002Y-58200499D01*
X41200008Y-58200499D01*
X41302797Y-58189999D01*
X41469334Y-58134814D01*
X41618656Y-58042712D01*
X41637819Y-58023549D01*
X41657255Y-58012936D01*
X41673989Y-57998436D01*
X41687320Y-57996519D01*
X41699142Y-57990064D01*
X41721228Y-57991643D01*
X41743147Y-57988492D01*
X41755398Y-57994087D01*
X41768834Y-57995048D01*
X41786560Y-58008318D01*
X41806703Y-58017517D01*
X41813985Y-58028848D01*
X41824767Y-58036920D01*
X41832504Y-58057665D01*
X41844477Y-58076295D01*
X41847628Y-58098213D01*
X41849184Y-58102384D01*
X41849500Y-58111230D01*
X41849500Y-58179192D01*
X41829815Y-58246231D01*
X41813181Y-58266873D01*
X39494725Y-60585328D01*
X39494724Y-60585329D01*
X39442004Y-60664233D01*
X39442003Y-60664233D01*
X39423536Y-60691870D01*
X39423534Y-60691874D01*
X39374499Y-60810255D01*
X39374497Y-60810261D01*
X39349500Y-60935928D01*
X39349500Y-62660382D01*
X39329815Y-62727421D01*
X39295408Y-62761099D01*
X39296125Y-62762085D01*
X39120213Y-62889890D01*
X38969890Y-63040213D01*
X38842085Y-63216125D01*
X38840740Y-63215148D01*
X38794295Y-63257166D01*
X38740382Y-63269500D01*
X37465195Y-63269500D01*
X37430600Y-63264576D01*
X37285208Y-63222335D01*
X37285202Y-63222334D01*
X37249181Y-63219500D01*
X36750830Y-63219500D01*
X36750808Y-63219501D01*
X36714794Y-63222335D01*
X36560611Y-63267129D01*
X36560606Y-63267131D01*
X36422404Y-63348863D01*
X36422396Y-63348869D01*
X36308869Y-63462396D01*
X36308863Y-63462404D01*
X36227131Y-63600606D01*
X36227129Y-63600611D01*
X36182335Y-63754791D01*
X36182334Y-63754797D01*
X36179500Y-63790811D01*
X36179500Y-64189169D01*
X36179501Y-64189191D01*
X36182335Y-64225205D01*
X36227129Y-64379388D01*
X36227132Y-64379395D01*
X36261128Y-64436881D01*
X36278309Y-64504605D01*
X36261128Y-64563119D01*
X36227132Y-64620604D01*
X36227129Y-64620611D01*
X36182335Y-64774791D01*
X36182334Y-64774797D01*
X36179500Y-64810811D01*
X36179500Y-65209169D01*
X36179501Y-65209191D01*
X36182335Y-65245205D01*
X36227129Y-65399388D01*
X36227131Y-65399393D01*
X36287127Y-65500841D01*
X36304310Y-65568565D01*
X36291831Y-65614734D01*
X36292937Y-65615192D01*
X36230264Y-65766498D01*
X36230261Y-65766510D01*
X36199500Y-65921153D01*
X36199500Y-66078846D01*
X36230261Y-66233489D01*
X36230264Y-66233501D01*
X36290602Y-66379172D01*
X36290609Y-66379185D01*
X36378210Y-66510288D01*
X36378213Y-66510292D01*
X36489707Y-66621786D01*
X36489711Y-66621789D01*
X36620814Y-66709390D01*
X36620827Y-66709397D01*
X36766498Y-66769735D01*
X36766503Y-66769737D01*
X36921153Y-66800499D01*
X36921156Y-66800500D01*
X36921158Y-66800500D01*
X37078844Y-66800500D01*
X37078845Y-66800499D01*
X37233497Y-66769737D01*
X37379179Y-66709394D01*
X37510289Y-66621789D01*
X37621789Y-66510289D01*
X37709394Y-66379179D01*
X37769737Y-66233497D01*
X37800500Y-66078842D01*
X37800500Y-65921158D01*
X37800500Y-65921155D01*
X37800499Y-65921153D01*
X37795831Y-65897685D01*
X37769737Y-65766503D01*
X37716421Y-65637785D01*
X37707063Y-65615192D01*
X37708611Y-65614550D01*
X37696003Y-65554028D01*
X37712870Y-65500845D01*
X37772869Y-65399393D01*
X37811990Y-65264737D01*
X37817664Y-65245208D01*
X37817664Y-65245206D01*
X37817665Y-65245204D01*
X37820500Y-65209181D01*
X37820499Y-64810820D01*
X37817665Y-64774796D01*
X37804387Y-64729092D01*
X37804587Y-64659225D01*
X37842530Y-64600555D01*
X37906168Y-64571712D01*
X37923464Y-64570500D01*
X38740382Y-64570500D01*
X38807421Y-64590185D01*
X38841099Y-64624591D01*
X38842085Y-64623875D01*
X38969890Y-64799786D01*
X39120213Y-64950109D01*
X39292182Y-65075050D01*
X39300946Y-65079516D01*
X39351742Y-65127491D01*
X39368536Y-65195312D01*
X39345998Y-65261447D01*
X39300946Y-65300484D01*
X39292182Y-65304949D01*
X39120213Y-65429890D01*
X38969890Y-65580213D01*
X38844951Y-65752179D01*
X38748444Y-65941585D01*
X38682753Y-66143760D01*
X38649500Y-66353713D01*
X38649500Y-66566286D01*
X38681723Y-66769738D01*
X38682754Y-66776243D01*
X38690635Y-66800499D01*
X38748444Y-66978414D01*
X38844951Y-67167820D01*
X38969890Y-67339786D01*
X39120213Y-67490109D01*
X39292179Y-67615048D01*
X39292181Y-67615049D01*
X39292184Y-67615051D01*
X39481588Y-67711557D01*
X39683757Y-67777246D01*
X39893713Y-67810500D01*
X39893714Y-67810500D01*
X40106286Y-67810500D01*
X40106287Y-67810500D01*
X40316243Y-67777246D01*
X40518412Y-67711557D01*
X40707816Y-67615051D01*
X40752681Y-67582455D01*
X40879786Y-67490109D01*
X40879788Y-67490106D01*
X40879792Y-67490104D01*
X41030104Y-67339792D01*
X41030106Y-67339788D01*
X41030109Y-67339786D01*
X41155048Y-67167820D01*
X41155047Y-67167820D01*
X41155051Y-67167816D01*
X41159514Y-67159054D01*
X41207488Y-67108259D01*
X41275308Y-67091463D01*
X41341444Y-67113999D01*
X41380486Y-67159056D01*
X41384951Y-67167820D01*
X41509890Y-67339786D01*
X41660213Y-67490109D01*
X41832182Y-67615050D01*
X41840946Y-67619516D01*
X41891742Y-67667491D01*
X41908536Y-67735312D01*
X41885998Y-67801447D01*
X41840946Y-67840484D01*
X41832182Y-67844949D01*
X41660213Y-67969890D01*
X41509890Y-68120213D01*
X41384951Y-68292179D01*
X41288444Y-68481585D01*
X41222753Y-68683760D01*
X41189500Y-68893713D01*
X41189500Y-69106287D01*
X41192543Y-69125500D01*
X41216560Y-69277140D01*
X41222754Y-69316243D01*
X41272875Y-69470500D01*
X41288444Y-69518414D01*
X41384951Y-69707820D01*
X41509890Y-69879786D01*
X41660213Y-70030109D01*
X41832179Y-70155048D01*
X41832181Y-70155049D01*
X41832184Y-70155051D01*
X42021588Y-70251557D01*
X42223757Y-70317246D01*
X42433713Y-70350500D01*
X42433714Y-70350500D01*
X42646286Y-70350500D01*
X42646287Y-70350500D01*
X42856243Y-70317246D01*
X43058412Y-70251557D01*
X43247816Y-70155051D01*
X43269789Y-70139086D01*
X43419786Y-70030109D01*
X43419788Y-70030106D01*
X43419792Y-70030104D01*
X43570104Y-69879792D01*
X43570106Y-69879788D01*
X43570109Y-69879786D01*
X43695048Y-69707820D01*
X43695047Y-69707820D01*
X43695051Y-69707816D01*
X43791557Y-69518412D01*
X43857246Y-69316243D01*
X43890500Y-69106287D01*
X43890500Y-68893713D01*
X43857246Y-68683757D01*
X43791557Y-68481588D01*
X43695051Y-68292184D01*
X43695049Y-68292181D01*
X43695048Y-68292179D01*
X43570109Y-68120213D01*
X43419786Y-67969890D01*
X43247820Y-67844951D01*
X43246935Y-67844500D01*
X43239054Y-67840485D01*
X43188259Y-67792512D01*
X43171463Y-67724692D01*
X43193999Y-67658556D01*
X43239054Y-67619515D01*
X43247816Y-67615051D01*
X43292681Y-67582455D01*
X43419786Y-67490109D01*
X43419788Y-67490106D01*
X43419792Y-67490104D01*
X43570104Y-67339792D01*
X43570106Y-67339788D01*
X43570109Y-67339786D01*
X43695048Y-67167820D01*
X43695047Y-67167820D01*
X43695051Y-67167816D01*
X43791557Y-66978412D01*
X43857246Y-66776243D01*
X43890500Y-66566287D01*
X43890500Y-66353713D01*
X43857246Y-66143757D01*
X43791557Y-65941588D01*
X43695051Y-65752184D01*
X43695049Y-65752181D01*
X43695048Y-65752179D01*
X43570109Y-65580213D01*
X43456569Y-65466673D01*
X43423084Y-65405350D01*
X43428068Y-65335658D01*
X43469940Y-65279725D01*
X43500915Y-65262810D01*
X43632331Y-65213796D01*
X43747546Y-65127546D01*
X43833796Y-65012331D01*
X43884091Y-64877483D01*
X43890500Y-64817873D01*
X43890499Y-63022128D01*
X43884091Y-62962517D01*
X43882810Y-62959083D01*
X43833797Y-62827671D01*
X43833793Y-62827664D01*
X43747547Y-62712455D01*
X43747544Y-62712452D01*
X43632335Y-62626206D01*
X43632328Y-62626202D01*
X43497482Y-62575908D01*
X43497483Y-62575908D01*
X43437883Y-62569501D01*
X43437881Y-62569500D01*
X43437873Y-62569500D01*
X43437864Y-62569500D01*
X41642129Y-62569500D01*
X41642123Y-62569501D01*
X41582516Y-62575908D01*
X41447671Y-62626202D01*
X41447664Y-62626206D01*
X41332455Y-62712452D01*
X41332452Y-62712455D01*
X41246206Y-62827664D01*
X41246203Y-62827669D01*
X41197189Y-62959083D01*
X41155317Y-63015016D01*
X41089853Y-63039433D01*
X41021580Y-63024581D01*
X40993326Y-63003430D01*
X40879786Y-62889890D01*
X40703875Y-62762085D01*
X40704851Y-62760740D01*
X40662834Y-62714295D01*
X40650500Y-62660382D01*
X40650500Y-61320808D01*
X40670185Y-61253769D01*
X40686819Y-61233127D01*
X43005273Y-58914673D01*
X43005277Y-58914669D01*
X43076465Y-58808127D01*
X43125501Y-58689744D01*
X43150500Y-58564069D01*
X43150500Y-58110065D01*
X43170185Y-58043026D01*
X43222989Y-57997271D01*
X43292147Y-57987327D01*
X43347386Y-58009748D01*
X43370801Y-58026760D01*
X43402105Y-58042710D01*
X43539163Y-58112545D01*
X43539165Y-58112545D01*
X43539168Y-58112547D01*
X43635497Y-58143846D01*
X43718881Y-58170940D01*
X43905514Y-58200500D01*
X43905519Y-58200500D01*
X44094486Y-58200500D01*
X44184963Y-58186169D01*
X44281118Y-58170940D01*
X44281123Y-58170938D01*
X44281125Y-58170938D01*
X44311447Y-58161085D01*
X44337180Y-58152723D01*
X44407021Y-58150727D01*
X44466854Y-58186806D01*
X44497683Y-58249507D01*
X44499500Y-58270654D01*
X44499500Y-74997293D01*
X44499382Y-75002702D01*
X44482614Y-75386750D01*
X44481671Y-75397526D01*
X44431849Y-75775957D01*
X44429971Y-75786610D01*
X44347354Y-76159272D01*
X44344554Y-76169721D01*
X44229775Y-76533755D01*
X44226075Y-76543921D01*
X44080002Y-76896572D01*
X44075430Y-76906376D01*
X43899183Y-77244942D01*
X43893775Y-77254310D01*
X43688681Y-77576244D01*
X43682476Y-77585105D01*
X43450110Y-77887930D01*
X43443156Y-77896217D01*
X43185284Y-78177635D01*
X43177635Y-78185284D01*
X42896217Y-78443156D01*
X42887930Y-78450110D01*
X42585105Y-78682476D01*
X42576244Y-78688681D01*
X42254310Y-78893775D01*
X42244942Y-78899183D01*
X41906376Y-79075430D01*
X41896572Y-79080002D01*
X41543921Y-79226075D01*
X41533755Y-79229775D01*
X41169721Y-79344554D01*
X41159272Y-79347354D01*
X40786610Y-79429971D01*
X40775957Y-79431849D01*
X40397526Y-79481671D01*
X40386750Y-79482614D01*
X40002703Y-79499382D01*
X39997294Y-79499500D01*
X25694048Y-79499500D01*
X25627009Y-79479815D01*
X25581254Y-79427011D01*
X25571310Y-79357853D01*
X25600335Y-79294297D01*
X25650715Y-79259318D01*
X25692328Y-79243797D01*
X25692327Y-79243797D01*
X25692331Y-79243796D01*
X25807546Y-79157546D01*
X25893796Y-79042331D01*
X25944091Y-78907483D01*
X25950500Y-78847873D01*
X25950499Y-77852128D01*
X25944091Y-77792517D01*
X25893796Y-77657669D01*
X25893795Y-77657668D01*
X25893793Y-77657664D01*
X25807547Y-77542455D01*
X25807544Y-77542452D01*
X25692335Y-77456206D01*
X25692328Y-77456202D01*
X25557482Y-77405908D01*
X25557483Y-77405908D01*
X25497883Y-77399501D01*
X25497881Y-77399500D01*
X25497873Y-77399500D01*
X25497865Y-77399500D01*
X25370807Y-77399500D01*
X25303768Y-77379815D01*
X25283126Y-77363181D01*
X24642882Y-76722936D01*
X24609397Y-76661613D01*
X24614381Y-76591921D01*
X24645165Y-76547934D01*
X24643919Y-76546688D01*
X24656852Y-76533755D01*
X24803242Y-76387365D01*
X24932815Y-76209022D01*
X25032895Y-76012606D01*
X25101015Y-75802951D01*
X25135500Y-75585222D01*
X25135500Y-75364778D01*
X25101015Y-75147049D01*
X25032895Y-74937394D01*
X25032895Y-74937393D01*
X24990633Y-74854451D01*
X24932815Y-74740978D01*
X24916260Y-74718192D01*
X24803247Y-74562641D01*
X24803243Y-74562636D01*
X24647363Y-74406756D01*
X24647358Y-74406752D01*
X24469025Y-74277187D01*
X24469024Y-74277186D01*
X24469022Y-74277185D01*
X24370783Y-74227129D01*
X24272606Y-74177104D01*
X24272603Y-74177103D01*
X24062952Y-74108985D01*
X23954086Y-74091742D01*
X23845222Y-74074500D01*
X23624778Y-74074500D01*
X23552201Y-74085995D01*
X23407047Y-74108985D01*
X23197396Y-74177103D01*
X23197393Y-74177104D01*
X23000974Y-74277187D01*
X22934039Y-74325818D01*
X22868233Y-74349298D01*
X22861154Y-74349500D01*
X21629596Y-74349500D01*
X21562557Y-74329815D01*
X21541915Y-74313181D01*
X21537603Y-74308869D01*
X21537595Y-74308863D01*
X21399393Y-74227131D01*
X21399388Y-74227129D01*
X21245208Y-74182335D01*
X21245202Y-74182334D01*
X21209181Y-74179500D01*
X20810830Y-74179500D01*
X20810808Y-74179501D01*
X20774794Y-74182335D01*
X20620611Y-74227129D01*
X20620607Y-74227130D01*
X20600633Y-74238943D01*
X20532908Y-74256122D01*
X20466646Y-74233960D01*
X20449835Y-74219889D01*
X16186819Y-69956873D01*
X16153334Y-69895550D01*
X16150500Y-69869192D01*
X16150500Y-58113702D01*
X16170185Y-58046663D01*
X16186819Y-58026021D01*
X16637819Y-57575021D01*
X16699142Y-57541536D01*
X16768834Y-57546520D01*
X16824767Y-57588392D01*
X16849184Y-57653856D01*
X16849500Y-57662702D01*
X16849500Y-59064069D01*
X16866693Y-59150500D01*
X16874499Y-59189744D01*
X16923535Y-59308127D01*
X16959430Y-59361848D01*
X16994726Y-59414673D01*
X16994727Y-59414674D01*
X17963181Y-60383127D01*
X17996666Y-60444450D01*
X17999500Y-60470808D01*
X17999500Y-60598541D01*
X17999500Y-60598543D01*
X17999499Y-60598543D01*
X18037947Y-60791829D01*
X18037950Y-60791839D01*
X18113364Y-60973907D01*
X18113371Y-60973920D01*
X18222860Y-61137781D01*
X18222863Y-61137785D01*
X18362214Y-61277136D01*
X18362218Y-61277139D01*
X18526079Y-61386628D01*
X18526092Y-61386635D01*
X18636095Y-61432199D01*
X18708165Y-61462051D01*
X18708169Y-61462051D01*
X18708170Y-61462052D01*
X18901456Y-61500500D01*
X18901459Y-61500500D01*
X19098543Y-61500500D01*
X19228582Y-61474632D01*
X19291835Y-61462051D01*
X19473914Y-61386632D01*
X19637782Y-61277139D01*
X19777139Y-61137782D01*
X19886632Y-60973914D01*
X19962051Y-60791835D01*
X19981935Y-60691873D01*
X20000500Y-60598543D01*
X20000500Y-60401456D01*
X19962052Y-60208170D01*
X19962051Y-60208169D01*
X19962051Y-60208165D01*
X19962049Y-60208160D01*
X19886635Y-60026092D01*
X19886628Y-60026079D01*
X19777139Y-59862218D01*
X19777136Y-59862214D01*
X19637785Y-59722863D01*
X19637781Y-59722860D01*
X19473920Y-59613371D01*
X19473907Y-59613364D01*
X19291839Y-59537950D01*
X19291829Y-59537947D01*
X19098543Y-59499500D01*
X19098541Y-59499500D01*
X18970808Y-59499500D01*
X18903769Y-59479815D01*
X18883127Y-59463181D01*
X18186819Y-58766873D01*
X18153334Y-58705550D01*
X18150500Y-58679192D01*
X18150500Y-52820808D01*
X18170185Y-52753769D01*
X18186819Y-52733127D01*
X19233127Y-51686819D01*
X19294450Y-51653334D01*
X19320808Y-51650500D01*
X22679192Y-51650500D01*
X22746231Y-51670185D01*
G37*
%TD.AperFunction*%
%TA.AperFunction,Conductor*%
G36*
X29543333Y-55080344D02*
G01*
X29587680Y-55108845D01*
X30016122Y-55537286D01*
X30428193Y-55949357D01*
X30455243Y-55972462D01*
X30456662Y-55973242D01*
X30593727Y-56048594D01*
X30593728Y-56048594D01*
X30593733Y-56048597D01*
X30607857Y-56052223D01*
X30664700Y-56084646D01*
X30932984Y-56352930D01*
X30966469Y-56414253D01*
X30966920Y-56416420D01*
X30980261Y-56483489D01*
X30980264Y-56483501D01*
X31040602Y-56629172D01*
X31040609Y-56629185D01*
X31128210Y-56760288D01*
X31128213Y-56760292D01*
X31239707Y-56871786D01*
X31239711Y-56871789D01*
X31370814Y-56959390D01*
X31370827Y-56959397D01*
X31474126Y-57002184D01*
X31516503Y-57019737D01*
X31650496Y-57046390D01*
X31671153Y-57050499D01*
X31671156Y-57050500D01*
X31725500Y-57050500D01*
X31792539Y-57070185D01*
X31838294Y-57122989D01*
X31849500Y-57174500D01*
X31849500Y-62679191D01*
X31829815Y-62746230D01*
X31813181Y-62766872D01*
X31362181Y-63217872D01*
X31300858Y-63251357D01*
X31231166Y-63246373D01*
X31175233Y-63204501D01*
X31150816Y-63139037D01*
X31150500Y-63130191D01*
X31150500Y-58435928D01*
X31125502Y-58310261D01*
X31125501Y-58310260D01*
X31125501Y-58310256D01*
X31081212Y-58203333D01*
X31076466Y-58191875D01*
X31076463Y-58191870D01*
X31062479Y-58170942D01*
X31062477Y-58170939D01*
X31005277Y-58085331D01*
X31005275Y-58085329D01*
X31005273Y-58085326D01*
X29214547Y-56294600D01*
X29181062Y-56233277D01*
X29178228Y-56206919D01*
X29178228Y-55394297D01*
X29197913Y-55327258D01*
X29214543Y-55306620D01*
X29412318Y-55108844D01*
X29473641Y-55075360D01*
X29543333Y-55080344D01*
G37*
%TD.AperFunction*%
%TA.AperFunction,Conductor*%
G36*
X37414750Y-52253542D02*
G01*
X37454580Y-52291294D01*
X37504223Y-52365591D01*
X37504229Y-52365598D01*
X39463181Y-54324549D01*
X39496666Y-54385872D01*
X39499500Y-54412230D01*
X39499500Y-54594486D01*
X39529059Y-54781118D01*
X39587454Y-54960836D01*
X39648347Y-55080344D01*
X39673240Y-55129199D01*
X39784310Y-55282073D01*
X39917927Y-55415690D01*
X40032582Y-55498992D01*
X40070802Y-55526761D01*
X40163264Y-55573872D01*
X40214061Y-55621846D01*
X40230856Y-55689667D01*
X40208319Y-55755802D01*
X40153604Y-55799254D01*
X40119576Y-55807715D01*
X40097200Y-55810001D01*
X39930668Y-55865185D01*
X39930663Y-55865187D01*
X39781342Y-55957289D01*
X39657289Y-56081342D01*
X39565187Y-56230663D01*
X39565185Y-56230668D01*
X39556035Y-56258282D01*
X39510001Y-56397203D01*
X39510001Y-56397204D01*
X39510000Y-56397204D01*
X39499500Y-56499983D01*
X39499500Y-57087770D01*
X39479815Y-57154809D01*
X39463181Y-57175451D01*
X33862181Y-62776451D01*
X33800858Y-62809936D01*
X33731166Y-62804952D01*
X33675233Y-62763080D01*
X33650816Y-62697616D01*
X33650500Y-62688770D01*
X33650500Y-55132984D01*
X33625502Y-55007317D01*
X33625501Y-55007316D01*
X33625501Y-55007312D01*
X33576465Y-54888929D01*
X33575838Y-54887991D01*
X33575830Y-54887979D01*
X33575826Y-54887972D01*
X33505275Y-54782384D01*
X33505272Y-54782381D01*
X33035533Y-54312643D01*
X33002048Y-54251320D01*
X33007032Y-54181629D01*
X33035530Y-54137283D01*
X33186615Y-53986200D01*
X33209720Y-53959149D01*
X33280846Y-53829770D01*
X33329771Y-53780846D01*
X33329968Y-53780738D01*
X33444221Y-53717927D01*
X33459146Y-53709722D01*
X33459147Y-53709721D01*
X33459149Y-53709720D01*
X33474356Y-53696731D01*
X33486197Y-53686619D01*
X33486208Y-53686608D01*
X33752284Y-53420531D01*
X33752283Y-53420531D01*
X33752301Y-53420514D01*
X33775406Y-53393463D01*
X33846532Y-53264084D01*
X33895456Y-53215161D01*
X33895653Y-53215053D01*
X33975894Y-53170940D01*
X34024831Y-53144037D01*
X34024832Y-53144036D01*
X34024834Y-53144035D01*
X34051885Y-53120931D01*
X34137818Y-53034996D01*
X34199141Y-53001512D01*
X34268833Y-53006496D01*
X34324767Y-53048367D01*
X34349184Y-53113831D01*
X34349500Y-53122678D01*
X34349500Y-53495064D01*
X34329815Y-53562103D01*
X34328603Y-53563954D01*
X34290608Y-53620817D01*
X34290602Y-53620828D01*
X34230264Y-53766498D01*
X34230261Y-53766510D01*
X34199500Y-53921153D01*
X34199500Y-54078846D01*
X34230261Y-54233489D01*
X34230264Y-54233501D01*
X34290602Y-54379172D01*
X34290609Y-54379185D01*
X34378210Y-54510288D01*
X34378213Y-54510292D01*
X34489707Y-54621786D01*
X34489711Y-54621789D01*
X34620814Y-54709390D01*
X34620827Y-54709397D01*
X34766498Y-54769735D01*
X34766503Y-54769737D01*
X34917574Y-54799787D01*
X34921153Y-54800499D01*
X34921156Y-54800500D01*
X34921158Y-54800500D01*
X35078844Y-54800500D01*
X35078845Y-54800499D01*
X35233497Y-54769737D01*
X35379179Y-54709394D01*
X35510289Y-54621789D01*
X35621789Y-54510289D01*
X35709394Y-54379179D01*
X35769737Y-54233497D01*
X35800500Y-54078842D01*
X35800500Y-53921158D01*
X35800500Y-53917847D01*
X35820185Y-53850808D01*
X35872989Y-53805053D01*
X35900309Y-53796230D01*
X35927054Y-53790910D01*
X36033497Y-53769737D01*
X36179179Y-53709394D01*
X36310289Y-53621789D01*
X36421789Y-53510289D01*
X36509394Y-53379179D01*
X36569737Y-53233497D01*
X36600500Y-53078842D01*
X36600500Y-53074767D01*
X36604348Y-53044116D01*
X36606542Y-53035514D01*
X36625501Y-52989744D01*
X36650500Y-52864069D01*
X36650500Y-52863198D01*
X36652105Y-52856907D01*
X36668303Y-52829598D01*
X36683025Y-52801455D01*
X36686119Y-52799562D01*
X36687750Y-52796814D01*
X36703570Y-52788891D01*
X36728519Y-52773637D01*
X36727869Y-52772068D01*
X36734200Y-52769446D01*
X36879179Y-52709394D01*
X37010289Y-52621789D01*
X37121789Y-52510289D01*
X37209394Y-52379179D01*
X37236918Y-52312729D01*
X37280757Y-52258329D01*
X37347051Y-52236263D01*
X37414750Y-52253542D01*
G37*
%TD.AperFunction*%
%TA.AperFunction,Conductor*%
G36*
X40030769Y-7754430D02*
G01*
X40075117Y-7782931D01*
X43179697Y-10887511D01*
X43183432Y-10891412D01*
X43292370Y-11010295D01*
X43443159Y-11174851D01*
X43450113Y-11183138D01*
X43682481Y-11485965D01*
X43688686Y-11494827D01*
X43893773Y-11816750D01*
X43899181Y-11826118D01*
X44075433Y-12164696D01*
X44080005Y-12174501D01*
X44226070Y-12527140D01*
X44229770Y-12537305D01*
X44344548Y-12901340D01*
X44347348Y-12911790D01*
X44429962Y-13284453D01*
X44431840Y-13295106D01*
X44481656Y-13673534D01*
X44482599Y-13684311D01*
X44499381Y-14068791D01*
X44499499Y-14074196D01*
X44499499Y-14107126D01*
X44499499Y-14136953D01*
X44499499Y-14136955D01*
X44499500Y-14146947D01*
X44499500Y-50729345D01*
X44479815Y-50796384D01*
X44427011Y-50842139D01*
X44357853Y-50852083D01*
X44337181Y-50847276D01*
X44281118Y-50829059D01*
X44094486Y-50799500D01*
X44094481Y-50799500D01*
X43905519Y-50799500D01*
X43905514Y-50799500D01*
X43718881Y-50829059D01*
X43539163Y-50887454D01*
X43370800Y-50973240D01*
X43283579Y-51036610D01*
X43217927Y-51084310D01*
X43217925Y-51084312D01*
X43217924Y-51084312D01*
X43084312Y-51217924D01*
X43084312Y-51217925D01*
X43084310Y-51217927D01*
X43051255Y-51263423D01*
X42973240Y-51370800D01*
X42887454Y-51539163D01*
X42829059Y-51718881D01*
X42799500Y-51905513D01*
X42799500Y-52094486D01*
X42829059Y-52281118D01*
X42887454Y-52460836D01*
X42966953Y-52616860D01*
X42973240Y-52629199D01*
X43084310Y-52782073D01*
X43217927Y-52915690D01*
X43370801Y-53026760D01*
X43424640Y-53054192D01*
X43539163Y-53112545D01*
X43539165Y-53112545D01*
X43539168Y-53112547D01*
X43599251Y-53132069D01*
X43656926Y-53171507D01*
X43684124Y-53235866D01*
X43672209Y-53304712D01*
X43624965Y-53356188D01*
X43599253Y-53367930D01*
X43580756Y-53373939D01*
X43539163Y-53387454D01*
X43370800Y-53473240D01*
X43288991Y-53532679D01*
X43217927Y-53584310D01*
X43217925Y-53584312D01*
X43217924Y-53584312D01*
X43084312Y-53717924D01*
X43084312Y-53717925D01*
X43084310Y-53717927D01*
X43045294Y-53771628D01*
X42973240Y-53870800D01*
X42887454Y-54039163D01*
X42829059Y-54218881D01*
X42799500Y-54405513D01*
X42799500Y-54594486D01*
X42829059Y-54781118D01*
X42887454Y-54960836D01*
X42948347Y-55080344D01*
X42973240Y-55129199D01*
X43084310Y-55282073D01*
X43217927Y-55415690D01*
X43370801Y-55526760D01*
X43450347Y-55567290D01*
X43539163Y-55612545D01*
X43539165Y-55612545D01*
X43539168Y-55612547D01*
X43599251Y-55632069D01*
X43656926Y-55671507D01*
X43684124Y-55735866D01*
X43672209Y-55804712D01*
X43624965Y-55856188D01*
X43599253Y-55867930D01*
X43580756Y-55873939D01*
X43539163Y-55887454D01*
X43370797Y-55973242D01*
X43265873Y-56049474D01*
X43200067Y-56072954D01*
X43132013Y-56057129D01*
X43086716Y-56013049D01*
X43081959Y-56005137D01*
X43076465Y-55991873D01*
X43053356Y-55957288D01*
X43005276Y-55885330D01*
X43005274Y-55885328D01*
X43005272Y-55885325D01*
X43005271Y-55885324D01*
X41919733Y-54799787D01*
X41886248Y-54738464D01*
X41884941Y-54692713D01*
X41900500Y-54594481D01*
X41900500Y-54405519D01*
X41900500Y-54405513D01*
X41870940Y-54218881D01*
X41825439Y-54078846D01*
X41812547Y-54039168D01*
X41812545Y-54039165D01*
X41812545Y-54039163D01*
X41762963Y-53941853D01*
X41726760Y-53870801D01*
X41615690Y-53717927D01*
X41482073Y-53584310D01*
X41329199Y-53473240D01*
X41225704Y-53420507D01*
X41160834Y-53387454D01*
X41160833Y-53387453D01*
X41160832Y-53387453D01*
X41100748Y-53367930D01*
X41043073Y-53328493D01*
X41015875Y-53264135D01*
X41027790Y-53195288D01*
X41075034Y-53143813D01*
X41100746Y-53132069D01*
X41160832Y-53112547D01*
X41329199Y-53026760D01*
X41482073Y-52915690D01*
X41615690Y-52782073D01*
X41726760Y-52629199D01*
X41812547Y-52460832D01*
X41870940Y-52281118D01*
X41878044Y-52236263D01*
X41900500Y-52094486D01*
X41900500Y-51905513D01*
X41870940Y-51718881D01*
X41823576Y-51573112D01*
X41812547Y-51539168D01*
X41812545Y-51539165D01*
X41812545Y-51539163D01*
X41767290Y-51450347D01*
X41726760Y-51370801D01*
X41615690Y-51217927D01*
X41482073Y-51084310D01*
X41329199Y-50973240D01*
X41304829Y-50960823D01*
X41160836Y-50887454D01*
X40981118Y-50829059D01*
X40794486Y-50799500D01*
X40794481Y-50799500D01*
X40605519Y-50799500D01*
X40605514Y-50799500D01*
X40418881Y-50829059D01*
X40239163Y-50887454D01*
X40070800Y-50973240D01*
X39983579Y-51036610D01*
X39917927Y-51084310D01*
X39917925Y-51084312D01*
X39917924Y-51084312D01*
X39784312Y-51217924D01*
X39784312Y-51217925D01*
X39784310Y-51217927D01*
X39751255Y-51263423D01*
X39673240Y-51370800D01*
X39587454Y-51539163D01*
X39529059Y-51718881D01*
X39499500Y-51905513D01*
X39499500Y-51938770D01*
X39479815Y-52005809D01*
X39427011Y-52051564D01*
X39357853Y-52061508D01*
X39294297Y-52032483D01*
X39287819Y-52026451D01*
X38873996Y-51612628D01*
X38840511Y-51551305D01*
X38837677Y-51524947D01*
X38837677Y-47421153D01*
X40199500Y-47421153D01*
X40199500Y-47578846D01*
X40230261Y-47733489D01*
X40230264Y-47733501D01*
X40290602Y-47879172D01*
X40290609Y-47879185D01*
X40378210Y-48010288D01*
X40378213Y-48010292D01*
X40489707Y-48121786D01*
X40489711Y-48121789D01*
X40620814Y-48209390D01*
X40620827Y-48209397D01*
X40766498Y-48269735D01*
X40766503Y-48269737D01*
X40871418Y-48290606D01*
X40921153Y-48300499D01*
X40921156Y-48300500D01*
X40921158Y-48300500D01*
X41078844Y-48300500D01*
X41078845Y-48300499D01*
X41233497Y-48269737D01*
X41379179Y-48209394D01*
X41436044Y-48171397D01*
X41454091Y-48165746D01*
X41470000Y-48155523D01*
X41500959Y-48151071D01*
X41502721Y-48150520D01*
X41504935Y-48150500D01*
X41684217Y-48150500D01*
X41751256Y-48170185D01*
X41771893Y-48186814D01*
X41817947Y-48232868D01*
X41862219Y-48277140D01*
X42026079Y-48386628D01*
X42026092Y-48386635D01*
X42189474Y-48454309D01*
X42208165Y-48462051D01*
X42208169Y-48462051D01*
X42208170Y-48462052D01*
X42401456Y-48500500D01*
X42401459Y-48500500D01*
X42598543Y-48500500D01*
X42728582Y-48474632D01*
X42791835Y-48462051D01*
X42973914Y-48386632D01*
X43137782Y-48277139D01*
X43277139Y-48137782D01*
X43386632Y-47973914D01*
X43462051Y-47791835D01*
X43500500Y-47598541D01*
X43500500Y-47401459D01*
X43500500Y-47401456D01*
X43462052Y-47208170D01*
X43462051Y-47208169D01*
X43462051Y-47208165D01*
X43447696Y-47173509D01*
X43386635Y-47026092D01*
X43386628Y-47026079D01*
X43277139Y-46862218D01*
X43277136Y-46862214D01*
X43137785Y-46722863D01*
X43137781Y-46722860D01*
X42973920Y-46613371D01*
X42973907Y-46613364D01*
X42791839Y-46537950D01*
X42791829Y-46537947D01*
X42598543Y-46499500D01*
X42598541Y-46499500D01*
X42401459Y-46499500D01*
X42401457Y-46499500D01*
X42208170Y-46537947D01*
X42208160Y-46537950D01*
X42026092Y-46613364D01*
X42026079Y-46613371D01*
X41862219Y-46722859D01*
X41834936Y-46750143D01*
X41771896Y-46813182D01*
X41744965Y-46827888D01*
X41719152Y-46844477D01*
X41712952Y-46845368D01*
X41710576Y-46846666D01*
X41684217Y-46849500D01*
X41504935Y-46849500D01*
X41437896Y-46829815D01*
X41436090Y-46828633D01*
X41379179Y-46790606D01*
X41379172Y-46790602D01*
X41233501Y-46730264D01*
X41233489Y-46730261D01*
X41078845Y-46699500D01*
X41078842Y-46699500D01*
X40921158Y-46699500D01*
X40921155Y-46699500D01*
X40766510Y-46730261D01*
X40766498Y-46730264D01*
X40620827Y-46790602D01*
X40620814Y-46790609D01*
X40489711Y-46878210D01*
X40489707Y-46878213D01*
X40378213Y-46989707D01*
X40378210Y-46989711D01*
X40290609Y-47120814D01*
X40290602Y-47120827D01*
X40230264Y-47266498D01*
X40230261Y-47266510D01*
X40199500Y-47421153D01*
X38837677Y-47421153D01*
X38837677Y-46532768D01*
X38857362Y-46465729D01*
X38873992Y-46445091D01*
X39598976Y-45720107D01*
X39664234Y-45639999D01*
X39742972Y-45483218D01*
X39757682Y-45421153D01*
X40199500Y-45421153D01*
X40199500Y-45578846D01*
X40230261Y-45733489D01*
X40230264Y-45733501D01*
X40290602Y-45879172D01*
X40290609Y-45879185D01*
X40378210Y-46010288D01*
X40378213Y-46010292D01*
X40489707Y-46121786D01*
X40489711Y-46121789D01*
X40620814Y-46209390D01*
X40620827Y-46209397D01*
X40758695Y-46266503D01*
X40766503Y-46269737D01*
X40879165Y-46292147D01*
X40921153Y-46300499D01*
X40921156Y-46300500D01*
X40921158Y-46300500D01*
X41078844Y-46300500D01*
X41078845Y-46300499D01*
X41233497Y-46269737D01*
X41379179Y-46209394D01*
X41436044Y-46171397D01*
X41502721Y-46150520D01*
X41504935Y-46150500D01*
X42064071Y-46150500D01*
X42152854Y-46132839D01*
X42189744Y-46125501D01*
X42308127Y-46076465D01*
X42323506Y-46066189D01*
X42390542Y-46021397D01*
X42457219Y-46000520D01*
X42459432Y-46000500D01*
X42598543Y-46000500D01*
X42728582Y-45974632D01*
X42791835Y-45962051D01*
X42973914Y-45886632D01*
X43137782Y-45777139D01*
X43277139Y-45637782D01*
X43386632Y-45473914D01*
X43462051Y-45291835D01*
X43496067Y-45120827D01*
X43500500Y-45098543D01*
X43500500Y-44901456D01*
X43462052Y-44708170D01*
X43462051Y-44708169D01*
X43462051Y-44708165D01*
X43455747Y-44692946D01*
X43386635Y-44526092D01*
X43386628Y-44526079D01*
X43277139Y-44362218D01*
X43277136Y-44362214D01*
X43137785Y-44222863D01*
X43137781Y-44222860D01*
X42973920Y-44113371D01*
X42973907Y-44113364D01*
X42791839Y-44037950D01*
X42791829Y-44037947D01*
X42598543Y-43999500D01*
X42598541Y-43999500D01*
X42401459Y-43999500D01*
X42401457Y-43999500D01*
X42208170Y-44037947D01*
X42208160Y-44037950D01*
X42026092Y-44113364D01*
X42026079Y-44113371D01*
X41862218Y-44222860D01*
X41862214Y-44222863D01*
X41722863Y-44362214D01*
X41722860Y-44362218D01*
X41613371Y-44526079D01*
X41613364Y-44526092D01*
X41537948Y-44708165D01*
X41537719Y-44708922D01*
X41537491Y-44709269D01*
X41535618Y-44713792D01*
X41534759Y-44713436D01*
X41499413Y-44767355D01*
X41435597Y-44795803D01*
X41371611Y-44787471D01*
X41233501Y-44730264D01*
X41233489Y-44730261D01*
X41078845Y-44699500D01*
X41078842Y-44699500D01*
X40921158Y-44699500D01*
X40921155Y-44699500D01*
X40766510Y-44730261D01*
X40766498Y-44730264D01*
X40620827Y-44790602D01*
X40620814Y-44790609D01*
X40489711Y-44878210D01*
X40489707Y-44878213D01*
X40378213Y-44989707D01*
X40378210Y-44989711D01*
X40290609Y-45120814D01*
X40290602Y-45120827D01*
X40230264Y-45266498D01*
X40230261Y-45266510D01*
X40199500Y-45421153D01*
X39757682Y-45421153D01*
X39783433Y-45312506D01*
X39783433Y-45137064D01*
X39742972Y-44966351D01*
X39742972Y-44966350D01*
X39664236Y-44809574D01*
X39664234Y-44809570D01*
X39599630Y-44730263D01*
X39598985Y-44729471D01*
X39598971Y-44729456D01*
X38944898Y-44075385D01*
X38944891Y-44075378D01*
X38944883Y-44075371D01*
X38944877Y-44075366D01*
X38883360Y-44025252D01*
X38843816Y-43967649D01*
X38837677Y-43929115D01*
X38837677Y-43013256D01*
X38808836Y-42868269D01*
X38808835Y-42868268D01*
X38808835Y-42868264D01*
X38770120Y-42774797D01*
X38752262Y-42731684D01*
X38737370Y-42709397D01*
X38697512Y-42649744D01*
X38670129Y-42608761D01*
X38482521Y-42421153D01*
X40199500Y-42421153D01*
X40199500Y-42578846D01*
X40230261Y-42733489D01*
X40230264Y-42733501D01*
X40290602Y-42879172D01*
X40290609Y-42879185D01*
X40378210Y-43010288D01*
X40378213Y-43010292D01*
X40489707Y-43121786D01*
X40489711Y-43121789D01*
X40620814Y-43209390D01*
X40620827Y-43209397D01*
X40765752Y-43269426D01*
X40766503Y-43269737D01*
X40882835Y-43292877D01*
X40921153Y-43300499D01*
X40921156Y-43300500D01*
X40921158Y-43300500D01*
X41078844Y-43300500D01*
X41078845Y-43300499D01*
X41233497Y-43269737D01*
X41379179Y-43209394D01*
X41436044Y-43171397D01*
X41454091Y-43165746D01*
X41470000Y-43155523D01*
X41500959Y-43151071D01*
X41502721Y-43150520D01*
X41504935Y-43150500D01*
X41684217Y-43150500D01*
X41751256Y-43170185D01*
X41771893Y-43186814D01*
X41817947Y-43232868D01*
X41862219Y-43277140D01*
X42026079Y-43386628D01*
X42026092Y-43386635D01*
X42177639Y-43449407D01*
X42208165Y-43462051D01*
X42208169Y-43462051D01*
X42208170Y-43462052D01*
X42401456Y-43500500D01*
X42401459Y-43500500D01*
X42598543Y-43500500D01*
X42728582Y-43474632D01*
X42791835Y-43462051D01*
X42973914Y-43386632D01*
X43137782Y-43277139D01*
X43277139Y-43137782D01*
X43386632Y-42973914D01*
X43462051Y-42791835D01*
X43495876Y-42621789D01*
X43500500Y-42598543D01*
X43500500Y-42401456D01*
X43462052Y-42208170D01*
X43462051Y-42208169D01*
X43462051Y-42208165D01*
X43425872Y-42120821D01*
X43386635Y-42026092D01*
X43386628Y-42026079D01*
X43277139Y-41862218D01*
X43277136Y-41862214D01*
X43137785Y-41722863D01*
X43137781Y-41722860D01*
X42973920Y-41613371D01*
X42973907Y-41613364D01*
X42791839Y-41537950D01*
X42791829Y-41537947D01*
X42598543Y-41499500D01*
X42598541Y-41499500D01*
X42401459Y-41499500D01*
X42401457Y-41499500D01*
X42208170Y-41537947D01*
X42208160Y-41537950D01*
X42026092Y-41613364D01*
X42026079Y-41613371D01*
X41862219Y-41722859D01*
X41830288Y-41754791D01*
X41771896Y-41813182D01*
X41744965Y-41827888D01*
X41719152Y-41844477D01*
X41712952Y-41845368D01*
X41710576Y-41846666D01*
X41684217Y-41849500D01*
X41504935Y-41849500D01*
X41437896Y-41829815D01*
X41436090Y-41828633D01*
X41379179Y-41790606D01*
X41379172Y-41790602D01*
X41233501Y-41730264D01*
X41233489Y-41730261D01*
X41078845Y-41699500D01*
X41078842Y-41699500D01*
X40921158Y-41699500D01*
X40921155Y-41699500D01*
X40766510Y-41730261D01*
X40766498Y-41730264D01*
X40620827Y-41790602D01*
X40620814Y-41790609D01*
X40489711Y-41878210D01*
X40489707Y-41878213D01*
X40378213Y-41989707D01*
X40378210Y-41989711D01*
X40290609Y-42120814D01*
X40290602Y-42120827D01*
X40230264Y-42266498D01*
X40230261Y-42266510D01*
X40199500Y-42421153D01*
X38482521Y-42421153D01*
X35982521Y-39921153D01*
X40199500Y-39921153D01*
X40199500Y-40078846D01*
X40230261Y-40233489D01*
X40230264Y-40233501D01*
X40290602Y-40379172D01*
X40290609Y-40379185D01*
X40378210Y-40510288D01*
X40378213Y-40510292D01*
X40489707Y-40621786D01*
X40489711Y-40621789D01*
X40620814Y-40709390D01*
X40620827Y-40709397D01*
X40766498Y-40769735D01*
X40766503Y-40769737D01*
X40870468Y-40790417D01*
X40921153Y-40800499D01*
X40921156Y-40800500D01*
X40921158Y-40800500D01*
X41078844Y-40800500D01*
X41078845Y-40800499D01*
X41233497Y-40769737D01*
X41379179Y-40709394D01*
X41436044Y-40671397D01*
X41454091Y-40665746D01*
X41470000Y-40655523D01*
X41500959Y-40651071D01*
X41502721Y-40650520D01*
X41504935Y-40650500D01*
X41684217Y-40650500D01*
X41751256Y-40670185D01*
X41771893Y-40686814D01*
X41817947Y-40732868D01*
X41862219Y-40777140D01*
X42026079Y-40886628D01*
X42026092Y-40886635D01*
X42208160Y-40962049D01*
X42208165Y-40962051D01*
X42208169Y-40962051D01*
X42208170Y-40962052D01*
X42401456Y-41000500D01*
X42401459Y-41000500D01*
X42598543Y-41000500D01*
X42751883Y-40969998D01*
X42791835Y-40962051D01*
X42947058Y-40897756D01*
X42973907Y-40886635D01*
X42973907Y-40886634D01*
X42973914Y-40886632D01*
X43137782Y-40777139D01*
X43277139Y-40637782D01*
X43386632Y-40473914D01*
X43462051Y-40291835D01*
X43500500Y-40098541D01*
X43500500Y-39901459D01*
X43500500Y-39901456D01*
X43462052Y-39708170D01*
X43462051Y-39708169D01*
X43462051Y-39708165D01*
X43425872Y-39620821D01*
X43386635Y-39526092D01*
X43386628Y-39526079D01*
X43277139Y-39362218D01*
X43277136Y-39362214D01*
X43137785Y-39222863D01*
X43137781Y-39222860D01*
X42973920Y-39113371D01*
X42973907Y-39113364D01*
X42791839Y-39037950D01*
X42791829Y-39037947D01*
X42598543Y-38999500D01*
X42598541Y-38999500D01*
X42401459Y-38999500D01*
X42401457Y-38999500D01*
X42208170Y-39037947D01*
X42208160Y-39037950D01*
X42026092Y-39113364D01*
X42026079Y-39113371D01*
X41862219Y-39222859D01*
X41826622Y-39258457D01*
X41771896Y-39313182D01*
X41744965Y-39327888D01*
X41719152Y-39344477D01*
X41712952Y-39345368D01*
X41710576Y-39346666D01*
X41684217Y-39349500D01*
X41504935Y-39349500D01*
X41437896Y-39329815D01*
X41436090Y-39328633D01*
X41379179Y-39290606D01*
X41379172Y-39290602D01*
X41233501Y-39230264D01*
X41233489Y-39230261D01*
X41078845Y-39199500D01*
X41078842Y-39199500D01*
X40921158Y-39199500D01*
X40921155Y-39199500D01*
X40766510Y-39230261D01*
X40766498Y-39230264D01*
X40620827Y-39290602D01*
X40620814Y-39290609D01*
X40489711Y-39378210D01*
X40489707Y-39378213D01*
X40378213Y-39489707D01*
X40378210Y-39489711D01*
X40290609Y-39620814D01*
X40290602Y-39620827D01*
X40230264Y-39766498D01*
X40230261Y-39766510D01*
X40199500Y-39921153D01*
X35982521Y-39921153D01*
X31786819Y-35725451D01*
X31753334Y-35664128D01*
X31750500Y-35637770D01*
X31750500Y-14862229D01*
X31770185Y-14795190D01*
X31786819Y-14774548D01*
X32274548Y-14286819D01*
X32335871Y-14253334D01*
X32362229Y-14250500D01*
X34573920Y-14250500D01*
X34671462Y-14231096D01*
X34718913Y-14221658D01*
X34855495Y-14165084D01*
X34904729Y-14132186D01*
X34978416Y-14082952D01*
X36582951Y-12478416D01*
X36665084Y-12355495D01*
X36721658Y-12218913D01*
X36750500Y-12073918D01*
X36750500Y-11926083D01*
X36750500Y-11249024D01*
X36770185Y-11181985D01*
X36801616Y-11148705D01*
X36912361Y-11068245D01*
X36912361Y-11068244D01*
X36912365Y-11068242D01*
X37068242Y-10912365D01*
X37197815Y-10734022D01*
X37297895Y-10537606D01*
X37366015Y-10327951D01*
X37400500Y-10110222D01*
X37400500Y-9889778D01*
X37379084Y-9754566D01*
X37388038Y-9685276D01*
X37413873Y-9647493D01*
X38123333Y-8938035D01*
X38199904Y-8823436D01*
X38205465Y-8815114D01*
X38237970Y-8736640D01*
X38238922Y-8734564D01*
X38260390Y-8709860D01*
X38280921Y-8684384D01*
X38283187Y-8683629D01*
X38284754Y-8681827D01*
X38316165Y-8672653D01*
X38347215Y-8662319D01*
X38349529Y-8662909D01*
X38351822Y-8662240D01*
X38383203Y-8671504D01*
X38414914Y-8679598D01*
X38418091Y-8681804D01*
X38418833Y-8682023D01*
X38419472Y-8682762D01*
X38429440Y-8689683D01*
X38433734Y-8693144D01*
X38564650Y-8752932D01*
X38564649Y-8752932D01*
X38582556Y-8755506D01*
X38707107Y-8773414D01*
X38849564Y-8752932D01*
X38980480Y-8693144D01*
X39027163Y-8655525D01*
X39899755Y-7782930D01*
X39961078Y-7749446D01*
X40030769Y-7754430D01*
G37*
%TD.AperFunction*%
%TA.AperFunction,Conductor*%
G36*
X37196648Y-47199624D02*
G01*
X37258066Y-47205115D01*
X37313248Y-47247973D01*
X37336499Y-47313860D01*
X37336677Y-47320509D01*
X37336677Y-51405236D01*
X37316992Y-51472275D01*
X37264188Y-51518030D01*
X37195030Y-51527974D01*
X37131474Y-51498949D01*
X37124996Y-51492917D01*
X37010292Y-51378213D01*
X37010288Y-51378210D01*
X36879185Y-51290609D01*
X36879172Y-51290602D01*
X36733501Y-51230264D01*
X36733489Y-51230261D01*
X36666420Y-51216920D01*
X36604509Y-51184535D01*
X36602930Y-51182984D01*
X35118889Y-49698943D01*
X35104185Y-49672015D01*
X35087593Y-49646197D01*
X35086701Y-49639996D01*
X35085404Y-49637620D01*
X35082570Y-49611262D01*
X35082570Y-49489956D01*
X35102255Y-49422917D01*
X35118889Y-49402275D01*
X35230561Y-49290603D01*
X35449357Y-49071807D01*
X35472462Y-49044757D01*
X35548597Y-48906267D01*
X35587900Y-48753194D01*
X35587900Y-48595155D01*
X35548597Y-48442082D01*
X35518115Y-48386635D01*
X35472464Y-48303595D01*
X35455546Y-48283787D01*
X35426975Y-48220026D01*
X35437412Y-48150940D01*
X35462152Y-48115577D01*
X36053285Y-47524445D01*
X36124473Y-47417903D01*
X36142347Y-47374751D01*
X36173509Y-47299520D01*
X36173750Y-47298310D01*
X36174048Y-47297738D01*
X36175277Y-47293690D01*
X36176045Y-47293922D01*
X36206138Y-47236401D01*
X36266856Y-47201830D01*
X36295366Y-47198508D01*
X37190417Y-47198508D01*
X37196480Y-47197911D01*
X37196648Y-47199624D01*
G37*
%TD.AperFunction*%
%TA.AperFunction,Conductor*%
G36*
X27923466Y-48443950D02*
G01*
X27969221Y-48496754D01*
X27979165Y-48565912D01*
X27950140Y-48629468D01*
X27944108Y-48635946D01*
X26494727Y-50085325D01*
X26494724Y-50085328D01*
X26455351Y-50144254D01*
X26455352Y-50144255D01*
X26423534Y-50191874D01*
X26374499Y-50310255D01*
X26374497Y-50310261D01*
X26349500Y-50435928D01*
X26349500Y-50686004D01*
X26329815Y-50753043D01*
X26277011Y-50798798D01*
X26207853Y-50808742D01*
X26144297Y-50779717D01*
X26137819Y-50773685D01*
X25884819Y-50520686D01*
X25884795Y-50520664D01*
X25857754Y-50497567D01*
X25857752Y-50497565D01*
X25857751Y-50497565D01*
X25728372Y-50426438D01*
X25679448Y-50377514D01*
X25608324Y-50248139D01*
X25585222Y-50221090D01*
X25552426Y-50188294D01*
X25451811Y-50087680D01*
X25418327Y-50026358D01*
X25423311Y-49956666D01*
X25451808Y-49912322D01*
X25585217Y-49778914D01*
X25608322Y-49751863D01*
X25679448Y-49622484D01*
X25728368Y-49573563D01*
X25857751Y-49502435D01*
X25876564Y-49486366D01*
X25884799Y-49479334D01*
X25884810Y-49479323D01*
X26150886Y-49213246D01*
X26150885Y-49213246D01*
X26150903Y-49213229D01*
X26174008Y-49186178D01*
X26245135Y-49056797D01*
X26294055Y-49007876D01*
X26423436Y-48936749D01*
X26442249Y-48920680D01*
X26450484Y-48913648D01*
X26450495Y-48913637D01*
X26716571Y-48647560D01*
X26716570Y-48647560D01*
X26716588Y-48647543D01*
X26739693Y-48620492D01*
X26810820Y-48491111D01*
X26823305Y-48478629D01*
X26831573Y-48463396D01*
X26859764Y-48442178D01*
X26864480Y-48439585D01*
X26924187Y-48424265D01*
X27856427Y-48424265D01*
X27923466Y-48443950D01*
G37*
%TD.AperFunction*%
%TA.AperFunction,Conductor*%
G36*
X35386567Y-41448633D02*
G01*
X35394733Y-41456101D01*
X37300358Y-43361726D01*
X37333843Y-43423049D01*
X37336677Y-43449407D01*
X37336677Y-44641584D01*
X37316992Y-44708623D01*
X37300358Y-44729265D01*
X36575385Y-45454239D01*
X36575377Y-45454248D01*
X36510121Y-45534352D01*
X36510116Y-45534360D01*
X36431381Y-45691134D01*
X36413512Y-45766528D01*
X36378897Y-45827220D01*
X36316964Y-45859563D01*
X36247376Y-45853288D01*
X36205176Y-45825611D01*
X36044507Y-45664943D01*
X36001840Y-45630185D01*
X35967070Y-45601860D01*
X35967062Y-45601855D01*
X35815514Y-45525745D01*
X35815512Y-45525744D01*
X35815511Y-45525744D01*
X35650485Y-45486632D01*
X35480887Y-45486632D01*
X35315861Y-45525744D01*
X35315857Y-45525745D01*
X35164307Y-45601856D01*
X35164306Y-45601857D01*
X35164304Y-45601858D01*
X35164303Y-45601859D01*
X35136993Y-45624105D01*
X35086864Y-45664941D01*
X35086858Y-45664947D01*
X34664950Y-46086857D01*
X34664946Y-46086861D01*
X34664943Y-46086865D01*
X34614492Y-46148794D01*
X34588056Y-46166942D01*
X34562523Y-46186344D01*
X34558793Y-46187030D01*
X34556892Y-46188336D01*
X34528091Y-46194093D01*
X34523227Y-46194476D01*
X34416133Y-46194476D01*
X34345964Y-46208433D01*
X34338668Y-46209008D01*
X34311348Y-46203270D01*
X34283533Y-46200781D01*
X34277618Y-46196186D01*
X34270290Y-46194647D01*
X34250406Y-46175046D01*
X34228356Y-46157917D01*
X34222651Y-46147686D01*
X34220531Y-46145597D01*
X34219885Y-46142726D01*
X34214374Y-46132845D01*
X34209394Y-46120821D01*
X34201042Y-46108322D01*
X34121789Y-45989711D01*
X34121786Y-45989707D01*
X34010292Y-45878213D01*
X34010288Y-45878210D01*
X33879185Y-45790609D01*
X33879172Y-45790602D01*
X33733501Y-45730264D01*
X33733489Y-45730261D01*
X33578845Y-45699500D01*
X33578842Y-45699500D01*
X33421158Y-45699500D01*
X33421155Y-45699500D01*
X33266510Y-45730261D01*
X33266498Y-45730264D01*
X33254083Y-45735407D01*
X33235600Y-45737393D01*
X33218335Y-45744292D01*
X33201578Y-45741050D01*
X33184614Y-45742874D01*
X33167992Y-45734553D01*
X33149737Y-45731022D01*
X33137393Y-45719236D01*
X33122135Y-45711598D01*
X33112649Y-45695609D01*
X33099203Y-45682771D01*
X33095191Y-45666184D01*
X33086484Y-45651508D01*
X33087147Y-45632927D01*
X33082778Y-45614860D01*
X33088744Y-45588237D01*
X33088979Y-45581683D01*
X33089481Y-45580208D01*
X33090676Y-45576761D01*
X33125501Y-45492688D01*
X33131447Y-45462797D01*
X33150500Y-45367013D01*
X33150500Y-44320807D01*
X33170185Y-44253768D01*
X33186819Y-44233126D01*
X33882347Y-43537598D01*
X34602931Y-42817013D01*
X34664252Y-42783530D01*
X34666284Y-42783106D01*
X34733497Y-42769737D01*
X34879179Y-42709394D01*
X35010289Y-42621789D01*
X35121789Y-42510289D01*
X35209394Y-42379179D01*
X35269737Y-42233497D01*
X35300500Y-42078842D01*
X35300500Y-41921158D01*
X35300500Y-41921155D01*
X35300499Y-41921153D01*
X35286246Y-41849500D01*
X35269737Y-41766503D01*
X35258059Y-41738309D01*
X35209397Y-41620827D01*
X35209392Y-41620818D01*
X35203951Y-41612675D01*
X35183072Y-41545998D01*
X35201555Y-41478617D01*
X35253533Y-41431926D01*
X35322503Y-41420748D01*
X35386567Y-41448633D01*
G37*
%TD.AperFunction*%
%TA.AperFunction,Conductor*%
G36*
X32355703Y-38417517D02*
G01*
X32362181Y-38423549D01*
X35043898Y-41105266D01*
X35077383Y-41166589D01*
X35072399Y-41236281D01*
X35030527Y-41292214D01*
X34965063Y-41316631D01*
X34896790Y-41301779D01*
X34887326Y-41296049D01*
X34879185Y-41290609D01*
X34879172Y-41290602D01*
X34733501Y-41230264D01*
X34733489Y-41230261D01*
X34578845Y-41199500D01*
X34578842Y-41199500D01*
X34421158Y-41199500D01*
X34421155Y-41199500D01*
X34266510Y-41230261D01*
X34266498Y-41230264D01*
X34120827Y-41290602D01*
X34120814Y-41290609D01*
X33989711Y-41378210D01*
X33989707Y-41378213D01*
X33878213Y-41489707D01*
X33878210Y-41489711D01*
X33790609Y-41620814D01*
X33790602Y-41620827D01*
X33730263Y-41766500D01*
X33730261Y-41766506D01*
X33716919Y-41833581D01*
X33684533Y-41895491D01*
X33682983Y-41897069D01*
X32532180Y-43047872D01*
X32470857Y-43081357D01*
X32401165Y-43076373D01*
X32345232Y-43034501D01*
X32320815Y-42969037D01*
X32320499Y-42960191D01*
X32320499Y-42810830D01*
X32320498Y-42810808D01*
X32318352Y-42783530D01*
X32317665Y-42774796D01*
X32272869Y-42620607D01*
X32238869Y-42563117D01*
X32221688Y-42495398D01*
X32238869Y-42436882D01*
X32272869Y-42379393D01*
X32272930Y-42379185D01*
X32317664Y-42225208D01*
X32317664Y-42225206D01*
X32317665Y-42225204D01*
X32320500Y-42189181D01*
X32320499Y-41790820D01*
X32317665Y-41754796D01*
X32272869Y-41600607D01*
X32191135Y-41462402D01*
X32191133Y-41462400D01*
X32191130Y-41462396D01*
X32186819Y-41458085D01*
X32153334Y-41396762D01*
X32150500Y-41370404D01*
X32150500Y-38511230D01*
X32170185Y-38444191D01*
X32222989Y-38398436D01*
X32292147Y-38388492D01*
X32355703Y-38417517D01*
G37*
%TD.AperFunction*%
%TA.AperFunction,Conductor*%
G36*
X26868203Y-9930016D02*
G01*
X26874681Y-9936048D01*
X30021580Y-13082948D01*
X30021584Y-13082951D01*
X30144498Y-13165080D01*
X30144511Y-13165087D01*
X30281082Y-13221656D01*
X30281087Y-13221658D01*
X30281091Y-13221658D01*
X30281092Y-13221659D01*
X30426079Y-13250500D01*
X30426082Y-13250500D01*
X30573917Y-13250500D01*
X30888771Y-13250500D01*
X30955810Y-13270185D01*
X31001565Y-13322989D01*
X31011509Y-13392147D01*
X30982484Y-13455703D01*
X30976452Y-13462181D01*
X30417047Y-14021584D01*
X30417045Y-14021586D01*
X30383989Y-14071062D01*
X30383987Y-14071065D01*
X30334919Y-14144499D01*
X30334912Y-14144511D01*
X30278343Y-14281082D01*
X30278340Y-14281092D01*
X30249500Y-14426079D01*
X30249500Y-19405192D01*
X30229815Y-19472231D01*
X30177011Y-19517986D01*
X30107853Y-19527930D01*
X30044297Y-19498905D01*
X30037819Y-19492873D01*
X29036818Y-18491872D01*
X29003333Y-18430549D01*
X29000499Y-18404191D01*
X29000499Y-17952129D01*
X29000498Y-17952123D01*
X29000497Y-17952116D01*
X28994091Y-17892517D01*
X28943796Y-17757669D01*
X28943795Y-17757668D01*
X28943793Y-17757664D01*
X28857547Y-17642455D01*
X28857544Y-17642452D01*
X28742335Y-17556206D01*
X28742328Y-17556202D01*
X28607482Y-17505908D01*
X28607483Y-17505908D01*
X28547883Y-17499501D01*
X28547881Y-17499500D01*
X28547873Y-17499500D01*
X28547864Y-17499500D01*
X27452129Y-17499500D01*
X27452123Y-17499501D01*
X27392516Y-17505908D01*
X27257671Y-17556202D01*
X27257664Y-17556206D01*
X27142457Y-17642451D01*
X27142449Y-17642458D01*
X27118232Y-17674810D01*
X27062299Y-17716682D01*
X27018965Y-17724500D01*
X22981035Y-17724500D01*
X22913996Y-17704815D01*
X22881768Y-17674810D01*
X22857550Y-17642458D01*
X22857547Y-17642455D01*
X22857546Y-17642454D01*
X22857542Y-17642451D01*
X22742335Y-17556206D01*
X22742328Y-17556202D01*
X22607482Y-17505908D01*
X22607483Y-17505908D01*
X22547883Y-17499501D01*
X22547881Y-17499500D01*
X22547873Y-17499500D01*
X22547864Y-17499500D01*
X21452129Y-17499500D01*
X21452123Y-17499501D01*
X21392516Y-17505908D01*
X21257671Y-17556202D01*
X21257664Y-17556206D01*
X21142455Y-17642452D01*
X21142452Y-17642455D01*
X21056206Y-17757664D01*
X21056202Y-17757671D01*
X21005908Y-17892517D01*
X20999501Y-17952116D01*
X20999501Y-17952123D01*
X20999500Y-17952135D01*
X20999500Y-18797870D01*
X20999501Y-18797876D01*
X21005908Y-18857483D01*
X21056202Y-18992328D01*
X21056206Y-18992335D01*
X21142452Y-19107544D01*
X21142455Y-19107547D01*
X21257664Y-19193793D01*
X21257671Y-19193797D01*
X21392517Y-19244091D01*
X21392516Y-19244091D01*
X21399444Y-19244835D01*
X21452127Y-19250500D01*
X22547872Y-19250499D01*
X22607483Y-19244091D01*
X22742331Y-19193796D01*
X22857546Y-19107546D01*
X22881768Y-19075190D01*
X22937701Y-19033318D01*
X22981035Y-19025500D01*
X27018965Y-19025500D01*
X27086004Y-19045185D01*
X27118232Y-19075190D01*
X27142449Y-19107541D01*
X27142452Y-19107544D01*
X27142454Y-19107546D01*
X27142457Y-19107548D01*
X27257664Y-19193793D01*
X27257671Y-19193797D01*
X27302618Y-19210561D01*
X27392517Y-19244091D01*
X27452127Y-19250500D01*
X27904191Y-19250499D01*
X27971230Y-19270183D01*
X27991872Y-19286818D01*
X29313181Y-20608126D01*
X29346666Y-20669449D01*
X29349500Y-20695807D01*
X29349500Y-36564071D01*
X29364505Y-36639500D01*
X29364505Y-36639502D01*
X29374497Y-36689736D01*
X29374499Y-36689744D01*
X29399732Y-36750663D01*
X29423535Y-36808127D01*
X29494723Y-36914669D01*
X29494726Y-36914673D01*
X29494727Y-36914674D01*
X30813181Y-38233127D01*
X30846666Y-38294450D01*
X30849500Y-38320808D01*
X30849500Y-39102242D01*
X30829815Y-39169281D01*
X30777011Y-39215036D01*
X30707853Y-39224980D01*
X30701309Y-39223859D01*
X30578846Y-39199500D01*
X30578842Y-39199500D01*
X30421158Y-39199500D01*
X30421155Y-39199500D01*
X30266510Y-39230261D01*
X30266498Y-39230264D01*
X30120827Y-39290602D01*
X30120814Y-39290609D01*
X29989711Y-39378210D01*
X29989707Y-39378213D01*
X29878213Y-39489707D01*
X29878210Y-39489711D01*
X29790609Y-39620814D01*
X29790602Y-39620827D01*
X29727932Y-39772131D01*
X29725477Y-39771114D01*
X29693490Y-39819930D01*
X29629679Y-39848390D01*
X29613122Y-39849500D01*
X25504935Y-39849500D01*
X25437896Y-39829815D01*
X25436090Y-39828633D01*
X25379179Y-39790606D01*
X25379172Y-39790602D01*
X25233501Y-39730264D01*
X25233489Y-39730261D01*
X25078845Y-39699500D01*
X25078842Y-39699500D01*
X24944500Y-39699500D01*
X24877461Y-39679815D01*
X24831706Y-39627011D01*
X24820500Y-39575500D01*
X24820499Y-39310830D01*
X24820498Y-39310808D01*
X24817665Y-39274796D01*
X24772869Y-39120607D01*
X24738869Y-39063117D01*
X24721688Y-38995398D01*
X24738869Y-38936882D01*
X24772869Y-38879393D01*
X24778649Y-38859500D01*
X24817664Y-38725208D01*
X24817664Y-38725206D01*
X24817665Y-38725204D01*
X24820500Y-38689181D01*
X24820499Y-38290820D01*
X24817665Y-38254796D01*
X24772869Y-38100607D01*
X24691135Y-37962402D01*
X24673581Y-37944848D01*
X24640094Y-37883526D01*
X24639668Y-37881482D01*
X24625501Y-37810256D01*
X24576465Y-37691873D01*
X24505277Y-37585331D01*
X24505275Y-37585329D01*
X24505273Y-37585326D01*
X19686819Y-32766872D01*
X19653334Y-32705549D01*
X19650500Y-32679191D01*
X19650500Y-32160525D01*
X20674500Y-32160525D01*
X20674500Y-32419474D01*
X20674501Y-32419491D01*
X20708299Y-32676217D01*
X20708300Y-32676222D01*
X20708301Y-32676228D01*
X20708302Y-32676230D01*
X20775324Y-32926364D01*
X20874423Y-33165609D01*
X20874427Y-33165619D01*
X21003906Y-33389883D01*
X21161551Y-33595331D01*
X21161557Y-33595338D01*
X21344661Y-33778442D01*
X21344668Y-33778448D01*
X21550116Y-33936093D01*
X21774380Y-34065572D01*
X21774381Y-34065572D01*
X21774384Y-34065574D01*
X22013634Y-34164675D01*
X22263772Y-34231699D01*
X22520519Y-34265500D01*
X22520526Y-34265500D01*
X22779474Y-34265500D01*
X22779481Y-34265500D01*
X23036228Y-34231699D01*
X23286366Y-34164675D01*
X23525616Y-34065574D01*
X23749884Y-33936093D01*
X23955333Y-33778447D01*
X24138447Y-33595333D01*
X24296093Y-33389884D01*
X24425574Y-33165616D01*
X24524675Y-32926366D01*
X24591699Y-32676228D01*
X24625500Y-32419481D01*
X24625500Y-32160519D01*
X24591699Y-31903772D01*
X24524675Y-31653634D01*
X24425574Y-31414384D01*
X24394115Y-31359896D01*
X24296093Y-31190116D01*
X24138448Y-30984668D01*
X24138442Y-30984661D01*
X23955338Y-30801557D01*
X23955331Y-30801551D01*
X23749883Y-30643906D01*
X23525619Y-30514427D01*
X23525609Y-30514423D01*
X23286364Y-30415324D01*
X23161297Y-30381813D01*
X23036228Y-30348301D01*
X23036222Y-30348300D01*
X23036217Y-30348299D01*
X22779491Y-30314501D01*
X22779486Y-30314500D01*
X22779481Y-30314500D01*
X22520519Y-30314500D01*
X22520513Y-30314500D01*
X22520508Y-30314501D01*
X22263782Y-30348299D01*
X22263775Y-30348300D01*
X22263772Y-30348301D01*
X22210908Y-30362465D01*
X22013635Y-30415324D01*
X21774390Y-30514423D01*
X21774380Y-30514427D01*
X21550116Y-30643906D01*
X21344668Y-30801551D01*
X21344661Y-30801557D01*
X21161557Y-30984661D01*
X21161551Y-30984668D01*
X21003906Y-31190116D01*
X20874427Y-31414380D01*
X20874423Y-31414390D01*
X20775324Y-31653635D01*
X20708302Y-31903769D01*
X20708299Y-31903782D01*
X20674501Y-32160508D01*
X20674500Y-32160525D01*
X19650500Y-32160525D01*
X19650500Y-31320807D01*
X19670185Y-31253768D01*
X19686814Y-31233131D01*
X21178364Y-29741580D01*
X21239685Y-29708097D01*
X21309374Y-29713080D01*
X21392517Y-29744091D01*
X21452127Y-29750500D01*
X22547872Y-29750499D01*
X22607483Y-29744091D01*
X22742331Y-29693796D01*
X22800524Y-29650233D01*
X22865989Y-29625816D01*
X22874835Y-29625500D01*
X27125165Y-29625500D01*
X27192204Y-29645185D01*
X27199476Y-29650233D01*
X27257668Y-29693795D01*
X27257671Y-29693797D01*
X27392517Y-29744091D01*
X27392516Y-29744091D01*
X27399444Y-29744835D01*
X27452127Y-29750500D01*
X28547872Y-29750499D01*
X28607483Y-29744091D01*
X28742331Y-29693796D01*
X28857546Y-29607546D01*
X28943796Y-29492331D01*
X28994091Y-29357483D01*
X29000500Y-29297873D01*
X29000499Y-28452128D01*
X28994091Y-28392517D01*
X28985589Y-28369723D01*
X28943797Y-28257671D01*
X28943793Y-28257664D01*
X28857547Y-28142455D01*
X28857544Y-28142452D01*
X28742335Y-28056206D01*
X28742328Y-28056202D01*
X28607482Y-28005908D01*
X28607483Y-28005908D01*
X28547883Y-27999501D01*
X28547881Y-27999500D01*
X28547873Y-27999500D01*
X28547864Y-27999500D01*
X27452129Y-27999500D01*
X27452123Y-27999501D01*
X27392516Y-28005908D01*
X27257671Y-28056202D01*
X27257668Y-28056204D01*
X27199476Y-28099767D01*
X27134011Y-28124184D01*
X27125165Y-28124500D01*
X22874835Y-28124500D01*
X22807796Y-28104815D01*
X22800524Y-28099767D01*
X22742331Y-28056204D01*
X22742328Y-28056202D01*
X22607482Y-28005908D01*
X22607483Y-28005908D01*
X22547883Y-27999501D01*
X22547881Y-27999500D01*
X22547873Y-27999500D01*
X22547864Y-27999500D01*
X21452129Y-27999500D01*
X21452123Y-27999501D01*
X21392516Y-28005908D01*
X21257671Y-28056202D01*
X21257664Y-28056206D01*
X21142457Y-28142451D01*
X21142450Y-28142457D01*
X21113025Y-28181765D01*
X21057091Y-28223635D01*
X21037952Y-28229070D01*
X20935260Y-28249497D01*
X20935251Y-28249500D01*
X20832535Y-28292046D01*
X20832536Y-28292047D01*
X20816876Y-28298533D01*
X20816869Y-28298537D01*
X20710326Y-28369726D01*
X18494726Y-30585326D01*
X18423534Y-30691874D01*
X18374499Y-30810255D01*
X18374497Y-30810261D01*
X18349500Y-30935928D01*
X18349500Y-32193265D01*
X18329815Y-32260304D01*
X18277011Y-32306059D01*
X18207853Y-32316003D01*
X18190538Y-32312156D01*
X18064071Y-32287000D01*
X18064069Y-32287000D01*
X14579596Y-32287000D01*
X14512557Y-32267315D01*
X14491915Y-32250681D01*
X14487603Y-32246369D01*
X14487595Y-32246363D01*
X14349393Y-32164631D01*
X14349388Y-32164629D01*
X14195208Y-32119835D01*
X14195202Y-32119834D01*
X14159188Y-32117000D01*
X13834499Y-32117000D01*
X13767460Y-32097315D01*
X13721705Y-32044511D01*
X13710499Y-31993000D01*
X13710499Y-31688331D01*
X13710498Y-31688306D01*
X13710217Y-31684736D01*
X13707665Y-31652296D01*
X13662869Y-31498107D01*
X13581135Y-31359902D01*
X13581133Y-31359900D01*
X13581130Y-31359896D01*
X13467603Y-31246369D01*
X13467595Y-31246363D01*
X13410565Y-31212636D01*
X13362882Y-31161567D01*
X13350069Y-31096167D01*
X13350499Y-31090704D01*
X13350500Y-31090686D01*
X13350500Y-29924500D01*
X13370185Y-29857461D01*
X13422989Y-29811706D01*
X13474500Y-29800500D01*
X13715686Y-29800500D01*
X13715694Y-29800500D01*
X13752569Y-29797598D01*
X13752571Y-29797597D01*
X13752573Y-29797597D01*
X13798347Y-29784298D01*
X13910398Y-29751744D01*
X14051865Y-29668081D01*
X14168081Y-29551865D01*
X14251744Y-29410398D01*
X14297598Y-29252569D01*
X14300500Y-29215694D01*
X14300500Y-28312229D01*
X14320185Y-28245190D01*
X14336819Y-28224548D01*
X18082948Y-24478419D01*
X18082951Y-24478416D01*
X18165084Y-24355495D01*
X18221658Y-24218913D01*
X18231096Y-24171462D01*
X18250500Y-24073920D01*
X18250500Y-11229265D01*
X18270185Y-11162226D01*
X18322989Y-11116471D01*
X18374500Y-11105265D01*
X25719155Y-11105265D01*
X25816697Y-11085861D01*
X25864148Y-11076423D01*
X25953462Y-11039428D01*
X26000726Y-11019851D01*
X26000727Y-11019850D01*
X26000730Y-11019849D01*
X26056374Y-10982669D01*
X26123651Y-10937717D01*
X26495452Y-10565916D01*
X26545764Y-10490617D01*
X26577584Y-10442995D01*
X26634158Y-10306413D01*
X26647185Y-10240923D01*
X26663000Y-10161420D01*
X26663000Y-10023729D01*
X26682685Y-9956690D01*
X26735489Y-9910935D01*
X26804647Y-9900991D01*
X26868203Y-9930016D01*
G37*
%TD.AperFunction*%
%TA.AperFunction,Conductor*%
G36*
X30931631Y-500618D02*
G01*
X31315701Y-517388D01*
X31326437Y-518328D01*
X31704908Y-568155D01*
X31715527Y-570027D01*
X32088220Y-652650D01*
X32098646Y-655444D01*
X32347063Y-733768D01*
X32462697Y-770227D01*
X32472862Y-773927D01*
X32825505Y-919993D01*
X32835308Y-924564D01*
X33173890Y-1100813D01*
X33183255Y-1106218D01*
X33505199Y-1311313D01*
X33514053Y-1317513D01*
X33699751Y-1459998D01*
X33816889Y-1549878D01*
X33825175Y-1556831D01*
X34107988Y-1815969D01*
X34111898Y-1819712D01*
X36717068Y-4424882D01*
X36750553Y-4486205D01*
X36745569Y-4555897D01*
X36717068Y-4600244D01*
X35844483Y-5472829D01*
X35844477Y-5472836D01*
X35806855Y-5519521D01*
X35806854Y-5519523D01*
X35747068Y-5650434D01*
X35747067Y-5650439D01*
X35736722Y-5722388D01*
X35707696Y-5785944D01*
X35701665Y-5792421D01*
X34825027Y-6669060D01*
X34763704Y-6702545D01*
X34694013Y-6697561D01*
X34649665Y-6669060D01*
X34524012Y-6543407D01*
X34524005Y-6543400D01*
X34477322Y-6505780D01*
X34465629Y-6500440D01*
X34346404Y-6445991D01*
X34346406Y-6445991D01*
X34203949Y-6425510D01*
X34061492Y-6445991D01*
X33930578Y-6505778D01*
X33883883Y-6543407D01*
X32543407Y-7883885D01*
X32543401Y-7883892D01*
X32505779Y-7930577D01*
X32505778Y-7930579D01*
X32445991Y-8061492D01*
X32425510Y-8203949D01*
X32445991Y-8346405D01*
X32505778Y-8477319D01*
X32505779Y-8477320D01*
X32505780Y-8477322D01*
X32543399Y-8524005D01*
X32543402Y-8524008D01*
X32543407Y-8524014D01*
X32595280Y-8575887D01*
X32628765Y-8637210D01*
X32623781Y-8706902D01*
X32595280Y-8751249D01*
X32196263Y-9150265D01*
X32164233Y-9173394D01*
X32072138Y-9219646D01*
X32072130Y-9219650D01*
X31992036Y-9284897D01*
X31992018Y-9284913D01*
X31284914Y-9992018D01*
X31284895Y-9992039D01*
X31219654Y-10072125D01*
X31219650Y-10072131D01*
X31140910Y-10228916D01*
X31100452Y-10399619D01*
X31100451Y-10399630D01*
X31100451Y-10575064D01*
X31100452Y-10575075D01*
X31140910Y-10745778D01*
X31140912Y-10745781D01*
X31219649Y-10902562D01*
X31284906Y-10982669D01*
X31726861Y-11424623D01*
X31726869Y-11424629D01*
X31726874Y-11424634D01*
X31806960Y-11489875D01*
X31806963Y-11489877D01*
X31806968Y-11489881D01*
X31856366Y-11514689D01*
X31907441Y-11562367D01*
X31924631Y-11630089D01*
X31902479Y-11696354D01*
X31848018Y-11740123D01*
X31800716Y-11749500D01*
X30862229Y-11749500D01*
X30795190Y-11729815D01*
X30774548Y-11713181D01*
X26978419Y-7917050D01*
X26978418Y-7917049D01*
X26948717Y-7897204D01*
X26940827Y-7891932D01*
X26896023Y-7838321D01*
X26892012Y-7827834D01*
X26859814Y-7730666D01*
X26767712Y-7581344D01*
X26724284Y-7537916D01*
X26690799Y-7476593D01*
X26695783Y-7406901D01*
X26737655Y-7350968D01*
X26773646Y-7332304D01*
X26802606Y-7322895D01*
X26999022Y-7222815D01*
X27177365Y-7093242D01*
X27333242Y-6937365D01*
X27413705Y-6826615D01*
X27469035Y-6783949D01*
X27514024Y-6775500D01*
X28887770Y-6775500D01*
X28917210Y-6784144D01*
X28947197Y-6790668D01*
X28952212Y-6794422D01*
X28954809Y-6795185D01*
X28975451Y-6811819D01*
X28988181Y-6824549D01*
X29021666Y-6885872D01*
X29024500Y-6912229D01*
X29024500Y-7048336D01*
X29024501Y-7048355D01*
X29034650Y-7147707D01*
X29034651Y-7147710D01*
X29087996Y-7308694D01*
X29088001Y-7308705D01*
X29177029Y-7453040D01*
X29177032Y-7453044D01*
X29296955Y-7572967D01*
X29296959Y-7572970D01*
X29441294Y-7661998D01*
X29441297Y-7661999D01*
X29441303Y-7662003D01*
X29602292Y-7715349D01*
X29701655Y-7725500D01*
X30298344Y-7725499D01*
X30298352Y-7725498D01*
X30298355Y-7725498D01*
X30352760Y-7719940D01*
X30397708Y-7715349D01*
X30558697Y-7662003D01*
X30703044Y-7572968D01*
X30822968Y-7453044D01*
X30912003Y-7308697D01*
X30965349Y-7147708D01*
X30975500Y-7048345D01*
X30975499Y-6501656D01*
X30965349Y-6402292D01*
X30912003Y-6241303D01*
X30911999Y-6241297D01*
X30911998Y-6241294D01*
X30822970Y-6096959D01*
X30822967Y-6096955D01*
X30703044Y-5977032D01*
X30703040Y-5977029D01*
X30558705Y-5888001D01*
X30558699Y-5887998D01*
X30558697Y-5887997D01*
X30558694Y-5887996D01*
X30397709Y-5834651D01*
X30298352Y-5824500D01*
X30298345Y-5824500D01*
X30162229Y-5824500D01*
X30095190Y-5804815D01*
X30074548Y-5788181D01*
X29728421Y-5442052D01*
X29728414Y-5442046D01*
X29654729Y-5392812D01*
X29654729Y-5392813D01*
X29605491Y-5359913D01*
X29468917Y-5303343D01*
X29468907Y-5303340D01*
X29323920Y-5274500D01*
X29323918Y-5274500D01*
X27514024Y-5274500D01*
X27446985Y-5254815D01*
X27413705Y-5223384D01*
X27333245Y-5112638D01*
X27177367Y-4956760D01*
X27177365Y-4956758D01*
X27066613Y-4876291D01*
X27023949Y-4820963D01*
X27015500Y-4775975D01*
X27015500Y-4691079D01*
X26986659Y-4546092D01*
X26986658Y-4546091D01*
X26986658Y-4546087D01*
X26968665Y-4502648D01*
X26930087Y-4409511D01*
X26930080Y-4409498D01*
X26847952Y-4286585D01*
X26797597Y-4236230D01*
X26743416Y-4182049D01*
X25786819Y-3225451D01*
X25753334Y-3164128D01*
X25750500Y-3137770D01*
X25750500Y-2562320D01*
X25770185Y-2495281D01*
X25774990Y-2488336D01*
X25785752Y-2473860D01*
X25807546Y-2457546D01*
X25893796Y-2342331D01*
X25904117Y-2314657D01*
X25914632Y-2300515D01*
X25929026Y-2289665D01*
X25939828Y-2275235D01*
X25956348Y-2269072D01*
X25970428Y-2258460D01*
X25988402Y-2257115D01*
X26005291Y-2250815D01*
X26014116Y-2250499D01*
X26797872Y-2250499D01*
X26857483Y-2244091D01*
X26992331Y-2193796D01*
X27107546Y-2107546D01*
X27193796Y-1992331D01*
X27244091Y-1857483D01*
X27250500Y-1797873D01*
X27250499Y-624499D01*
X27270184Y-557461D01*
X27322987Y-511706D01*
X27374499Y-500500D01*
X30863037Y-500500D01*
X30926222Y-500500D01*
X30931631Y-500618D01*
G37*
%TD.AperFunction*%
%TA.AperFunction,Conductor*%
G36*
X22692539Y-520185D02*
G01*
X22738294Y-572989D01*
X22749500Y-624500D01*
X22749500Y-1797870D01*
X22749501Y-1797876D01*
X22755908Y-1857483D01*
X22806202Y-1992328D01*
X22806204Y-1992331D01*
X22849766Y-2050522D01*
X22874184Y-2115985D01*
X22874500Y-2124833D01*
X22874500Y-4502648D01*
X22854815Y-4569687D01*
X22802011Y-4615442D01*
X22763755Y-4625938D01*
X22717516Y-4630909D01*
X22582671Y-4681202D01*
X22582664Y-4681206D01*
X22467455Y-4767452D01*
X22467452Y-4767455D01*
X22381206Y-4882664D01*
X22381202Y-4882671D01*
X22330908Y-5017517D01*
X22324501Y-5077116D01*
X22324500Y-5077135D01*
X22324500Y-6972870D01*
X22324501Y-6972876D01*
X22330908Y-7032483D01*
X22381202Y-7167328D01*
X22381206Y-7167335D01*
X22467452Y-7282544D01*
X22467455Y-7282547D01*
X22582664Y-7368793D01*
X22582671Y-7368797D01*
X22611998Y-7379735D01*
X22717517Y-7419091D01*
X22777127Y-7425500D01*
X23106240Y-7425499D01*
X23173278Y-7445183D01*
X23219033Y-7497987D01*
X23228977Y-7567146D01*
X23211778Y-7614595D01*
X23140189Y-7730659D01*
X23140186Y-7730666D01*
X23085001Y-7897203D01*
X23085001Y-7897204D01*
X23085000Y-7897204D01*
X23074500Y-7999983D01*
X23074500Y-9000001D01*
X23074501Y-9000019D01*
X23085000Y-9102796D01*
X23085001Y-9102799D01*
X23140185Y-9269331D01*
X23140189Y-9269340D01*
X23230137Y-9415169D01*
X23248577Y-9482561D01*
X23227654Y-9549224D01*
X23174012Y-9593994D01*
X23124598Y-9604265D01*
X17878694Y-9604265D01*
X17811655Y-9584580D01*
X17791013Y-9567946D01*
X17507981Y-9284914D01*
X17507980Y-9284913D01*
X17507974Y-9284907D01*
X17507962Y-9284897D01*
X17507960Y-9284895D01*
X17427874Y-9219654D01*
X17427868Y-9219650D01*
X17427867Y-9219649D01*
X17335764Y-9173394D01*
X17271083Y-9140910D01*
X17100380Y-9100452D01*
X17100375Y-9100451D01*
X17100373Y-9100451D01*
X16924932Y-9100451D01*
X16924930Y-9100451D01*
X16924924Y-9100452D01*
X16754221Y-9140910D01*
X16649698Y-9193403D01*
X16597438Y-9219649D01*
X16597437Y-9219650D01*
X16597431Y-9219654D01*
X16517341Y-9284897D01*
X16517323Y-9284913D01*
X16075384Y-9726853D01*
X16075365Y-9726874D01*
X16010124Y-9806960D01*
X16010120Y-9806966D01*
X15931380Y-9963751D01*
X15890922Y-10134454D01*
X15890921Y-10134465D01*
X15890921Y-10266921D01*
X15871236Y-10333960D01*
X15818432Y-10379715D01*
X15766921Y-10390921D01*
X15634462Y-10390921D01*
X15634460Y-10390921D01*
X15634454Y-10390922D01*
X15463751Y-10431380D01*
X15407342Y-10459710D01*
X15361285Y-10482840D01*
X15337310Y-10487198D01*
X15314482Y-10495713D01*
X15303550Y-10493335D01*
X15292543Y-10495336D01*
X15270017Y-10486040D01*
X15246209Y-10480861D01*
X15232379Y-10470507D01*
X15227957Y-10468683D01*
X15217955Y-10459710D01*
X15174531Y-10416286D01*
X15141046Y-10354963D01*
X15146030Y-10285271D01*
X15174530Y-10240924D01*
X15226413Y-10189043D01*
X15264033Y-10142360D01*
X15323821Y-10011444D01*
X15344303Y-9868987D01*
X15323821Y-9726530D01*
X15288389Y-9648947D01*
X15278446Y-9579789D01*
X15307471Y-9516234D01*
X15366249Y-9478459D01*
X15401184Y-9473436D01*
X15472136Y-9473436D01*
X15472137Y-9473436D01*
X15689866Y-9438951D01*
X15899521Y-9370831D01*
X16095937Y-9270751D01*
X16274280Y-9141178D01*
X16430157Y-8985301D01*
X16559730Y-8806958D01*
X16659810Y-8610542D01*
X16727930Y-8400887D01*
X16762415Y-8183158D01*
X16762415Y-7962714D01*
X16740999Y-7827502D01*
X16741700Y-7822079D01*
X16739788Y-7816952D01*
X16746129Y-7787799D01*
X16749953Y-7758212D01*
X16753785Y-7752607D01*
X16754640Y-7748679D01*
X16775784Y-7720433D01*
X16934401Y-7561816D01*
X16995724Y-7528334D01*
X17022081Y-7525500D01*
X19198126Y-7525500D01*
X19265165Y-7545185D01*
X19285807Y-7561819D01*
X19296955Y-7572967D01*
X19296959Y-7572970D01*
X19441294Y-7661998D01*
X19441297Y-7661999D01*
X19441303Y-7662003D01*
X19602292Y-7715349D01*
X19701655Y-7725500D01*
X20298344Y-7725499D01*
X20298352Y-7725498D01*
X20298355Y-7725498D01*
X20352760Y-7719940D01*
X20397708Y-7715349D01*
X20558697Y-7662003D01*
X20703044Y-7572968D01*
X20822968Y-7453044D01*
X20912003Y-7308697D01*
X20965349Y-7147708D01*
X20975500Y-7048345D01*
X20975499Y-6501656D01*
X20965349Y-6402292D01*
X20912003Y-6241303D01*
X20911999Y-6241297D01*
X20911998Y-6241294D01*
X20822970Y-6096959D01*
X20822967Y-6096955D01*
X20703044Y-5977032D01*
X20703040Y-5977029D01*
X20558705Y-5888001D01*
X20558699Y-5887998D01*
X20558697Y-5887997D01*
X20558694Y-5887996D01*
X20397709Y-5834651D01*
X20298346Y-5824500D01*
X19701662Y-5824500D01*
X19701644Y-5824501D01*
X19602292Y-5834650D01*
X19602289Y-5834651D01*
X19441305Y-5887996D01*
X19441294Y-5888001D01*
X19296959Y-5977029D01*
X19296955Y-5977032D01*
X19285807Y-5988181D01*
X19224484Y-6021666D01*
X19198126Y-6024500D01*
X16585927Y-6024500D01*
X16557093Y-6030234D01*
X16557094Y-6030235D01*
X16440944Y-6053339D01*
X16440934Y-6053342D01*
X16360932Y-6086479D01*
X16360933Y-6086480D01*
X16304360Y-6109914D01*
X16304346Y-6109921D01*
X16291338Y-6118614D01*
X16291336Y-6118616D01*
X16181433Y-6192049D01*
X16181432Y-6192050D01*
X15714423Y-6659058D01*
X15653100Y-6692543D01*
X15607344Y-6693850D01*
X15472142Y-6672436D01*
X15472137Y-6672436D01*
X15251693Y-6672436D01*
X15222808Y-6677011D01*
X15033964Y-6706920D01*
X14918268Y-6744511D01*
X14867807Y-6749983D01*
X14862899Y-6749500D01*
X14862897Y-6749500D01*
X13818336Y-6749500D01*
X13751297Y-6729815D01*
X13705542Y-6677011D01*
X13695598Y-6607853D01*
X13724623Y-6544297D01*
X13730655Y-6537819D01*
X13828702Y-6439772D01*
X14155524Y-6112949D01*
X14193144Y-6066266D01*
X14252932Y-5935350D01*
X14273414Y-5792893D01*
X14252932Y-5650436D01*
X14193144Y-5519520D01*
X14155525Y-5472837D01*
X14155520Y-5472832D01*
X14155516Y-5472827D01*
X13282931Y-4600243D01*
X13249446Y-4538920D01*
X13254430Y-4469229D01*
X13282929Y-4424883D01*
X15887532Y-1820281D01*
X15891390Y-1816587D01*
X16174876Y-1556818D01*
X16183128Y-1549894D01*
X16485974Y-1317509D01*
X16494813Y-1311320D01*
X16816775Y-1106205D01*
X16826102Y-1100820D01*
X17164699Y-924555D01*
X17174490Y-919989D01*
X17527159Y-773907D01*
X17537295Y-770218D01*
X17901359Y-655426D01*
X17911785Y-652633D01*
X18284476Y-570007D01*
X18295095Y-568135D01*
X18673564Y-518306D01*
X18684301Y-517366D01*
X19067865Y-500618D01*
X19073274Y-500500D01*
X19136963Y-500500D01*
X22625500Y-500500D01*
X22692539Y-520185D01*
G37*
%TD.AperFunction*%
%TD*%
M02*
